<?xml version="1.0" standalone="no"?>
<!DOCTYPE svg PUBLIC "-//W3C//DTD SVG 1.1//EN" "http://www.w3.org/Graphics/SVG/1.1/DTD/svg11.dtd" >
<svg xmlns="http://www.w3.org/2000/svg">
<metadata></metadata>
<defs>
<font id="industrybold_italic" horiz-adv-x="1148" >
<font-face units-per-em="2048" ascent="1638" descent="-410" />
<missing-glyph horiz-adv-x="481" />
<glyph unicode="&#xfb01;" horiz-adv-x="1306" d="M106 0l154 868h-154l41 238h154l29 164q23 131 100.5 198.5t206.5 67.5h240l-37 -213h-178q-19 0 -32 -12t-16 -33l-30 -172h237l-41 -238h-237l-154 -868h-283zM797 0l194 1106h283l-195 -1106h-282zM1012 1270l47 266h299l-47 -266h-299z" />
<glyph unicode="&#xfb02;" horiz-adv-x="1298" d="M106 0l154 868h-154l41 238h154l29 164q23 131 100.5 198.5t206.5 67.5h240l-37 -213h-178q-19 0 -32 -12t-16 -33l-30 -172h237l-41 -238h-237l-154 -868h-283zM793 0l270 1536h283l-271 -1536h-282z" />
<glyph horiz-adv-x="2048" />
<glyph horiz-adv-x="2048" />
<glyph unicode="&#xd;" horiz-adv-x="2048" />
<glyph unicode=" "  horiz-adv-x="481" />
<glyph unicode="&#x09;" horiz-adv-x="481" />
<glyph unicode="&#xa0;" horiz-adv-x="481" />
<glyph unicode="!" horiz-adv-x="552" d="M35 0l53 299h287l-53 -299h-287zM166 498l113 977h319l-231 -977h-201z" />
<glyph unicode="&#x22;" horiz-adv-x="919" d="M252 950l18 525h293l-166 -525h-145zM662 950l18 525h293l-164 -525h-147z" />
<glyph unicode="#" horiz-adv-x="1593" d="M29 0l178 358h-176l45 258h260l131 267h-205l45 258h289l166 334h282l-165 -334h292l166 334h283l-166 -334h176l-45 -258h-260l-131 -267h205l-45 -258h-289l-178 -358h-283l178 358h-293l-178 -358h-282zM618 616h293l131 267h-292z" />
<glyph unicode="$" horiz-adv-x="1253" d="M66 287l32 184h287l-31 -164q-8 -41 29 -41h98l64 361l-123 28q-92 21 -146.5 52t-80.5 90.5t-11 148.5l43 242q25 139 110 213t222 74h107l36 208h234l-37 -208h96q137 0 196 -74t34 -213l-29 -168h-287l27 147q8 41 -29 41h-84l-59 -342l135 -30q92 -21 147 -52 t81 -90.5t10 -148.5l-45 -258q-25 -139 -110 -213t-222 -74h-121l-37 -209h-233l37 209h-111q-136 0 -195 73.5t-34 213.5zM487 991q-6 -37 4 -50.5t50 -22.5l53 -13l53 303h-86q-35 0 -41 -41zM657 266h101q35 0 41 41l35 193q6 37 -4 50.5t-50 22.5l-65 15z" />
<glyph unicode="%" horiz-adv-x="1243" d="M78 0l905 1475h244l-905 -1475h-244zM168 1053l49 278q25 144 166 144h172q68 0 98.5 -37t18.5 -107l-49 -278q-12 -70 -55.5 -107t-112.5 -37h-172q-67 0 -97 37.5t-18 106.5zM319 1085q-3 -20 4 -28t27 -8h86q35 0 41 36l39 213q3 21 -3 29t-26 8h-86q-37 0 -43 -37z M637 143l49 279q24 143 166 143h172q68 0 98.5 -36.5t18.5 -106.5l-49 -279q-12 -70 -55.5 -106.5t-112.5 -36.5h-172q-67 0 -97 37t-18 106zM788 176q-3 -20 4 -28.5t27 -8.5h86q35 0 41 37l39 213q3 21 -3 29t-26 8h-86q-37 0 -43 -37z" />
<glyph unicode="&#x26;" horiz-adv-x="1318" d="M72 287l43 245q11 70 56.5 128.5t123.5 93.5q-112 75 -86 221l37 213q25 139 110 213t222 74h370q137 0 196 -74t34 -213l-25 -139h-295l23 118q8 41 -29 41h-272q-35 0 -41 -41l-43 -241q-3 -22 2.5 -31.5t23.5 -9.5h815l-45 -262h-143l-59 -336q-25 -139 -110 -213 t-222 -74h-457q-136 0 -195 73.5t-34 213.5zM369 307q-3 -22 3.5 -31.5t26.5 -9.5h357q35 0 41 41l57 316h-391q-39 0 -45 -41z" />
<glyph unicode="'" horiz-adv-x="509" d="M252 950l18 525h293l-166 -525h-145z" />
<glyph unicode="(" horiz-adv-x="788" d="M80 70l221 1249q25 140 109.5 213.5t220.5 73.5h237l-47 -271h-186q-36 0 -45 -41l-211 -1200q-3 -22 4 -31.5t27 -9.5h186l-49 -270h-238q-136 0 -195 73.5t-34 213.5z" />
<glyph unicode=")" horiz-adv-x="788" d="M-33 -217l49 270h187q37 0 43 41l211 1200q3 22 -3 31.5t-26 9.5h-186l47 271h237q137 0 197 -74t35 -213l-221 -1249q-25 -139 -110 -213t-222 -74h-238z" />
<glyph unicode="*" horiz-adv-x="843" d="M129 1104l109 223l237 -153l-8 301h233l-114 -301l286 151l35 -221l-307 -39l184 -203l-213 -137l-71 281l-170 -279l-168 135l258 213z" />
<glyph unicode="+" horiz-adv-x="1017" d="M123 633l45 250h272l45 260h250l-45 -260h275l-45 -250h-275l-45 -260h-250l45 260h-272z" />
<glyph unicode="," horiz-adv-x="503" d="M-84 -274l205 274h-109l54 299h284l-39 -221q-11 -67 -133 -193l-149 -159h-113z" />
<glyph unicode="-" horiz-adv-x="886" d="M98 543l45 262h686l-45 -262h-686z" />
<glyph unicode="." horiz-adv-x="501" d="M10 0l53 299h285l-53 -299h-285z" />
<glyph unicode="/" horiz-adv-x="1050" d="M-102 -143l1020 1761h299l-1020 -1761h-299z" />
<glyph unicode="0" horiz-adv-x="1269" d="M76 287l157 901q25 139 110 213t222 74h463q136 0 195 -73.5t34 -213.5l-157 -901q-25 -139 -110 -213t-222 -74h-463q-136 0 -195 73.5t-34 213.5zM375 311q-3 -23 2.5 -32t25.5 -9h361q39 0 45 41l149 852q3 23 -2.5 32t-25.5 9h-361q-39 0 -45 -41z" />
<glyph unicode="1" horiz-adv-x="831" d="M172 1073l45 246l352 156h234l-260 -1475h-295l207 1167z" />
<glyph unicode="2" horiz-adv-x="1212" d="M14 0h1010l47 270h-715l31 168q7 35 26 50t66 30l365 123q153 51 237.5 117t104.5 180l43 250q25 139 -34 213t-196 74h-428q-136 0 -221 -73.5t-110 -213.5l-27 -160h287l22 135q6 41 43 41h338q18 0 24 -9.5t3 -31.5l-29 -159q-7 -35 -26 -50t-64 -30l-367 -123 q-153 -51 -237.5 -117t-104.5 -180z" />
<glyph unicode="3" horiz-adv-x="1220" d="M53 287l27 155h295l-25 -135q-8 -41 31 -41h346q37 0 43 41l49 275q3 23 -2.5 32t-25.5 9h-328l45 262h313q34 0 43 41l43 241q3 22 -3 31.5t-25 9.5h-318q-35 0 -41 -41l-24 -135h-295l26 156q25 139 110 213t222 74h416q136 0 195 -73.5t34 -213.5l-37 -213 q-26 -147 -163 -221q129 -69 102 -222l-43 -245q-25 -139 -110 -213t-222 -74h-448q-137 0 -196 74t-34 213z" />
<glyph unicode="4" horiz-adv-x="1300" d="M37 516l930 959h247l-161 -918h202l-47 -262h-202l-52 -295h-286l51 295h-658zM412 557h354l84 475z" />
<glyph unicode="5" horiz-adv-x="1269" d="M76 287l26 157h295l-22 -133q-3 -23 2.5 -32t25.5 -9h359q39 0 45 41l61 351q3 22 -3.5 31t-26.5 9h-125q-126 0 -260 -67l-283 74l135 766h961l-47 -271h-666l-74 -411q149 172 318 172h139q136 0 195 -73.5t34 -213.5l-67 -383q-25 -140 -114.5 -217.5t-227.5 -77.5 h-451q-136 0 -195 73.5t-34 213.5z" />
<glyph unicode="6" horiz-adv-x="1263" d="M76 287l157 901q25 139 110 213t222 74h445q136 0 195 -73.5t34 -213.5l-22 -135h-295l18 110q6 41 -29 41h-342q-39 0 -45 -41l-71 -409q149 172 317 172h158q138 0 197 -73.5t34 -213.5l-61 -352q-25 -140 -110.5 -213.5t-223.5 -73.5h-459q-136 0 -195 73.5t-34 213.5 zM375 311q-3 -23 2.5 -32t25.5 -9h359q39 0 45 41l55 312q3 22 -4 31.5t-27 9.5h-145q-123 0 -262 -68z" />
<glyph unicode="7" horiz-adv-x="1163" d="M6 0l868 1208h-679l47 267h1034l-37 -211l-901 -1264h-332z" />
<glyph unicode="8" horiz-adv-x="1243" d="M63 287l43 245q11 69 56.5 128t124.5 94q-112 75 -86 221l37 213q25 140 110 213.5t221 73.5h428q137 0 196 -74t34 -213l-37 -213q-27 -147 -166 -221q128 -68 104 -222l-43 -245q-25 -140 -110 -213.5t-221 -73.5h-461q-137 0 -196 74t-34 213zM360 307q-3 -22 4 -31.5 t27 -9.5h359q37 0 43 41l49 277q3 22 -3 31.5t-26 9.5h-358q-36 0 -45 -41zM487 924q-3 -22 3 -31.5t24 -9.5h328q36 0 45 41l43 243q3 22 -4 31.5t-27 9.5h-328q-35 0 -41 -41z" />
<glyph unicode="9" horiz-adv-x="1263" d="M88 287l23 135h295l-19 -111q-3 -22 3 -31.5t24 -9.5h344q39 0 45 41l74 416q-149 -172 -320 -172h-158q-137 0 -196.5 74t-34.5 213l61 346q25 139 110 213t222 74h461q136 0 195 -73.5t34 -213.5l-157 -901q-25 -139 -110 -213t-222 -74h-445q-136 0 -195 73.5 t-34 213.5zM467 858q-3 -22 3 -31.5t26 -9.5h145q126 0 262 68l49 278q3 23 -2.5 32t-25.5 9h-359q-39 0 -45 -41z" />
<glyph unicode=":" horiz-adv-x="501" d="M10 0l53 299h285l-53 -299h-285zM152 807l53 299h284l-53 -299h-284z" />
<glyph unicode=";" horiz-adv-x="503" d="M-84 -274l205 274h-109l54 299h284l-39 -221q-11 -67 -133 -193l-149 -159h-113zM154 807l53 299h285l-54 -299h-284z" />
<glyph unicode="&#x3c;" horiz-adv-x="1019" d="M117 631l727 -359l43 244l-473 217l549 219l47 265l-852 -361z" />
<glyph unicode="=" horiz-adv-x="1017" d="M86 422l47 262h797l-47 -262h-797zM162 848l47 262h797l-48 -262h-796z" />
<glyph unicode="&#x3e;" horiz-adv-x="1019" d="M76 272l852 359l41 225l-725 361l-43 -244l471 -219l-551 -217z" />
<glyph unicode="?" horiz-adv-x="1132" d="M115 1024l28 164q25 139 110 213t222 74h469q137 0 196 -74t34 -213l-44 -248q-8 -44 -32 -81.5t-74.5 -74.5t-84.5 -57.5t-111 -61.5l-33 -18l-90 -49q-28 -16 -41 -24.5t-24 -20t-13 -23.5l-17 -92h-295l27 154q8 41 35 78.5t77.5 75.5t89.5 62t110 64q20 11 30 17 l86 49q42 25 58.5 38.5t19.5 29.5l26 157q3 22 -2.5 31.5t-23.5 9.5h-369q-39 0 -45 -41l-24 -139h-295zM238 0l51 295h295l-52 -295h-294z" />
<glyph unicode="@" horiz-adv-x="1970" d="M49 -82l223 1270q25 139 110 213t222 74h1086q136 0 195 -73.5t34 -213.5l-141 -803q-25 -139 -110 -213t-222 -74h-371l-12 148q-30 -34 -52 -55t-60.5 -48t-87.5 -40t-109 -13h-25q-137 0 -196.5 74t-34.5 213l63 356q25 139 110 213t222 74h25q48 0 87.5 -10.5 t63.5 -23.5t45.5 -37.5t31.5 -40.5t25 -44l66 148h248l-133 -758h118q44 0 65 28t36 107l141 811q15 78 -57 78h-1086q-71 0 -86 -78l-227 -1294q-15 -78 57 -78h1026l-34 -197h-1026q-136 0 -195.5 74.5t-34.5 212.5zM784 373q-5 -26 3.5 -37.5t33.5 -11.5h41q109 0 230 79 l53 304q-90 79 -201 79h-41q-46 0 -55 -49z" />
<glyph unicode="A" horiz-adv-x="1333" d="M-68 0l717 1475h359l196 -1475h-317l-31 332h-459l-147 -332h-318zM518 602h311l-53 578z" />
<glyph unicode="B" horiz-adv-x="1302" d="M59 0l260 1475h738q136 1 195 -73q41 -52 41 -137q0 -36 -7 -77l-37 -213q-27 -147 -166 -221q109 -58 109 -176q0 -22 -4 -46l-43 -245q-25 -139 -110 -213t-222 -74h-754zM401 266h408q37 0 43 41l49 279q3 22 -3 31.5t-26 9.5h-407zM510 881h391q37 0 43 41l45 245 q1 7 1 13q0 28 -32 28h-391z" />
<glyph unicode="C" horiz-adv-x="1249" d="M76 287l157 901q25 139 110 213t222 74h469q137 0 196 -74q41 -52 41 -136q0 -36 -7 -77l-41 -234h-295l37 209q3 22 -3 31.5t-26 9.5h-367q-39 0 -45 -41l-149 -852q-3 -23 2.5 -32t25.5 -9h367q39 0 45 41l37 209h295l-41 -233q-25 -139 -110 -213t-222 -74h-469 q-136 0 -195 74q-41 52 -41 136q0 35 7 77z" />
<glyph unicode="D" horiz-adv-x="1320" d="M59 0l260 1475h760q137 0 196 -74q41 -52 41 -136q0 -36 -7 -77l-158 -901q-25 -139 -110 -213t-222 -74h-760zM401 270h414q39 0 45 41l150 852q1 7 1 13q0 12 -4 18q-6 10 -26 10h-414z" />
<glyph unicode="E" horiz-adv-x="1202" d="M59 0l260 1475h949l-47 -271h-654l-57 -317h528l-47 -266h-528l-62 -351h654l-47 -270h-949z" />
<glyph unicode="F" horiz-adv-x="1165" d="M59 0l260 1475h949l-47 -271h-654l-59 -330h528l-47 -266h-528l-107 -608h-295z" />
<glyph unicode="G" horiz-adv-x="1288" d="M76 287l157 901q25 139 110 213t222 74h486q138 0 197 -73q41 -52 41 -137q0 -35 -7 -77l-33 -189h-295l29 164q6 41 -29 41h-385q-39 0 -45 -41l-149 -852q-3 -23 2.5 -32t25.5 -9h385q40 0 46 41l45 254h-263l46 258h557l-95 -536q-25 -140 -110 -213.5t-223 -73.5 h-486q-136 0 -195 74q-41 51 -41 136q0 35 7 77z" />
<glyph unicode="H" horiz-adv-x="1394" d="M59 0l260 1475h295l-102 -586h489l103 586h295l-260 -1475h-295l108 618h-489l-109 -618h-295z" />
<glyph unicode="I" horiz-adv-x="610" d="M59 0l260 1475h295l-260 -1475h-295z" />
<glyph unicode="J" horiz-adv-x="1187" d="M6 287l55 319h295l-51 -295q-3 -22 3 -31.5t26 -9.5h330q37 0 43 41l204 1164h295l-209 -1188q-25 -140 -110 -213.5t-221 -73.5h-430q-137 0 -196 74q-41 52 -41 136q0 36 7 77z" />
<glyph unicode="K" horiz-adv-x="1329" d="M59 0l260 1475h295l-104 -590h96l494 590h344l-602 -721l362 -754h-323l-291 623h-125l-111 -623h-295z" />
<glyph unicode="L" horiz-adv-x="1114" d="M59 0l260 1475h295l-213 -1205h603l-48 -270h-897z" />
<glyph unicode="M" horiz-adv-x="1699" d="M59 0l260 1475h308l225 -865l520 865h332l-260 -1475h-287l162 918l-414 -703h-217l-188 703l-162 -918h-279z" />
<glyph unicode="N" horiz-adv-x="1431" d="M59 0l260 1475h316l350 -973l172 973h279l-260 -1475h-293l-367 1006l-178 -1006h-279z" />
<glyph unicode="O" horiz-adv-x="1300" d="M76 287l157 901q25 139 110 213t222 74h494q136 1 195 -73q41 -52 41 -137q0 -36 -7 -77l-158 -901q-25 -140 -110 -213.5t-221 -73.5h-494q-136 0 -195 74q-41 52 -41 136q0 35 7 77zM375 311q-1 -8 -1 -14q0 -12 4 -18q6 -9 25 -9h394q37 0 43 41l149 852q1 8 1 14 q0 11 -4 17q-6 10 -23 10h-394q-39 0 -45 -41z" />
<glyph unicode="P" horiz-adv-x="1257" d="M59 0l260 1475h746q136 1 195 -73q41 -52 41 -137q0 -36 -7 -77l-67 -381q-25 -140 -109.5 -213.5t-220.5 -73.5h-451l-92 -520h-295zM494 791h399q36 0 45 40l57 332q1 8 1 14q0 12 -4 18q-6 9 -25 9h-400z" />
<glyph unicode="Q" horiz-adv-x="1300" d="M76 287l157 901q25 139 110 213t222 74h494q136 0 195 -73q41 -52 41 -137q0 -35 -7 -77l-158 -901q-25 -140 -110 -213.5t-221 -73.5h-99l-47 -262h-295l48 262h-101q-136 0 -195 74q-41 51 -41 136q0 35 7 77zM375 311q-1 -8 -1 -14q0 -12 4 -18q5 -9 25 -9h394 q37 0 43 41l149 852q1 8 1 14q0 11 -4 17q-5 10 -23 10h-394q-39 0 -45 -41z" />
<glyph unicode="R" horiz-adv-x="1306" d="M59 0l260 1475h744q136 1 195 -73q41 -52 41 -137q0 -36 -7 -77l-61 -354q-41 -232 -240 -277l137 -557h-303l-133 547h-241l-97 -547h-295zM498 809h397q37 0 43 41l57 317q1 8 1 14q0 11 -4 17q-7 10 -27 10h-398z" />
<glyph unicode="S" horiz-adv-x="1253" d="M66 287l32 184h287l-31 -164q-8 -41 29 -41h375q35 0 41 41l35 193q6 37 -4 50.5t-50 22.5l-358 82q-92 21 -146.5 52t-80.5 91q-16 38 -16 87q0 29 5 61l43 242q25 139 110 213t222 74h436q137 0 196 -74q41 -52 41 -136q0 -36 -7 -77l-29 -168h-287l27 147q8 41 -29 41 h-346q-35 0 -41 -41l-33 -176q-6 -37 4 -50.5t50 -22.5l358 -82q92 -21 147 -52q55 -30 81 -90q16 -37 16 -85q0 -30 -6 -64l-45 -258q-25 -139 -110 -213t-222 -74h-465q-136 0 -195 74q-41 52 -41 136q0 35 7 77z" />
<glyph unicode="T" horiz-adv-x="1142" d="M164 1208l47 267h1044l-47 -267h-374l-213 -1208h-295l213 1208h-375z" />
<glyph unicode="U" horiz-adv-x="1341" d="M96 287l209 1188h295l-205 -1164q-3 -22 3 -31.5t26 -9.5h391q39 0 45 41l205 1164h295l-209 -1188q-25 -139 -110 -213t-222 -74h-493q-137 0 -196 74q-41 52 -41 136q0 36 7 77z" />
<glyph unicode="V" horiz-adv-x="1280" d="M197 1475h317l84 -1149l487 1149h322l-692 -1475h-344z" />
<glyph unicode="W" horiz-adv-x="1863" d="M197 1475h301l43 -1074l428 1074h250l43 -1074l424 1074h305l-633 -1475h-311l-37 958l-381 -958h-322z" />
<glyph unicode="X" horiz-adv-x="1269" d="M-72 0l582 760l-309 715h313l195 -474l352 474h332l-568 -732l320 -743h-314l-202 487l-369 -487h-332z" />
<glyph unicode="Y" horiz-adv-x="1226" d="M172 1475h309l170 -660l402 660h325l-624 -965l-90 -510h-295l90 510z" />
<glyph unicode="Z" horiz-adv-x="1202" d="M-6 0l39 221l823 991h-612l47 263h981l-39 -222l-823 -991h645l-47 -262h-1014z" />
<glyph unicode="[" horiz-adv-x="765" d="M29 -217l321 1823h496l-47 -271h-201l-225 -1282h200l-49 -270h-495z" />
<glyph unicode="\" horiz-adv-x="1050" d="M219 1618h275l401 -1761h-274z" />
<glyph unicode="]" horiz-adv-x="765" d="M-33 -217l49 270h201l225 1282h-200l47 271h495l-321 -1823h-496z" />
<glyph unicode="^" horiz-adv-x="1445" d="M137 590l596 885h303l285 -885h-291l-188 590l-398 -590h-307z" />
<glyph unicode="_" horiz-adv-x="1159" d="M-147 -348l45 254h1134l-45 -254h-1134z" />
<glyph unicode="`" horiz-adv-x="817" d="M369 1905l249 -295h232l-129 295h-352z" />
<glyph unicode="a" d="M55 266l101 574q23 131 101.5 198.5t205.5 67.5h84q173 0 256 -172l31 172h282l-194 -1106h-283l31 172q-144 -172 -318 -172h-84q-128 0 -182 68q-38 48 -38 126q0 33 7 72zM342 291q-2 -8 -2 -14q0 -31 35 -31h71q124 0 250 73l82 467q-101 74 -223 74h-72 q-40 0 -49 -45z" />
<glyph unicode="b" d="M31 0l270 1536h283l-107 -602q144 172 318 172h84q128 0 182 -68q38 -48 38 -126q0 -33 -7 -72l-101 -574q-23 -131 -101.5 -198.5t-205.5 -67.5h-84q-173 0 -256 172l-31 -172h-282zM371 319q100 -73 221 -73h72q43 0 49 45l92 524q2 8 2 14q0 31 -35 31h-72 q-119 0 -247 -74z" />
<glyph unicode="c" horiz-adv-x="1064" d="M55 266l101 574q23 131 101.5 198.5t205.5 67.5h350q128 0 182 -68q38 -48 38 -126q0 -33 -7 -72l-25 -140h-282l20 115q2 8 2 15q0 30 -34 30h-224q-40 0 -49 -45l-92 -524q-2 -8 -2 -14q0 -31 35 -31h223q43 0 49 45l21 115h282l-24 -140q-23 -130 -101.5 -198 t-206.5 -68h-350q-128 0 -182 68q-38 48 -38 126q0 33 7 72z" />
<glyph unicode="d" d="M55 266l101 574q23 131 101.5 198.5t205.5 67.5h84q173 0 256 -172l106 602h283l-270 -1536h-283l31 172q-144 -172 -318 -172h-84q-128 0 -182 68q-38 48 -38 126q0 33 7 72zM342 291q-2 -8 -2 -14q0 -31 35 -31h71q124 0 250 73l82 467q-101 74 -223 74h-72 q-40 0 -49 -45z" />
<glyph unicode="e" horiz-adv-x="1105" d="M55 266l101 574q23 131 101.5 198.5t205.5 67.5h379q128 0 182 -68q38 -48 38 -126q0 -33 -7 -72l-64 -367h-616l-35 -199q-2 -8 -2 -14q0 -31 35 -31h254q38 0 47 45l14 86h283l-17 -94q-23 -131 -101.5 -198.5t-205.5 -67.5h-379q-128 0 -182 68q-38 48 -38 126 q0 33 7 72zM410 664h331l31 167q2 8 2 15q0 31 -35 31h-254q-41 0 -47 -46z" />
<glyph unicode="f" horiz-adv-x="765" d="M106 0l154 868h-154l41 238h154l29 164q23 131 100.5 198.5t206.5 67.5h240l-37 -213h-178q-19 0 -32 -12t-16 -33l-30 -172h237l-41 -238h-237l-154 -868h-283z" />
<glyph unicode="g" d="M59 287l97 553q23 131 101.5 198.5t205.5 67.5h84q173 0 256 -172l31 174h282l-213 -1210q-23 -131 -101.5 -199t-205.5 -68h-512l41 226h459q31 0 37 37l53 299q-145 -173 -318 -173h-84q-127 0 -182 68q-38 48 -38 127q0 33 7 72zM346 311q-2 -8 -2 -14q0 -31 35 -31 h72q119 0 247 74l80 446q-101 74 -223 74h-72q-40 0 -49 -45z" />
<glyph unicode="h" horiz-adv-x="1144" d="M31 0l270 1536h283l-107 -602q144 172 318 172h67q128 0 182 -68q38 -48 38 -126q0 -33 -7 -72l-147 -840h-283l141 807q2 8 2 15q0 30 -32 30h-58q-119 0 -247 -74l-138 -778h-282z" />
<glyph unicode="i" horiz-adv-x="540" d="M31 0l194 1106h283l-195 -1106h-282zM246 1270l47 266h299l-47 -266h-299z" />
<glyph unicode="j" horiz-adv-x="540" d="M-227 -369l32 193l179 86q33 17 39 45l202 1151h283l-205 -1165q-11 -64 -36 -109.5t-66 -75.5t-89 -48t-116 -32zM246 1270l47 266h299l-47 -266h-299z" />
<glyph unicode="k" horiz-adv-x="1110" d="M31 0l270 1536h279l-150 -848h76l350 418h313l-450 -537l276 -569h-297l-209 451h-100l-80 -451h-278z" />
<glyph unicode="l" horiz-adv-x="532" d="M27 0l270 1536h283l-271 -1536h-282z" />
<glyph unicode="m" horiz-adv-x="1701" d="M31 0l194 1106h283l-31 -172q144 172 318 172h39q212 0 221 -176q158 176 325 176h39q128 0 182 -68q38 -48 38 -126q0 -33 -7 -72l-147 -840h-283l144 811q2 8 2 14q0 31 -35 31h-27q-120 0 -248 -74l-139 -782h-283l144 811q2 8 2 14q0 31 -35 31h-27q-121 0 -249 -74 l-138 -782h-282z" />
<glyph unicode="n" horiz-adv-x="1144" d="M31 0l194 1106h283l-31 -172q144 172 318 172h67q128 0 182 -68q38 -48 38 -126q0 -33 -7 -72l-147 -840h-283l141 807q2 8 2 15q0 30 -32 30h-58q-119 0 -247 -74l-138 -778h-282z" />
<glyph unicode="o" horiz-adv-x="1124" d="M55 266l101 574q23 130 102 198t205 68h391q128 0 182 -68q38 -48 38 -126q0 -33 -7 -72l-100 -574q-23 -130 -101.5 -198t-206.5 -68h-391q-126 0 -181 68q-39 48 -39 127q0 33 7 71zM342 291q-2 -8 -2 -14q0 -31 35 -31h266q41 0 47 45l92 524q2 8 2 15q0 30 -32 30 h-267q-40 0 -49 -45z" />
<glyph unicode="p" d="M-35 -369l260 1475h283l-31 -172q144 172 318 172h84q128 0 182 -68q38 -48 38 -126q0 -33 -7 -72l-101 -574q-23 -131 -101.5 -198.5t-205.5 -67.5h-84q-173 0 -256 172l-96 -541h-283zM371 319q100 -73 221 -73h72q43 0 49 45l92 524q2 8 2 14q0 31 -35 31h-72 q-119 0 -247 -74z" />
<glyph unicode="q" d="M55 266l101 574q23 131 101.5 198.5t205.5 67.5h84q173 0 256 -172l31 172h282l-260 -1475h-283l97 541q-144 -172 -318 -172h-84q-128 0 -182 68q-38 48 -38 126q0 33 7 72zM342 291q-2 -8 -2 -14q0 -31 35 -31h71q124 0 250 73l82 467q-101 74 -223 74h-72 q-40 0 -49 -45z" />
<glyph unicode="r" horiz-adv-x="849" d="M31 0l194 1106h283l-31 -172q149 172 318 172h108l-45 -262h-160q-121 0 -249 -74l-136 -770h-282z" />
<glyph unicode="s" horiz-adv-x="1056" d="M33 266l16 96h279l-17 -96q-2 -8 -2 -14q0 -31 35 -31h252q38 0 47 45l19 101q6 33 -3 46t-45 19l-292 49q-123 21 -169 74q-32 37 -32 100q0 27 6 60l20 125q23 130 101.5 198t206.5 68h329q128 0 182 -68q38 -48 38 -126q0 -33 -7 -72l-12 -78h-278l12 78q1 6 1 11 q0 34 -34 34h-211q-40 0 -49 -45l-14 -80q-6 -33 2.5 -46.5t44.5 -19.5l295 -49q122 -21 167 -73q31 -36 31 -99q0 -28 -6 -61l-24 -146q-23 -130 -101.5 -198t-206.5 -68h-368q-128 0 -182 68q-38 48 -38 126q0 33 7 72z" />
<glyph unicode="t" horiz-adv-x="784" d="M94 868l41 238h164l57 328h275l-58 -328h244l-41 -238h-239l-105 -589q-2 -8 -2 -15q0 -31 35 -31h199l-41 -233h-263q-124 0 -180 68q-39 48 -40 127q0 33 7 71l107 602h-160z" />
<glyph unicode="u" horiz-adv-x="1144" d="M68 266l147 840h283l-142 -807q-2 -8 -2 -14q0 -31 35 -31h57q118 0 246 74l137 778h283l-194 -1106h-283l31 172q-144 -172 -318 -172h-67q-128 0 -182 68q-38 48 -38 126q0 33 7 72z" />
<glyph unicode="v" horiz-adv-x="1079" d="M127 1106h295l63 -854l363 854h299l-549 -1106h-311z" />
<glyph unicode="w" horiz-adv-x="1583" d="M127 1106h297l25 -797l305 797h276l23 -797l307 797h289l-498 -1106h-305l-4 776l-285 -776h-301z" />
<glyph unicode="x" horiz-adv-x="1062" d="M-70 0l459 569l-260 537h289l149 -330l252 330h301l-444 -551l262 -555h-289l-155 342l-263 -342h-301z" />
<glyph unicode="y" horiz-adv-x="1097" d="M127 -369l184 369l-184 1106h295l76 -809l366 809h299l-757 -1475h-279z" />
<glyph unicode="z" horiz-adv-x="966" d="M-35 0l35 201l598 667h-463l41 238h809l-35 -197l-598 -671h494l-41 -238h-840z" />
<glyph unicode="{" horiz-adv-x="911" d="M88 573l45 254h168q34 0 43 41l80 451q25 140 109.5 213.5t222.5 73.5h235l-47 -271h-186q-36 0 -45 -41l-70 -405q-21 -115 -141 -189q94 -73 73 -188l-73 -418q-6 -41 30 -41h187l-49 -270h-236q-138 0 -197 73.5t-34 213.5l82 462q6 41 -29 41h-168z" />
<glyph unicode="|" horiz-adv-x="708" d="M43 -442l363 2054h270l-363 -2054h-270z" />
<glyph unicode="}" horiz-adv-x="911" d="M-33 -217l49 270h187q37 0 43 41l73 418q21 115 140 188q-93 73 -72 189l70 405q3 22 -3 31.5t-26 9.5h-186l47 271h237q137 0 197 -74t35 -213l-80 -451q-3 -22 3 -31.5t24 -9.5h167l-45 -254h-168q-35 0 -41 -41l-81 -462q-25 -139 -110 -213t-222 -74h-238z" />
<glyph unicode="~" horiz-adv-x="1017" d="M133 530h150l61 109l334 -94q83 -24 131 61l119 217h-154l-61 -104l-332 90q-88 25 -133 -64z" />
<glyph unicode="&#xa1;" horiz-adv-x="552" d="M-47 -369l231 977h201l-113 -977h-319zM176 807l53 299h287l-53 -299h-287z" />
<glyph unicode="&#xa2;" horiz-adv-x="1173" d="M100 483l90 521q25 139 110 212.5t222 73.5h86l33 185h231l-32 -185h73q137 0 196 -73.5t34 -212.5l-23 -136h-266l23 131q3 22 -3 31.5t-24 9.5h-70l-106 -594h69q37 0 43 41l23 131h266l-22 -135q-25 -139 -110 -212.5t-222 -73.5h-74l-35 -197h-231l35 197h-86 q-137 0 -196 73.5t-34 212.5zM367 487q-3 -22 2.5 -31.5t23.5 -9.5h82l107 594h-82q-37 0 -43 -41z" />
<glyph unicode="&#xa3;" horiz-adv-x="1257" d="M-49 0l47 270h125q41 0 47 41l47 269h-164l47 266h164l60 342q25 140 110 213.5t223 73.5h373q137 0 196 -74t34 -213l-33 -189h-295l29 164q3 22 -3 31.5t-24 9.5h-275q-39 0 -45 -41l-55 -317h285l-47 -266h-285l-55 -310h649l-47 -270h-1108z" />
<glyph unicode="&#xa4;" horiz-adv-x="1204" d="M-18 324l204 176q-3 37 7 90l57 328q8 54 31 104l-134 168l199 170l135 -168q46 12 101 12h270q52 0 96 -12l193 168l149 -182l-203 -174q3 -40 -6 -86l-57 -328q-12 -62 -33 -111l133 -168l-198 -170l-138 172q-48 -10 -96 -10h-270q-45 0 -90 10l-201 -172zM440 578 q-3 -22 3 -31.5t24 -9.5h262q34 0 43 41l62 352q3 22 -3 31.5t-24 9.5h-262q-37 0 -43 -41z" />
<glyph unicode="&#xa5;" horiz-adv-x="1226" d="M119 315l24 144h308l8 51l-13 39h-286l26 143h220l-234 783h309l170 -660l402 660h325l-506 -783h222l-27 -143h-289l-24 -39l-9 -51h306l-25 -144h-307l-55 -315h-295l55 315h-305z" />
<glyph unicode="&#xa6;" horiz-adv-x="708" d="M43 -442l143 811h271l-144 -811h-270zM262 801l144 811h270l-144 -811h-270z" />
<glyph unicode="&#xa7;" horiz-adv-x="1079" d="M12 94l15 84h278l-14 -80q-3 -22 4 -31.5t27 -9.5h247q35 0 41 41l23 117q4 24 -2 35t-25 14l-307 53q-226 39 -193 232l31 176q12 66 43.5 109.5t81.5 83.5q-12 12 -19 20t-16.5 22.5t-12 27t-5 33.5t3.5 42l20 125q25 139 110 213t222 74h275q137 0 196.5 -74 t34.5 -213l-10 -58h-281l13 66q8 41 -27 41h-209q-37 0 -43 -41l-18 -102q-4 -25 1.5 -36t22.5 -14l309 -53q109 -19 160 -70.5t31 -160.5l-33 -193q-18 -104 -115 -184q14 -14 22 -24t16.5 -28.5t8 -36.5t-3.5 -48l-26 -152q-25 -139 -110 -213t-222 -74h-315 q-137 0 -196 74t-34 213zM391 582q-3 -22 2.5 -32t22.5 -13l241 -41q16 -3 29 7.5t16 31.5l35 192q4 22 -1.5 32t-24.5 13l-236 41q-43 6 -49 -37z" />
<glyph unicode="&#xa8;" horiz-adv-x="1284" d="M500 1610l43 254h248l-43 -254h-248zM907 1610l43 254h250l-43 -254h-250z" />
<glyph unicode="&#xa9;" horiz-adv-x="1699" d="M115 287l157 901q25 139 110 213t222 74h815q137 0 196 -74t34 -213l-158 -901q-25 -139 -110 -213t-222 -74h-815q-136 0 -195 73.5t-34 213.5zM301 283q-9 -56 10.5 -81.5t71.5 -25.5h799q103 0 121 107l161 909q9 56 -10.5 81t-73.5 25h-798q-101 0 -119 -106z M498 487l88 500q19 102 80 155.5t159 53.5h277q99 0 143 -54t25 -155l-25 -139h-213l21 113q4 21 -3 30.5t-28 9.5h-184q-39 0 -45 -40l-80 -447q-6 -41 32 -41h185q37 0 43 41l20 113h213l-24 -140q-19 -101 -81.5 -154.5t-160.5 -53.5h-276q-99 0 -142 53.5t-24 154.5z " />
<glyph unicode="&#xaa;" horiz-adv-x="780" d="M98 487l29 158h575l-28 -158h-576zM162 940l10 59q15 89 70 137t143 48h31q89 0 194 -25l23 131q6 25 -17 25h-170q-23 0 -26 -25l-8 -45h-174l8 45q31 185 213 185h209q88 0 125 -47t22 -138l-94 -534h-182l18 106q-37 -50 -78.5 -78t-103.5 -28h-66q-87 0 -124.5 47 t-22.5 137zM346 948q-2 -14 1 -19t15 -5h72q72 0 144 45l16 90h-209q-22 0 -25 -25z" />
<glyph unicode="&#xab;" horiz-adv-x="1081" d="M47 666l19 106l323 373h301l-377 -432l213 -418h-288zM502 666l18 106l326 373h301l-377 -432l213 -418h-289z" />
<glyph unicode="&#xad;" horiz-adv-x="886" d="M98 543l45 262h686l-45 -262h-686z" />
<glyph unicode="&#xae;" horiz-adv-x="819" d="M152 848l88 495q10 64 49 98t102 34h363q125 0 104 -132l-88 -495q-21 -131 -149 -131h-363q-127 0 -106 131zM225 842q-9 -54 43 -54h367q50 0 59 54l90 508q9 53 -41 53h-366q-53 0 -62 -53zM315 872l80 447h219q85 0 70 -88l-16 -96q-6 -36 -27.5 -58.5t-54.5 -27.5 l41 -177h-78l-41 177h-86l-31 -177h-76zM436 1120h131q20 0 23 21l16 86q3 20 -16 20h-131z" />
<glyph unicode="&#xaf;" horiz-adv-x="1228" d="M508 1630l41 230h555l-41 -230h-555z" />
<glyph unicode="&#xb0;" horiz-adv-x="647" d="M221 1163l33 189q22 123 143 123h176q121 0 99 -123l-33 -189q-22 -123 -141 -123h-176q-59 0 -85 31.5t-16 91.5zM342 1180q-6 -33 29 -33h116q32 0 39 33l27 155q6 33 -29 33h-114q-32 0 -39 -33z" />
<glyph unicode="&#xb1;" horiz-adv-x="1017" d="M41 164l43 246h797l-43 -246h-797zM150 782l45 250h272l45 260h250l-45 -260h274l-45 -250h-274l-45 -260h-250l45 260h-272z" />
<glyph unicode="&#xb2;" horiz-adv-x="724" d="M119 889h614l33 184h-420l10 64q3 14 12.5 21t32.5 13l217 58q27 7 48.5 13.5t49.5 20t47.5 29.5t36 42t21.5 57l23 125q30 184 -150 184h-241q-88 0 -143 -47t-70 -137l-13 -70h185l8 45q3 25 26 25h181q21 0 18 -25l-8 -49q-5 -25 -45 -35l-217 -57q-32 -8 -55 -15.5 t-50.5 -21t-45.5 -29.5t-32.5 -40.5t-19.5 -55.5z" />
<glyph unicode="&#xb3;" horiz-adv-x="724" d="M141 1073l13 72h194l-10 -53q-6 -25 16 -25h185q23 0 26 25l19 100q6 25 -19 25h-182l31 169h172q23 0 26 25l15 86q3 25 -19 25h-166q-18 0 -24 -25l-8 -53h-193l12 72q15 89 70 136.5t143 47.5h232q177 0 147 -184l-16 -97q-6 -38 -26.5 -64.5t-67.5 -51.5 q74 -43 61 -121l-18 -109q-15 -89 -69.5 -136.5t-143.5 -47.5h-252q-89 0 -127 46.5t-21 137.5z" />
<glyph unicode="&#xb4;" horiz-adv-x="817" d="M334 1610l231 295h365l-352 -295h-244z" />
<glyph unicode="&#xb6;" horiz-adv-x="1685" d="M143 811l66 377q25 139 110 213t222 74h1149l-260 -1475h-295l211 1196h-179l-211 -1196h-294l92 524h-381q-137 0 -196 74t-34 213z" />
<glyph unicode="&#xb7;" horiz-adv-x="501" d="M104 532l54 299h284l-53 -299h-285z" />
<glyph unicode="&#xb8;" horiz-adv-x="1134" d="M193 -276h260q24 0 30 32l4 21q3 19 0 26t-18 7h-225l75 118h197q78 0 116 -38.5t25 -112.5l-4 -21q-13 -74 -65 -112.5t-129 -38.5h-187z" />
<glyph unicode="&#xb9;" horiz-adv-x="495" d="M199 1454l28 158l219 92h150l-143 -811h-191l109 610z" />
<glyph unicode="&#xba;" horiz-adv-x="780" d="M98 487l29 158h559l-29 -158h-559zM162 940l61 350q15 90 69.5 137.5t143.5 47.5h232q86 0 124 -47t23 -138l-61 -350q-15 -89 -70 -136.5t-143 -47.5h-232q-87 0 -124.5 47t-22.5 137zM344 946q-3 -14 0.5 -19t15.5 -5h187q21 0 24 24l62 338q6 25 -17 25h-186 q-21 0 -24 -25z" />
<glyph unicode="&#xbb;" horiz-adv-x="1081" d="M-8 295l377 430l-213 420h288l189 -373l-19 -106l-321 -371h-301zM446 295l379 430l-215 420h289l191 -373l-19 -106l-323 -371h-302z" />
<glyph unicode="&#xbc;" horiz-adv-x="1626" d="M92 0l1090 1475h213l-1090 -1475h-213zM158 1229l28 157l220 93h149l-143 -811h-191l109 610zM795 291l553 520h159l-88 -494h121l-29 -170h-120l-27 -147h-188l26 147h-389zM1038 317h193l37 203z" />
<glyph unicode="&#xbd;" horiz-adv-x="1652" d="M92 0l1090 1475h213l-1090 -1475h-213zM158 1229l28 157l220 93h149l-143 -811h-191l109 610zM889 0h614l33 184h-420l10 64q3 14 12.5 21.5t32.5 13.5l218 57q183 44 202 162l23 125q30 184 -150 184h-241q-88 0 -143 -47t-70 -137l-13 -70h185l8 45q3 25 27 25h180 q21 0 18 -25l-8 -49q-5 -25 -45 -35l-217 -57q-32 -8 -55 -15.5t-50.5 -21t-45.5 -29.5t-32.5 -40.5t-19.5 -55.5z" />
<glyph unicode="&#xbe;" horiz-adv-x="1855" d="M100 848l13 72h194l-10 -54q-3 -14 0.5 -19t15.5 -5h185q23 0 26 24l19 101q5 24 -19 24h-182l31 170h172q23 0 26 25l15 86q3 24 -19 24h-166q-18 0 -24 -24l-8 -53h-193l12 71q15 89 70 137t143 48h232q88 0 125 -47t22 -138l-16 -96q-6 -38 -26.5 -65t-67.5 -52 q74 -43 61 -121l-18 -108q-15 -89 -69.5 -136.5t-143.5 -47.5h-252q-89 0 -127 46.5t-21 137.5zM322 0l1089 1475h213l-1089 -1475h-213zM1024 291l553 520h160l-88 -494h120l-28 -170h-121l-27 -147h-188l27 147h-390zM1268 317h192l37 203z" />
<glyph unicode="&#xbf;" horiz-adv-x="1132" d="M-43 -82l43 248q9 45 35.5 84t76 75t91 60.5t114.5 63.5q4 2 6.5 3.5t6 3t6.5 3.5l92 49q58 35 69 48q7 9 9 19l14 93h295l-27 -154q-5 -34 -25.5 -66t-52.5 -61t-68.5 -54.5t-82.5 -53t-86 -49.5q-6 -3 -8.5 -4.5t-7 -4t-8.5 -4.5l-87 -49q-41 -24 -57.5 -38t-19.5 -30 l-29 -157q-8 -41 31 -41h368q35 0 41 41l25 139h295l-29 -164q-25 -139 -110 -213t-222 -74h-469q-136 0 -195 73.5t-34 213.5zM547 811l51 295h295l-51 -295h-295z" />
<glyph unicode="&#xc0;" horiz-adv-x="1333" d="M-68 0l717 1475h359l196 -1475h-317l-31 332h-459l-147 -332h-318zM516 1905h352l129 -295h-231zM518 602h311l-53 578z" />
<glyph unicode="&#xc1;" horiz-adv-x="1333" d="M-68 0l717 1475h359l196 -1475h-317l-31 332h-459l-147 -332h-318zM518 602h311l-53 578zM696 1610l232 295h364l-352 -295h-244z" />
<glyph unicode="&#xc2;" horiz-adv-x="1333" d="M-68 0l717 1475h359l196 -1475h-317l-31 332h-459l-147 -332h-318zM465 1610l309 266h246l215 -266h-258l-98 129l-144 -129h-270zM518 602h311l-53 578z" />
<glyph unicode="&#xc3;" horiz-adv-x="1333" d="M-68 0l717 1475h359l196 -1475h-317l-31 332h-459l-147 -332h-318zM518 602h311l-53 578zM541 1610l73 194q32 91 127 56l283 -97l49 99h135l-80 -197q-32 -88 -124 -53l-285 100l-49 -102h-129z" />
<glyph unicode="&#xc4;" horiz-adv-x="1333" d="M-68 0l717 1475h359l196 -1475h-317l-31 332h-459l-147 -332h-318zM518 602h311l-53 578zM522 1610l43 254h248l-43 -254h-248zM930 1610l43 254h250l-43 -254h-250z" />
<glyph unicode="&#xc5;" horiz-adv-x="1333" d="M-68 0l717 1475h359l196 -1475h-317l-31 332h-459l-147 -332h-318zM518 602h311l-53 578zM676 1733l22 122q22 123 144 123h143q59 0 84.5 -31.5t15.5 -91.5l-22 -122q-22 -123 -141 -123h-144q-60 0 -86 31.5t-16 91.5zM803 1749q-6 -25 18 -25h90q28 0 31 25l16 90 q6 25 -20 25h-90q-26 0 -29 -25z" />
<glyph unicode="&#xc6;" horiz-adv-x="2039" d="M-92 0l987 1475h1210l-47 -271h-653l-55 -315h528l-49 -271h-529l-61 -348h653l-47 -270h-948l57 324h-497l-207 -324h-342zM629 594h372l107 606h-92z" />
<glyph unicode="&#xc7;" horiz-adv-x="1249" d="M76 287l157 901q25 139 110 213t222 74h469q137 0 196 -74t34 -213l-41 -234h-295l37 209q3 22 -3 31.5t-26 9.5h-367q-39 0 -45 -41l-149 -852q-3 -23 2.5 -32t25.5 -9h367q39 0 45 41l37 209h295l-41 -233q-25 -139 -110 -213t-222 -74h-469q-136 0 -195 73.5 t-34 213.5zM266 -276h260q25 0 31 32l4 21q3 19 0 26t-18 7h-226l76 118h197q78 0 116 -38.5t25 -112.5l-4 -21q-13 -74 -65 -112.5t-130 -38.5h-186z" />
<glyph unicode="&#xc8;" horiz-adv-x="1202" d="M59 0l260 1475h949l-47 -271h-654l-57 -317h528l-47 -266h-528l-62 -351h654l-47 -270h-949zM483 1905l250 -295h232l-129 295h-353z" />
<glyph unicode="&#xc9;" horiz-adv-x="1202" d="M59 0l260 1475h949l-47 -271h-654l-57 -317h528l-47 -266h-528l-62 -351h654l-47 -270h-949zM664 1610l231 295h365l-353 -295h-243z" />
<glyph unicode="&#xca;" horiz-adv-x="1202" d="M59 0l260 1475h949l-47 -271h-654l-57 -317h528l-47 -266h-528l-62 -351h654l-47 -270h-949zM432 1610h270l144 129l98 -129h258l-215 266h-246z" />
<glyph unicode="&#xcb;" horiz-adv-x="1202" d="M59 0l260 1475h949l-47 -271h-654l-57 -317h528l-47 -266h-528l-62 -351h654l-47 -270h-949zM489 1610l43 254h248l-43 -254h-248zM897 1610l43 254h250l-43 -254h-250z" />
<glyph unicode="&#xcc;" horiz-adv-x="610" d="M59 0l260 1475h295l-260 -1475h-295zM158 1905l250 -295h231l-129 295h-352z" />
<glyph unicode="&#xcd;" horiz-adv-x="610" d="M59 0l260 1475h295l-260 -1475h-295zM338 1610l231 295h365l-352 -295h-244z" />
<glyph unicode="&#xce;" horiz-adv-x="610" d="M59 0l260 1475h295l-260 -1475h-295zM106 1610h271l143 129l98 -129h259l-215 266h-246z" />
<glyph unicode="&#xcf;" horiz-adv-x="610" d="M59 0l260 1475h295l-260 -1475h-295zM164 1610l43 254h248l-43 -254h-248zM571 1610l43 254h250l-43 -254h-250z" />
<glyph unicode="&#xd0;" horiz-adv-x="1304" d="M4 594l53 295h144l102 586h760q136 0 195 -73.5t34 -213.5l-157 -901q-25 -139 -110 -213t-222 -74h-760l104 594h-143zM385 270h414q39 0 45 41l149 852q3 23 -2.5 32t-25.5 9h-414l-55 -315h143l-53 -295h-144z" />
<glyph unicode="&#xd1;" horiz-adv-x="1431" d="M59 0l260 1475h316l350 -973l172 973h279l-260 -1475h-293l-367 1006l-178 -1006h-279zM594 1610h129l49 102l285 -100q93 -35 125 53l80 197h-136l-49 -99l-282 97q-95 35 -127 -56z" />
<glyph unicode="&#xd2;" horiz-adv-x="1300" d="M76 287l157 901q25 139 110 213t222 74h494q136 0 195 -73.5t34 -213.5l-158 -901q-25 -140 -110 -213.5t-221 -73.5h-494q-136 0 -195 73.5t-34 213.5zM375 311q-3 -23 2.5 -32t25.5 -9h394q37 0 43 41l149 852q3 22 -2.5 31.5t-23.5 9.5h-394q-39 0 -45 -41zM504 1905 l250 -295h231l-129 295h-352z" />
<glyph unicode="&#xd3;" horiz-adv-x="1300" d="M76 287l157 901q25 139 110 213t222 74h494q136 0 195 -73.5t34 -213.5l-158 -901q-25 -140 -110 -213.5t-221 -73.5h-494q-136 0 -195 73.5t-34 213.5zM375 311q-3 -23 2.5 -32t25.5 -9h394q37 0 43 41l149 852q3 22 -2.5 31.5t-23.5 9.5h-394q-39 0 -45 -41zM684 1610 l231 295h365l-352 -295h-244z" />
<glyph unicode="&#xd4;" horiz-adv-x="1300" d="M76 287l157 901q25 139 110 213t222 74h494q136 0 195 -73.5t34 -213.5l-158 -901q-25 -140 -110 -213.5t-221 -73.5h-494q-136 0 -195 73.5t-34 213.5zM375 311q-3 -23 2.5 -32t25.5 -9h394q37 0 43 41l149 852q3 22 -2.5 31.5t-23.5 9.5h-394q-39 0 -45 -41zM453 1610 h270l143 129l99 -129h258l-215 266h-246z" />
<glyph unicode="&#xd5;" horiz-adv-x="1300" d="M76 287l157 901q25 139 110 213t222 74h494q136 0 195 -73.5t34 -213.5l-158 -901q-25 -140 -110 -213.5t-221 -73.5h-494q-136 0 -195 73.5t-34 213.5zM375 311q-3 -23 2.5 -32t25.5 -9h394q37 0 43 41l149 852q3 22 -2.5 31.5t-23.5 9.5h-394q-39 0 -45 -41zM528 1610 h129l50 102l284 -100q93 -35 125 53l80 197h-135l-49 -99l-283 97q-95 35 -127 -56z" />
<glyph unicode="&#xd6;" horiz-adv-x="1300" d="M76 287l157 901q25 139 110 213t222 74h494q136 0 195 -73.5t34 -213.5l-158 -901q-25 -140 -110 -213.5t-221 -73.5h-494q-136 0 -195 73.5t-34 213.5zM375 311q-3 -23 2.5 -32t25.5 -9h394q37 0 43 41l149 852q3 22 -2.5 31.5t-23.5 9.5h-394q-39 0 -45 -41zM510 1610 l43 254h248l-43 -254h-248zM918 1610l43 254h249l-43 -254h-249z" />
<glyph unicode="&#xd7;" horiz-adv-x="1019" d="M98 463l264 227l-178 219l193 162l174 -217l266 229l144 -174l-269 -231l182 -227l-190 -162l-180 225l-260 -225z" />
<glyph unicode="&#xd8;" horiz-adv-x="1300" d="M76 287l157 901q25 139 110 213t222 74h494q136 0 195 -73.5t34 -213.5l-158 -901q-25 -140 -110 -213.5t-221 -73.5h-494q-136 0 -195 73.5t-34 213.5zM414 535l420 669h-265q-39 0 -45 -41zM530 270h267q37 0 43 41l110 629z" />
<glyph unicode="&#xd9;" horiz-adv-x="1341" d="M96 287l209 1188h295l-205 -1164q-3 -22 3 -31.5t26 -9.5h391q39 0 45 41l205 1164h295l-209 -1188q-25 -139 -110 -213t-222 -74h-493q-137 0 -196 74t-34 213zM520 1905l250 -295h231l-129 295h-352z" />
<glyph unicode="&#xda;" horiz-adv-x="1341" d="M96 287l209 1188h295l-205 -1164q-3 -22 3 -31.5t26 -9.5h391q39 0 45 41l205 1164h295l-209 -1188q-25 -139 -110 -213t-222 -74h-493q-137 0 -196 74t-34 213zM700 1610l232 295h364l-352 -295h-244z" />
<glyph unicode="&#xdb;" horiz-adv-x="1341" d="M96 287l209 1188h295l-205 -1164q-3 -22 3 -31.5t26 -9.5h391q39 0 45 41l205 1164h295l-209 -1188q-25 -139 -110 -213t-222 -74h-493q-137 0 -196 74t-34 213zM469 1610h270l144 129l98 -129h258l-215 266h-246z" />
<glyph unicode="&#xdc;" horiz-adv-x="1341" d="M96 287l209 1188h295l-205 -1164q-3 -22 3 -31.5t26 -9.5h391q39 0 45 41l205 1164h295l-209 -1188q-25 -139 -110 -213t-222 -74h-493q-137 0 -196 74t-34 213zM526 1610l43 254h248l-43 -254h-248zM934 1610l43 254h250l-43 -254h-250z" />
<glyph unicode="&#xdd;" horiz-adv-x="1226" d="M172 1475h309l170 -660l402 660h325l-624 -965l-90 -510h-295l90 510zM649 1610l232 295h364l-352 -295h-244z" />
<glyph unicode="&#xde;" horiz-adv-x="1257" d="M59 0l260 1475h295l-45 -250h451q137 0 196.5 -74t34.5 -213l-67 -381q-25 -139 -110 -213t-222 -74h-451l-47 -270h-295zM451 541h399q37 0 43 41l59 331q3 22 -3.5 31.5t-26.5 9.5h-400z" />
<glyph unicode="&#xdf;" horiz-adv-x="1155" d="M23 0l213 1208q23 130 102 198.5t205 68.5h389q127 0 181.5 -68t31.5 -199l-43 -241q-22 -137 -162 -213q127 -68 104 -213l-49 -275q-23 -129 -101.5 -197.5t-205.5 -68.5h-270l43 246h203q43 0 49 45l53 299q9 45 -31 45h-207l41 237h191q19 0 31.5 12t15.5 34l47 266 q9 45 -31 45h-260q-43 0 -49 -45l-209 -1184h-282z" />
<glyph unicode="&#xe0;" d="M55 266l101 574q23 131 101.5 198.5t205.5 67.5h84q173 0 256 -172l31 172h282l-194 -1106h-283l31 172q-144 -172 -318 -172h-84q-128 0 -182 68t-31 198zM342 291q-9 -45 33 -45h71q124 0 250 73l82 467q-101 74 -223 74h-72q-40 0 -49 -45zM360 1536l250 -295h232 l-129 295h-353z" />
<glyph unicode="&#xe1;" d="M55 266l101 574q23 131 101.5 198.5t205.5 67.5h84q173 0 256 -172l31 172h282l-194 -1106h-283l31 172q-144 -172 -318 -172h-84q-128 0 -182 68t-31 198zM342 291q-9 -45 33 -45h71q124 0 250 73l82 467q-101 74 -223 74h-72q-40 0 -49 -45zM541 1241l231 295h365 l-353 -295h-243z" />
<glyph unicode="&#xe2;" d="M55 266l101 574q23 131 101.5 198.5t205.5 67.5h84q173 0 256 -172l31 172h282l-194 -1106h-283l31 172q-144 -172 -318 -172h-84q-128 0 -182 68t-31 198zM309 1241h271l143 129l98 -129h258l-215 266h-246zM342 291q-9 -45 33 -45h71q124 0 250 73l82 467 q-101 74 -223 74h-72q-40 0 -49 -45z" />
<glyph unicode="&#xe3;" d="M55 266l101 574q23 131 101.5 198.5t205.5 67.5h84q173 0 256 -172l31 172h282l-194 -1106h-283l31 172q-144 -172 -318 -172h-84q-128 0 -182 68t-31 198zM342 291q-9 -45 33 -45h71q124 0 250 73l82 467q-101 74 -223 74h-72q-40 0 -49 -45zM385 1241h129l49 102 l285 -100q93 -35 125 53l80 197h-135l-50 -98l-282 96q-95 35 -127 -55z" />
<glyph unicode="&#xe4;" d="M55 266l101 574q23 131 101.5 198.5t205.5 67.5h84q173 0 256 -172l31 172h282l-194 -1106h-283l31 172q-144 -172 -318 -172h-84q-128 0 -182 68t-31 198zM342 291q-9 -45 33 -45h71q124 0 250 73l82 467q-101 74 -223 74h-72q-40 0 -49 -45zM367 1241l43 254h247 l-43 -254h-247zM774 1241l43 254h250l-43 -254h-250z" />
<glyph unicode="&#xe5;" d="M55 266l101 574q23 131 101.5 198.5t205.5 67.5h84q173 0 256 -172l31 172h282l-194 -1106h-283l31 172q-144 -172 -318 -172h-84q-128 0 -182 68t-31 198zM342 291q-9 -45 33 -45h71q124 0 250 73l82 467q-101 74 -223 74h-72q-40 0 -49 -45zM520 1364l23 123 q22 123 143 123h143q59 0 85 -31.5t16 -91.5l-23 -123q-22 -123 -141 -123h-143q-60 0 -86.5 31.5t-16.5 91.5zM647 1380q-3 -13 1 -18.5t18 -5.5h90q27 0 30 24l17 90q6 25 -21 25h-90q-25 0 -28 -25z" />
<glyph unicode="&#xe6;" horiz-adv-x="1691" d="M27 266l22 127q23 130 113.5 208.5t218.5 78.5h49q136 0 281 -37l32 176q9 45 -34 45h-224q-39 0 -45 -45l-10 -51h-278l12 72q23 131 101.5 198.5t205.5 67.5h344q55 0 109 -62q82 62 129 62h374q128 0 182 -68t31 -198l-63 -367h-612l-35 -194q-9 -46 33 -46h249 q19 0 32 12t16 34l14 77h282l-16 -90q-23 -131 -101.5 -198.5t-205.5 -67.5h-375q-104 0 -160 46.5t-59 135.5q-150 -182 -328 -182h-71q-128 0 -182 68t-31 198zM313 291q-9 -45 33 -45h60q123 0 249 73l27 152h-295q-43 0 -49 -45zM997 666h330l29 161q9 45 -31 45h-250 q-40 0 -49 -45z" />
<glyph unicode="&#xe7;" horiz-adv-x="1064" d="M55 266l101 574q23 131 101.5 198.5t205.5 67.5h350q128 0 182 -68t31 -198l-25 -140h-282l20 115q9 45 -32 45h-224q-40 0 -49 -45l-92 -524q-9 -45 33 -45h223q43 0 49 45l21 115h282l-24 -140q-23 -130 -101.5 -198t-206.5 -68h-350q-128 0 -182 68t-31 198zM182 -276 h260q25 0 31 32l4 21q3 19 0 26t-18 7h-226l76 118h197q78 0 116 -38.5t25 -112.5l-4 -21q-13 -74 -65 -112.5t-129 -38.5h-187z" />
<glyph unicode="&#xe8;" horiz-adv-x="1105" d="M55 266l101 574q23 131 101.5 198.5t205.5 67.5h379q128 0 182 -68t31 -198l-64 -367h-616l-35 -199q-9 -45 33 -45h254q38 0 47 45l14 86h283l-17 -94q-23 -131 -101.5 -198.5t-205.5 -67.5h-379q-128 0 -182 68t-31 198zM340 1536h352l129 -295h-231zM410 664h331 l31 167q9 46 -33 46h-254q-41 0 -47 -46z" />
<glyph unicode="&#xe9;" horiz-adv-x="1105" d="M55 266l101 574q23 131 101.5 198.5t205.5 67.5h379q128 0 182 -68t31 -198l-64 -367h-616l-35 -199q-9 -45 33 -45h254q38 0 47 45l14 86h283l-17 -94q-23 -131 -101.5 -198.5t-205.5 -67.5h-379q-128 0 -182 68t-31 198zM410 664h331l31 167q9 46 -33 46h-254 q-41 0 -47 -46zM520 1241l232 295h364l-352 -295h-244z" />
<glyph unicode="&#xea;" horiz-adv-x="1105" d="M55 266l101 574q23 131 101.5 198.5t205.5 67.5h379q128 0 182 -68t31 -198l-64 -367h-616l-35 -199q-9 -45 33 -45h254q38 0 47 45l14 86h283l-17 -94q-23 -131 -101.5 -198.5t-205.5 -67.5h-379q-128 0 -182 68t-31 198zM289 1241l309 266h246l215 -266h-258l-99 129 l-143 -129h-270zM410 664h331l31 167q9 46 -33 46h-254q-41 0 -47 -46z" />
<glyph unicode="&#xeb;" horiz-adv-x="1105" d="M55 266l101 574q23 131 101.5 198.5t205.5 67.5h379q128 0 182 -68t31 -198l-64 -367h-616l-35 -199q-9 -45 33 -45h254q38 0 47 45l14 86h283l-17 -94q-23 -131 -101.5 -198.5t-205.5 -67.5h-379q-128 0 -182 68t-31 198zM346 1241l43 254h248l-43 -254h-248zM410 664 h331l31 167q9 46 -33 46h-254q-41 0 -47 -46zM754 1241l43 254h250l-43 -254h-250z" />
<glyph unicode="&#xec;" horiz-adv-x="540" d="M31 0l194 1106h283l-195 -1106h-282zM86 1536l250 -295h231l-129 295h-352z" />
<glyph unicode="&#xed;" horiz-adv-x="540" d="M31 0l194 1106h283l-195 -1106h-282zM217 1241l232 295h364l-352 -295h-244z" />
<glyph unicode="&#xee;" horiz-adv-x="540" d="M6 1241h270l144 129l98 -129h258l-215 266h-246zM31 0l194 1106h283l-195 -1106h-282z" />
<glyph unicode="&#xef;" horiz-adv-x="540" d="M31 0l194 1106h283l-195 -1106h-282zM63 1241l43 254h248l-43 -254h-248zM471 1241l43 254h250l-43 -254h-250z" />
<glyph unicode="&#xf0;" horiz-adv-x="1126" d="M55 266l92 520q23 130 102.5 198.5t205.5 68.5h84q173 0 256 -172l32 184q9 50 -0.5 70.5t-46.5 35.5l-73 29l-89 -76h-237l162 142l-152 61l31 172l299 -78l100 88h238l-156 -137q100 -33 149.5 -76t59.5 -104.5t-6 -147.5l-137 -778q-23 -129 -101.5 -197.5 t-205.5 -68.5h-394q-127 0 -181.5 68.5t-31.5 197.5zM342 291q-9 -45 33 -45h266q43 0 49 45l78 442q-101 74 -223 74h-72q-41 0 -47 -45z" />
<glyph unicode="&#xf1;" horiz-adv-x="1144" d="M31 0l194 1106h283l-31 -172q144 172 318 172h67q128 0 182 -68t31 -198l-147 -840h-283l141 807q9 45 -30 45h-58q-119 0 -247 -74l-138 -778h-282zM391 1241h129l49 102l285 -100q93 -35 125 53l80 197h-135l-50 -98l-282 96q-95 35 -127 -55z" />
<glyph unicode="&#xf2;" horiz-adv-x="1124" d="M55 266l101 574q23 130 102 198t205 68h391q128 0 182 -68t31 -198l-100 -574q-23 -130 -101.5 -198t-206.5 -68h-391q-126 0 -181 68.5t-32 197.5zM342 291q-9 -45 33 -45h266q41 0 47 45l92 524q9 45 -30 45h-267q-40 0 -49 -45zM348 1536l250 -295h231l-129 295h-352z " />
<glyph unicode="&#xf3;" horiz-adv-x="1124" d="M55 266l101 574q23 130 102 198t205 68h391q128 0 182 -68t31 -198l-100 -574q-23 -130 -101.5 -198t-206.5 -68h-391q-126 0 -181 68.5t-32 197.5zM342 291q-9 -45 33 -45h266q41 0 47 45l92 524q9 45 -30 45h-267q-40 0 -49 -45zM528 1241l232 295h364l-352 -295h-244z " />
<glyph unicode="&#xf4;" horiz-adv-x="1124" d="M55 266l101 574q23 130 102 198t205 68h391q128 0 182 -68t31 -198l-100 -574q-23 -130 -101.5 -198t-206.5 -68h-391q-126 0 -181 68.5t-32 197.5zM297 1241h270l144 129l98 -129h258l-215 266h-246zM342 291q-9 -45 33 -45h266q41 0 47 45l92 524q9 45 -30 45h-267 q-40 0 -49 -45z" />
<glyph unicode="&#xf5;" horiz-adv-x="1124" d="M55 266l101 574q23 130 102 198t205 68h391q128 0 182 -68t31 -198l-100 -574q-23 -130 -101.5 -198t-206.5 -68h-391q-126 0 -181 68.5t-32 197.5zM342 291q-9 -45 33 -45h266q41 0 47 45l92 524q9 45 -30 45h-267q-40 0 -49 -45zM373 1241h129l49 102l285 -100 q93 -35 125 53l79 197h-135l-49 -98l-283 96q-95 35 -127 -55z" />
<glyph unicode="&#xf6;" horiz-adv-x="1124" d="M55 266l101 574q23 130 102 198t205 68h391q128 0 182 -68t31 -198l-100 -574q-23 -130 -101.5 -198t-206.5 -68h-391q-126 0 -181 68.5t-32 197.5zM342 291q-9 -45 33 -45h266q41 0 47 45l92 524q9 45 -30 45h-267q-40 0 -49 -45zM354 1241l43 254h248l-43 -254h-248z M762 1241l43 254h250l-43 -254h-250z" />
<glyph unicode="&#xf7;" horiz-adv-x="1019" d="M80 621l49 274h881l-49 -274h-881zM313 207l47 270h269l-47 -270h-269zM459 1038l49 271h268l-49 -271h-268z" />
<glyph unicode="&#xf8;" horiz-adv-x="1124" d="M55 266l101 574q23 130 102 198t205 68h391q128 0 182 -68t31 -198l-100 -574q-23 -130 -101.5 -198t-206.5 -68h-391q-126 0 -181 68.5t-32 197.5zM362 412l318 448h-197q-40 0 -49 -45zM449 246h192q41 0 47 45l70 391z" />
<glyph unicode="&#xf9;" horiz-adv-x="1144" d="M68 266l147 840h283l-142 -807q-9 -45 33 -45h57q118 0 246 74l137 778h283l-194 -1106h-283l31 172q-144 -172 -318 -172h-67q-128 0 -182 68t-31 198zM352 1536l250 -295h232l-129 295h-353z" />
<glyph unicode="&#xfa;" horiz-adv-x="1144" d="M68 266l147 840h283l-142 -807q-9 -45 33 -45h57q118 0 246 74l137 778h283l-194 -1106h-283l31 172q-144 -172 -318 -172h-67q-128 0 -182 68t-31 198zM532 1241l232 295h364l-352 -295h-244z" />
<glyph unicode="&#xfb;" horiz-adv-x="1144" d="M68 266l147 840h283l-142 -807q-9 -45 33 -45h57q118 0 246 74l137 778h283l-194 -1106h-283l31 172q-144 -172 -318 -172h-67q-128 0 -182 68t-31 198zM301 1241h270l144 129l98 -129h258l-215 266h-246z" />
<glyph unicode="&#xfc;" horiz-adv-x="1144" d="M68 266l147 840h283l-142 -807q-9 -45 33 -45h57q118 0 246 74l137 778h283l-194 -1106h-283l31 172q-144 -172 -318 -172h-67q-128 0 -182 68t-31 198zM358 1241l43 254h248l-43 -254h-248zM766 1241l43 254h250l-43 -254h-250z" />
<glyph unicode="&#xfd;" horiz-adv-x="1097" d="M127 -369l184 369l-184 1106h295l76 -809l366 809h299l-757 -1475h-279zM520 1241l232 295h364l-352 -295h-244z" />
<glyph unicode="&#xfe;" d="M-35 -369l336 1905h283l-107 -602q144 172 318 172h84q128 0 182 -68t31 -198l-101 -574q-23 -131 -101.5 -198.5t-205.5 -67.5h-84q-173 0 -256 172l-96 -541h-283zM371 319q100 -73 221 -73h72q43 0 49 45l92 524q9 45 -33 45h-72q-119 0 -247 -74z" />
<glyph unicode="&#xff;" horiz-adv-x="1097" d="M127 -369l184 369l-184 1106h295l76 -809l366 809h299l-757 -1475h-279zM346 1241l43 254h248l-43 -254h-248zM754 1241l43 254h250l-43 -254h-250z" />
<glyph unicode="&#x152;" horiz-adv-x="1927" d="M76 287l157 901q25 139 110 213t222 74h1428l-47 -271h-654l-55 -315h528l-49 -271h-528l-62 -348h654l-47 -270h-1428q-136 0 -195 73.5t-34 213.5zM375 311q-3 -23 2.5 -32t25.5 -9h428l166 934h-428q-39 0 -45 -41z" />
<glyph unicode="&#x153;" horiz-adv-x="1730" d="M55 266l101 574q23 130 102 198t205 68h371q75 0 129 -62q26 20 43.5 31t47 21t60.5 10h352q128 0 182 -68t31 -198l-63 -367h-612l-37 -203q-3 -21 2.5 -29t23.5 -8h267q30 0 36 37l17 86h282l-16 -90q-23 -131 -101.5 -198.5t-205.5 -67.5h-352q-44 0 -73.5 16 t-58.5 45q-73 -61 -149 -61h-371q-126 0 -181 68.5t-32 197.5zM340 283q-3 -21 3 -29t24 -8h282q31 0 37 37l96 540q3 21 -2 29t-22 8h-283q-33 0 -39 -37zM1036 666h330l31 170q3 20 -2.5 28t-22.5 8h-266q-33 0 -39 -36z" />
<glyph unicode="&#x178;" horiz-adv-x="1226" d="M172 1475h309l170 -660l402 660h325l-624 -965l-90 -510h-295l90 510zM475 1610l43 254h248l-43 -254h-248zM883 1610l43 254h250l-43 -254h-250z" />
<glyph unicode="&#x2c6;" horiz-adv-x="1327" d="M465 1610h270l144 129l98 -129h258l-215 266h-246z" />
<glyph unicode="&#x2dc;" horiz-adv-x="1226" d="M487 1610h129l50 102l284 -100q93 -35 125 53l80 197h-135l-49 -99l-283 97q-95 35 -127 -56z" />
<glyph unicode="&#x2000;" horiz-adv-x="989" />
<glyph unicode="&#x2001;" horiz-adv-x="1978" />
<glyph unicode="&#x2002;" horiz-adv-x="989" />
<glyph unicode="&#x2003;" horiz-adv-x="1978" />
<glyph unicode="&#x2004;" horiz-adv-x="659" />
<glyph unicode="&#x2005;" horiz-adv-x="494" />
<glyph unicode="&#x2006;" horiz-adv-x="329" />
<glyph unicode="&#x2007;" horiz-adv-x="329" />
<glyph unicode="&#x2008;" horiz-adv-x="247" />
<glyph unicode="&#x2009;" horiz-adv-x="395" />
<glyph unicode="&#x200a;" horiz-adv-x="109" />
<glyph unicode="&#x2010;" horiz-adv-x="886" d="M98 543l45 262h686l-45 -262h-686z" />
<glyph unicode="&#x2011;" horiz-adv-x="886" d="M98 543l45 262h686l-45 -262h-686z" />
<glyph unicode="&#x2012;" horiz-adv-x="886" d="M98 543l45 262h686l-45 -262h-686z" />
<glyph unicode="&#x2013;" horiz-adv-x="1126" d="M98 543l45 262h926l-45 -262h-926z" />
<glyph unicode="&#x2014;" horiz-adv-x="1607" d="M98 543l45 262h1407l-45 -262h-1407z" />
<glyph unicode="&#x2018;" horiz-adv-x="503" d="M170 901l39 221q11 67 129 193l151 160h113l-205 -275h109l-51 -299h-285z" />
<glyph unicode="&#x2019;" horiz-adv-x="503" d="M125 901l203 275h-109l53 299h285l-39 -222q-11 -66 -133 -192l-147 -160h-113z" />
<glyph unicode="&#x201a;" horiz-adv-x="503" d="M-182 -274l205 274h-109l53 299h285l-39 -221q-11 -67 -133 -193l-150 -159h-112z" />
<glyph unicode="&#x201c;" horiz-adv-x="921" d="M170 901l39 221q11 67 129 193l151 160h113l-205 -275h109l-51 -299h-285zM588 901l39 221q11 65 131 193l149 160h113l-205 -275h109l-52 -299h-284z" />
<glyph unicode="&#x201d;" horiz-adv-x="921" d="M125 901l203 275h-109l53 299h285l-39 -222q-11 -66 -133 -192l-147 -160h-113zM543 901l202 275h-108l53 299h285l-39 -222q-12 -69 -131 -192l-148 -160h-114z" />
<glyph unicode="&#x201e;" horiz-adv-x="503" d="M-182 -274l205 274h-109l53 299h285l-39 -221q-11 -67 -133 -193l-150 -159h-112z" />
<glyph unicode="&#x2022;" horiz-adv-x="858" d="M227 696l23 131q13 79 62.5 121.5t127.5 42.5h129q79 0 113 -42t20 -122l-22 -131q-14 -80 -63 -122t-128 -42h-129q-78 0 -112.5 42t-20.5 122z" />
<glyph unicode="&#x2026;" horiz-adv-x="1386" d="M10 0l53 299h285l-53 -299h-285zM453 0l53 299h285l-54 -299h-284zM895 0l53 299h285l-53 -299h-285z" />
<glyph unicode="&#x202f;" horiz-adv-x="395" />
<glyph unicode="&#x2039;" horiz-adv-x="624" d="M47 666l19 106l323 373h301l-377 -432l213 -418h-288z" />
<glyph unicode="&#x203a;" horiz-adv-x="624" d="M-8 295l377 430l-213 420h288l189 -373l-19 -106l-321 -371h-301z" />
<glyph unicode="&#x205f;" horiz-adv-x="494" />
<glyph unicode="&#x20ac;" horiz-adv-x="1331" d="M43 524l27 146h155l23 135h-156l27 145h155l41 238q25 139 110 213t222 74h469q137 0 196 -74t34 -213l-41 -234h-295l37 209q3 22 -3 31.5t-26 9.5h-367q-39 0 -45 -41l-37 -213h353l-27 -145h-352l-23 -135h352l-26 -146h-352l-37 -213q-3 -23 2.5 -32t25.5 -9h367 q39 0 45 41l37 209h295l-41 -233q-25 -139 -110 -213t-222 -74h-469q-136 0 -195 73.5t-34 213.5l41 237h-156z" />
<glyph unicode="&#x2122;" horiz-adv-x="1519" d="M238 1331l24 144h522l-24 -144h-187l-106 -594h-152l107 594h-184zM764 737l131 738h162l102 -418l252 418h170l-131 -738h-141l84 469l-213 -354h-99l-92 354l-84 -469h-141z" />
<glyph unicode="&#x25fc;" horiz-adv-x="1105" d="M0 0v1106h1106v-1106h-1106z" />
</font>
</defs>
</svg>
