<?xml version="1.0" standalone="no"?>
<!DOCTYPE svg PUBLIC "-//W3C//DTD SVG 1.1//EN" "http://www.w3.org/Graphics/SVG/1.1/DTD/svg11.dtd" >
<svg xmlns="http://www.w3.org/2000/svg">
<metadata></metadata>
<defs>
<font id="industrymedium" horiz-adv-x="1159" >
<font-face units-per-em="2048" ascent="1638" descent="-410" />
<missing-glyph horiz-adv-x="491" />
<glyph unicode="&#xfb01;" horiz-adv-x="1271" d="M59 948v158h185v156q0 134 69.5 204t204.5 70h184v-154h-163q-111 0 -111 -110v-166h295v-158h-295v-948h-186v948h-183zM915 1327v209h207v-209h-207zM926 0v1106h186v-1106h-186z" />
<glyph unicode="&#xfb02;" horiz-adv-x="1269" d="M59 948v158h185v156q0 134 69.5 204t204.5 70h184v-154h-163q-111 0 -111 -110v-166h295v-158h-295v-948h-186v948h-183zM924 0v1536h186v-1536h-186z" />
<glyph horiz-adv-x="2048" />
<glyph horiz-adv-x="2048" />
<glyph unicode="&#xd;" horiz-adv-x="2048" />
<glyph unicode=" "  horiz-adv-x="491" />
<glyph unicode="&#x09;" horiz-adv-x="491" />
<glyph unicode="&#xa0;" horiz-adv-x="491" />
<glyph unicode="!" horiz-adv-x="591" d="M182 1475h228l-54 -1039h-120zM190 0v231h211v-231h-211z" />
<glyph unicode="&#x22;" horiz-adv-x="829" d="M131 1475h225l-61 -486h-105zM473 1475h225l-59 -486h-107z" />
<glyph unicode="#" horiz-adv-x="1576" d="M86 410v168h276l103 344h-238v168h287l115 385h184l-115 -385h381l115 385h182l-112 -385h227v-168h-279l-100 -344h238v-168h-287l-121 -410h-184l121 410h-381l-121 -410h-184l120 410h-227zM547 578h381l102 344h-381z" />
<glyph unicode="$" horiz-adv-x="1282" d="M143 287v157h195v-159q0 -111 113 -111h118v498l-127 28q-58 13 -96.5 25.5t-79.5 35t-64.5 52t-39 75t-15.5 105.5v195q0 140 73.5 213.5t213.5 73.5h123v194h166v-194h108q139 0 213 -73.5t74 -213.5v-144h-192v146q0 110 -113 110h-102v-471l135 -32q57 -13 95 -25.5 t79.5 -35t65.5 -52t39.5 -75t15.5 -105.5v-217q0 -139 -73.5 -213t-213.5 -74h-131v-195h-166v195h-127q-140 0 -213.5 74t-73.5 213zM344 1020q0 -63 27 -90t94 -43l104 -25v438h-114q-111 0 -111 -110v-170zM711 174h120q113 0 113 111v192q0 63 -27.5 91t-93.5 44 l-112 27v-465z" />
<glyph unicode="%" horiz-adv-x="1288" d="M96 1055v274q0 71 37 108.5t109 37.5h161q71 0 108.5 -37.5t37.5 -108.5v-274q0 -71 -37.5 -108.5t-108.5 -37.5h-161q-70 0 -108 37.5t-38 108.5zM195 0l739 1475h162l-742 -1475h-159zM219 1069q0 -45 45 -45h117q45 0 45 45v246q0 45 -45 45h-117q-45 0 -45 -45v-246z M739 145v275q0 71 38 108t110 37h160q72 0 109.5 -37t37.5 -108v-275q0 -71 -37.5 -108t-109.5 -37h-160q-72 0 -110 37t-38 108zM864 160q0 -45 45 -45h115q45 0 45 45v246q0 45 -45 45h-115q-45 0 -45 -45v-246z" />
<glyph unicode="&#x26;" horiz-adv-x="1347" d="M141 287v248q0 167 150 221q-133 66 -133 221v211q0 140 73.5 213.5t212.5 73.5h355q139 0 212.5 -73.5t73.5 -213.5v-133h-196v129q0 112 -113 112h-311q-111 0 -111 -112v-228q0 -110 111 -110h823v-176h-160v-383q0 -140 -73.5 -213.5t-212.5 -73.5h-414 q-140 0 -213.5 74t-73.5 213zM338 291q0 -113 111 -113h372q111 0 111 113v379h-483q-111 0 -111 -113v-266z" />
<glyph unicode="'" horiz-adv-x="485" d="M131 1475h225l-61 -486h-105z" />
<glyph unicode="(" horiz-adv-x="737" d="M188 70v1249q0 139 74 213t213 74h137v-181h-116q-111 0 -111 -112v-1237q0 -113 111 -113h116v-180h-137q-139 0 -213 73.5t-74 213.5z" />
<glyph unicode=")" horiz-adv-x="737" d="M127 -37h115q112 0 112 113v1237q0 112 -112 112h-115v181h137q140 0 213.5 -74t73.5 -213v-1249q0 -140 -73.5 -213.5t-213.5 -73.5h-137v180z" />
<glyph unicode="*" horiz-adv-x="835" d="M53 1151l49 156l275 -133l-41 301h164l-41 -301l274 131l49 -154l-299 -55l209 -222l-131 -94l-143 267l-146 -269l-131 96l209 222z" />
<glyph unicode="+" horiz-adv-x="1040" d="M129 676v164h309v303h164v-303h309v-164h-309v-303h-164v303h-309z" />
<glyph unicode="," horiz-adv-x="477" d="M86 -260l135 260h-90v233h215v-182q0 -15 -5 -32.5t-16 -39t-18.5 -35t-24 -40t-20.5 -33.5l-80 -131h-96z" />
<glyph unicode="-" horiz-adv-x="880" d="M123 586v180h635v-180h-635z" />
<glyph unicode="." horiz-adv-x="477" d="M131 0v233h215v-233h-215z" />
<glyph unicode="/" horiz-adv-x="989" d="M39 -143l725 1761h186l-725 -1761h-186z" />
<glyph unicode="0" horiz-adv-x="1304" d="M150 287v901q0 140 73.5 213.5t212.5 73.5h432q140 0 213.5 -73.5t73.5 -213.5v-901q0 -139 -73.5 -213t-213.5 -74h-432q-139 0 -212.5 73.5t-73.5 213.5zM346 293q0 -113 113 -113h387q112 0 112 113v889q0 112 -112 112h-387q-113 0 -113 -112v-889z" />
<glyph unicode="1" horiz-adv-x="759" d="M96 1169v174l289 132h162v-1475h-197v1272z" />
<glyph unicode="2" horiz-adv-x="1232" d="M135 0h979v180h-782v221q0 41 29 66t96 55l358 156q57 26 89 41.5t71 38t59.5 42t40.5 46t27.5 57.5t7.5 70v215q0 140 -74 213.5t-213 73.5h-383q-139 0 -212.5 -73.5t-73.5 -213.5v-141h194v135q0 112 111 112h342q112 0 112 -112v-187q0 -41 -28.5 -65t-98.5 -56 l-356 -155q-68 -30 -106 -49t-80 -46.5t-62 -53.5t-33.5 -63t-13.5 -83v-424z" />
<glyph unicode="3" horiz-adv-x="1247" d="M117 287v133h196v-129q0 -113 111 -113h377q110 0 110 113v266q0 113 -110 113h-367v176h350q111 0 111 110v228q0 112 -111 112h-344q-110 0 -110 -112v-129h-197v133q0 140 73.5 213.5t213.5 73.5h385q139 0 213 -73.5t74 -213.5v-215q0 -150 -134 -217 q150 -54 150 -217v-252q0 -139 -74 -213t-213 -74h-418q-139 0 -212.5 73.5t-73.5 213.5z" />
<glyph unicode="4" horiz-adv-x="1286" d="M66 494l749 981h195v-953h213v-178h-213v-344h-195v344h-729zM301 522h514v682z" />
<glyph unicode="5" horiz-adv-x="1243" d="M137 287v133h197v-127q0 -113 112 -113h359q113 0 113 113v377q0 112 -113 112h-148q-141 0 -307 -108l-196 55v746h931v-181h-735v-499q159 163 320 163h157q140 0 213.5 -73.5t73.5 -212.5v-383q0 -139 -75.5 -214t-215.5 -75h-399q-140 0 -213.5 74t-73.5 213z" />
<glyph unicode="6" horiz-adv-x="1269" d="M150 287v901q0 140 73.5 213.5t212.5 73.5h383q139 0 213 -73.5t74 -213.5v-121h-197v115q0 112 -110 112h-340q-113 0 -113 -112v-426q76 74 153 119t167 45h174q139 0 212.5 -73.5t73.5 -213.5v-346q0 -140 -73.5 -213.5t-212.5 -73.5h-404q-139 0 -212.5 73.5 t-73.5 213.5zM346 293q0 -113 113 -113h358q113 0 113 113v336q0 112 -113 112h-164q-80 0 -152.5 -28t-154.5 -80v-340z" />
<glyph unicode="7" horiz-adv-x="1146" d="M76 1296v179h1001v-136l-676 -1339h-208l653 1296h-770z" />
<glyph unicode="8" horiz-adv-x="1284" d="M137 287v248q0 161 150 219q-133 65 -133 217v217q0 140 73.5 213.5t212.5 73.5h402q139 0 212.5 -73.5t73.5 -213.5v-217q0 -154 -133 -217q150 -57 150 -219v-248q0 -139 -73.5 -213t-213.5 -74h-434q-140 0 -213.5 74t-73.5 213zM334 291q0 -113 112 -113h392 q110 0 110 113v264q0 113 -110 113h-392q-112 0 -112 -113v-264zM350 954q0 -112 113 -112h358q111 0 111 112v230q0 112 -111 112h-358q-113 0 -113 -112v-230z" />
<glyph unicode="9" horiz-adv-x="1269" d="M145 856v332q0 140 73.5 213.5t213.5 73.5h402q139 0 212.5 -73.5t73.5 -213.5v-901q0 -140 -73.5 -213.5t-212.5 -73.5h-383q-139 0 -213 74t-74 213v121h196v-115q0 -113 113 -113h338q113 0 113 113v440q-160 -164 -320 -164h-172q-140 0 -213.5 73.5t-73.5 213.5z M342 858q0 -113 111 -113h163q80 0 153 28.5t155 80.5v328q0 112 -113 112h-358q-111 0 -111 -112v-324z" />
<glyph unicode=":" horiz-adv-x="477" d="M131 0v233h215v-233h-215zM131 872v234h215v-234h-215z" />
<glyph unicode=";" horiz-adv-x="477" d="M86 -260l135 260h-90v233h215v-182q0 -15 -5 -32.5t-16 -39t-18.5 -35t-24 -40t-20.5 -33.5l-80 -131h-96zM131 872v234h215v-234h-215z" />
<glyph unicode="&#x3c;" horiz-adv-x="1040" d="M121 657l774 -358v172l-610 272l610 275v172l-774 -361v-172z" />
<glyph unicode="=" horiz-adv-x="1040" d="M129 489v177h782v-177h-782zM129 866v176h782v-176h-782z" />
<glyph unicode="&#x3e;" horiz-adv-x="1040" d="M145 299l775 358v172l-775 361v-172l611 -275l-611 -272v-172z" />
<glyph unicode="?" horiz-adv-x="1144" d="M53 1038v150q0 140 73.5 213.5t213.5 73.5h430q140 0 213.5 -73.5t73.5 -213.5v-176q0 -52 -20 -94t-65.5 -80t-89 -64.5t-120.5 -66.5l-62 -35q-69 -34 -95.5 -58.5t-26.5 -54.5v-156h-197v175q0 33 8.5 61.5t30.5 55t41.5 45t62 45t69 41.5t83.5 46l61 33 q71 37 97 62.5t26 64.5v150q0 112 -112 112h-388q-110 0 -110 -112v-144h-197zM381 0v248h197v-248h-197z" />
<glyph unicode="@" horiz-adv-x="1933" d="M184 -82v1270q0 140 74 213.5t213 73.5h993q140 0 213.5 -73.5t73.5 -213.5v-803q0 -139 -73.5 -213t-213.5 -74h-241l-41 148q-67 -76 -142.5 -116t-181.5 -40h-33q-139 0 -212.5 73.5t-73.5 213.5v356q0 140 73.5 213.5t212.5 73.5h33q106 0 181.5 -40t142.5 -116 l41 148h137v-797h96q78 0 116 41.5t38 130.5v805q0 73 -39 112t-113 39h-983q-73 0 -112 -38.5t-39 -112.5v-1278q0 -74 39 -113t112 -39h1043v-131h-1047q-139 0 -213 73.5t-74 213.5zM717 356q0 -114 114 -114h66q140 0 285 114v398q-145 114 -285 114h-66 q-114 0 -114 -114v-398z" />
<glyph unicode="A" horiz-adv-x="1349" d="M51 0l508 1475h232l505 -1475h-213l-129 397h-569l-129 -397h-205zM444 578h451l-225 690z" />
<glyph unicode="B" horiz-adv-x="1337" d="M184 0v1475h713q139 0 213 -73.5t74 -213.5v-217q0 -152 -133 -217q149 -58 149 -219v-248q0 -139 -74 -213t-213 -74h-729zM381 178h510q113 0 113 113v264q0 113 -113 113h-510v-490zM381 842h493q113 0 113 110v232q0 112 -113 112h-493v-454z" />
<glyph unicode="C" horiz-adv-x="1290" d="M150 287v901q0 140 73.5 213.5t212.5 73.5h443q139 0 212.5 -73.5t73.5 -213.5v-182h-196v176q0 112 -111 112h-399q-113 0 -113 -112v-889q0 -113 113 -113h399q111 0 111 113v176h196v-182q0 -140 -73.5 -213.5t-212.5 -73.5h-443q-139 0 -212.5 73.5t-73.5 213.5z" />
<glyph unicode="D" horiz-adv-x="1355" d="M184 0v1475h736q139 0 212.5 -73.5t73.5 -213.5v-901q0 -140 -73.5 -213.5t-212.5 -73.5h-736zM381 180h516q113 0 113 113v889q0 112 -113 112h-516v-1114z" />
<glyph unicode="E" horiz-adv-x="1218" d="M184 0v1475h928v-181h-731v-450h608v-180h-608v-484h731v-180h-928z" />
<glyph unicode="F" horiz-adv-x="1183" d="M184 0v1475h928v-181h-731v-467h608v-178h-608v-649h-197z" />
<glyph unicode="G" horiz-adv-x="1325" d="M150 287v901q0 140 73.5 213.5t212.5 73.5h459q139 0 213 -73.5t74 -213.5v-154h-197v148q0 112 -113 112h-413q-113 0 -113 -112v-889q0 -113 113 -113h413q113 0 113 113v309h-340v176h537v-491q0 -139 -74 -213t-213 -74h-459q-139 0 -212.5 73.5t-73.5 213.5z" />
<glyph unicode="H" horiz-adv-x="1421" d="M184 0v1475h197v-631h659v631h197v-1475h-197v664h-659v-664h-197z" />
<glyph unicode="I" horiz-adv-x="567" d="M184 0v1475h197v-1475h-197z" />
<glyph unicode="J" horiz-adv-x="1210" d="M78 287v260h196v-254q0 -113 113 -113h350q113 0 113 113v1182h197v-1188q0 -139 -73.5 -213t-213.5 -74h-395q-139 0 -213 74t-74 213z" />
<glyph unicode="K" horiz-adv-x="1304" d="M172 0v1475h197v-633h157l494 633h227l-563 -721l586 -754h-236l-510 666h-155v-666h-197z" />
<glyph unicode="L" horiz-adv-x="1134" d="M184 0v1475h197v-1295h680v-180h-877z" />
<glyph unicode="M" horiz-adv-x="1722" d="M184 0v1475h232l444 -1002l447 1002h231v-1475h-190v1157l-408 -936h-162l-407 936v-1157h-187z" />
<glyph unicode="N" horiz-adv-x="1454" d="M184 0v1475h213l688 -1160v1160h183v-1475h-197l-702 1182v-1182h-185z" />
<glyph unicode="O" horiz-adv-x="1343" d="M150 287v901q0 140 73.5 213.5t212.5 73.5h469q139 0 213 -73.5t74 -213.5v-901q0 -139 -74 -213t-213 -74h-469q-139 0 -212.5 73.5t-73.5 213.5zM346 293q0 -113 113 -113h426q110 0 110 113v889q0 112 -110 112h-426q-113 0 -113 -112v-889z" />
<glyph unicode="P" horiz-adv-x="1290" d="M184 0v1475h721q139 0 213 -73.5t74 -213.5v-342q0 -140 -74 -213.5t-213 -73.5h-524v-559h-197zM381 739h502q112 0 112 111v332q0 112 -112 112h-502v-555z" />
<glyph unicode="Q" horiz-adv-x="1343" d="M150 287v901q0 140 73.5 213.5t212.5 73.5h469q139 0 213 -73.5t74 -213.5v-901q0 -139 -74 -213t-213 -74h-135v-260h-197v260h-137q-139 0 -212.5 73.5t-73.5 213.5zM346 293q0 -113 113 -113h426q110 0 110 113v889q0 112 -110 112h-426q-113 0 -113 -112v-889z" />
<glyph unicode="R" horiz-adv-x="1339" d="M184 0v1475h719q139 0 213 -73.5t74 -213.5v-311q0 -129 -63.5 -202.5t-184.5 -82.5l293 -592h-215l-293 590h-346v-590h-197zM381 768h500q112 0 112 113v303q0 112 -112 112h-500v-528z" />
<glyph unicode="S" horiz-adv-x="1282" d="M143 287v157h193v-159q0 -111 113 -111h382q113 0 113 111v192q0 63 -27.5 91t-93.5 44l-381 88q-58 13 -96.5 25.5t-79.5 35t-64.5 52t-39 75t-15.5 105.5v195q0 140 73.5 213.5t213.5 73.5h397q139 0 213 -73.5t74 -213.5v-144h-192v146q0 110 -113 110h-358 q-111 0 -111 -110v-170q0 -63 27 -90t94 -43l381 -90q57 -13 95 -25.5t79.5 -35t65.5 -52t39.5 -75t15.5 -105.5v-217q0 -139 -73.5 -213t-213.5 -74h-424q-140 0 -213.5 74t-73.5 213z" />
<glyph unicode="T" horiz-adv-x="1161" d="M61 1296v179h1041v-179h-422v-1296h-197v1296h-422z" />
<glyph unicode="U" horiz-adv-x="1357" d="M166 287v1188h196v-1182q0 -113 111 -113h410q112 0 112 113v1182h197v-1188q0 -139 -74 -213t-213 -74h-452q-139 0 -213 74t-74 213z" />
<glyph unicode="V" horiz-adv-x="1288" d="M53 1475h215l377 -1258l383 1258h207l-477 -1475h-228z" />
<glyph unicode="W" horiz-adv-x="1882" d="M53 1475h209l299 -1223l297 1223h172l297 -1223l299 1223h203l-399 -1475h-207l-279 1153l-278 -1153h-215z" />
<glyph unicode="X" horiz-adv-x="1269" d="M47 0l475 752l-459 723h222l356 -566l356 566h209l-463 -723l480 -752h-222l-372 590l-371 -590h-211z" />
<glyph unicode="Y" horiz-adv-x="1239" d="M27 1475h213l383 -748l383 748h208l-495 -953v-522h-197v522z" />
<glyph unicode="Z" horiz-adv-x="1222" d="M113 0v145l759 1153h-725v177h963v-146l-760 -1153h756v-176h-993z" />
<glyph unicode="[" horiz-adv-x="741" d="M188 -217v1823h428v-181h-231v-1462h231v-180h-428z" />
<glyph unicode="\" horiz-adv-x="989" d="M39 1618h186l725 -1761h-186z" />
<glyph unicode="]" horiz-adv-x="741" d="M127 -37h231v1462h-231v181h428v-1823h-428v180z" />
<glyph unicode="^" horiz-adv-x="1179" d="M166 844l317 631h213l318 -631h-187l-237 473l-238 -473h-186z" />
<glyph unicode="_" horiz-adv-x="1153" d="M12 -92h1129v-160h-1129v160z" />
<glyph unicode="`" horiz-adv-x="1105" d="M342 1905l279 -295h145l-184 295h-240z" />
<glyph unicode="a" horiz-adv-x="1128" d="M104 274v111q0 133 74 207t207 74h64q143 0 352 -37v205q0 110 -111 110h-254q-110 0 -110 -110v-39h-185v36q0 133 70.5 204t204.5 71h297q133 0 203.5 -70.5t70.5 -204.5v-831h-186v164q-156 -164 -320 -164h-102q-134 0 -204.5 70.5t-70.5 203.5zM289 272 q0 -54 28.5 -82t81.5 -28h99q133 0 303 110v244h-402q-110 0 -110 -110v-134z" />
<glyph unicode="b" horiz-adv-x="1169" d="M152 0v1536h186v-594q82 78 155 121t164 43h109q133 0 203.5 -70.5t70.5 -204.5v-557q0 -134 -70 -204t-204 -70h-109q-91 0 -164 43t-155 121v-164h-186zM338 276q79 -55 151 -82.5t152 -27.5h100q111 0 111 110v553q0 53 -28 82t-83 29h-100q-143 0 -303 -111v-553z " />
<glyph unicode="c" horiz-adv-x="1091" d="M129 274v557q0 134 70.5 204.5t203.5 70.5h314q133 0 203.5 -70.5t70.5 -204.5v-90h-188v88q0 111 -111 111h-264q-54 0 -82.5 -28.5t-28.5 -82.5v-553q0 -53 28.5 -81.5t82.5 -28.5h264q54 0 82.5 28.5t28.5 81.5v89h188v-91q0 -134 -70.5 -204t-203.5 -70h-314 q-133 0 -203.5 70t-70.5 204z" />
<glyph unicode="d" horiz-adv-x="1169" d="M129 274v557q0 134 70.5 204.5t203.5 70.5h109q91 0 164 -43t155 -121v594h187v-1536h-187v164q-82 -78 -155 -121t-164 -43h-109q-133 0 -203.5 70t-70.5 204zM317 276q0 -110 111 -110h100q80 0 152 27.5t151 82.5v553q-160 111 -303 111h-100q-55 0 -83 -29t-28 -82 v-553z" />
<glyph unicode="e" horiz-adv-x="1118" d="M129 274v557q0 134 70.5 204.5t203.5 70.5h326q133 0 204 -71t71 -204v-323h-687v-240q0 -110 111 -110h277q54 0 82 28.5t28 81.5v82h189v-76q0 -133 -70.5 -203.5t-204.5 -70.5h-326q-133 0 -203.5 70t-70.5 204zM317 647h498v191q0 110 -110 110h-277 q-111 0 -111 -110v-191z" />
<glyph unicode="f" horiz-adv-x="765" d="M59 948v158h183v156q0 134 70 204t204 70h186v-154h-165q-111 0 -111 -110v-166h297v-158h-295v-948h-186v948h-183z" />
<glyph unicode="g" horiz-adv-x="1169" d="M129 281v550q0 134 70.5 204.5t203.5 70.5h109q91 0 164 -43t155 -121v164h187v-1200q0 -134 -71 -204.5t-204 -70.5h-491v158h471q108 0 108 107v274q-82 -78 -155 -121t-164 -43h-109q-133 0 -203.5 70.5t-70.5 204.5zM317 285q0 -111 111 -111h100q148 0 303 111v544 q-160 111 -303 111h-100q-55 0 -83 -29t-28 -82v-544z" />
<glyph unicode="h" d="M152 0v1536h186v-594q82 78 155 121t164 43h86q133 0 204 -71t71 -204v-831h-187v825q0 111 -110 111h-80q-148 0 -303 -111v-825h-186z" />
<glyph unicode="i" horiz-adv-x="505" d="M150 1327v209h206v-209h-206zM160 0v1106h186v-1106h-186z" />
<glyph unicode="j" horiz-adv-x="505" d="M-68 -240l119 54q54 21 81.5 45.5t27.5 72.5v1174h186v-1172q0 -124 -65.5 -184.5t-208.5 -89.5l-140 -29v129zM150 1327v209h206v-209h-206z" />
<glyph unicode="k" horiz-adv-x="1077" d="M152 0v1536h184v-885h113l366 455h215l-434 -537l457 -569h-224l-383 487h-110v-487h-184z" />
<glyph unicode="l" horiz-adv-x="501" d="M158 0v1536h186v-1536h-186z" />
<glyph unicode="m" horiz-adv-x="1765" d="M152 0v1106h186v-164q82 78 155 121t164 43h50q215 0 262 -172q172 172 331 172h48q133 0 203.5 -70.5t70.5 -204.5v-831h-186v827q0 54 -28.5 82.5t-82.5 28.5h-43q-146 0 -301 -111v-827h-188v827q0 111 -111 111h-41q-143 0 -303 -111v-827h-186z" />
<glyph unicode="n" d="M152 0v1106h186v-164q82 78 155 121t164 43h86q133 0 204 -71t71 -204v-831h-187v825q0 111 -110 111h-80q-148 0 -303 -111v-825h-186z" />
<glyph unicode="o" horiz-adv-x="1138" d="M127 274v557q0 134 70.5 204.5t203.5 70.5h336q133 0 204 -71t71 -204v-557q0 -133 -70.5 -203.5t-204.5 -70.5h-336q-133 0 -203.5 70t-70.5 204zM313 276q0 -54 29 -82t82 -28h289q110 0 110 110v553q0 111 -110 111h-289q-53 0 -82 -28.5t-29 -82.5v-553z" />
<glyph unicode="p" horiz-adv-x="1169" d="M152 -369v1475h186v-164q82 78 155 121t164 43h109q133 0 203.5 -70.5t70.5 -204.5v-557q0 -134 -70 -204t-204 -70h-109q-91 0 -164 43t-155 121v-533h-186zM338 276q79 -55 151 -82.5t152 -27.5h100q111 0 111 110v553q0 53 -28 82t-83 29h-100q-143 0 -303 -111v-553z " />
<glyph unicode="q" horiz-adv-x="1169" d="M129 274v557q0 134 70.5 204.5t203.5 70.5h109q91 0 164 -43t155 -121v164h187v-1475h-187v533q-82 -78 -155 -121t-164 -43h-109q-133 0 -203.5 70t-70.5 204zM317 276q0 -110 111 -110h100q80 0 152 27.5t151 82.5v553q-160 111 -303 111h-100q-55 0 -83 -29t-28 -82 v-553z" />
<glyph unicode="r" horiz-adv-x="813" d="M152 0v1106h186v-164q79 75 153.5 119.5t165.5 44.5h103v-178h-119q-128 0 -303 -111v-817h-186z" />
<glyph unicode="s" horiz-adv-x="1067" d="M102 274v70h183v-78q0 -54 28.5 -82t81.5 -28h273q110 0 110 110v103q0 48 -23 67.5t-81 28.5l-318 51q-125 21 -182 76t-57 162v77q0 134 70.5 204.5t203.5 70.5h273q133 0 203.5 -70.5t70.5 -204.5v-51h-184v60q0 110 -111 110h-229q-111 0 -111 -110v-70 q0 -48 23 -67.5t82 -28.5l317 -51q124 -21 182 -76t58 -162v-111q0 -133 -70.5 -203.5t-204.5 -70.5h-313q-134 0 -204.5 70.5t-70.5 203.5z" />
<glyph unicode="t" horiz-adv-x="747" d="M51 948v158h172v328h180v-328h275v-158h-270v-678q0 -110 110 -110h160v-160h-184q-132 0 -203.5 70.5t-71.5 203.5v674h-168z" />
<glyph unicode="u" d="M141 274v832h187v-825q0 -111 110 -111h80q144 0 303 111v825h187v-1106h-187v164q-85 -79 -157 -121.5t-162 -42.5h-86q-134 0 -204.5 70.5t-70.5 203.5z" />
<glyph unicode="v" horiz-adv-x="1046" d="M37 1106h196l293 -946l293 946h189l-375 -1106h-221z" />
<glyph unicode="w" horiz-adv-x="1554" d="M37 1106h196l230 -909l229 909h180l230 -909l229 909h187l-318 -1106h-201l-217 874l-217 -874h-203z" />
<glyph unicode="x" horiz-adv-x="1042" d="M35 0l383 559l-379 547h205l280 -410l277 410h192l-375 -549l388 -557h-205l-289 420l-285 -420h-192z" />
<glyph unicode="y" horiz-adv-x="1058" d="M37 1106h196l295 -891l303 891h191l-541 -1475h-178l131 369z" />
<glyph unicode="z" horiz-adv-x="954" d="M76 0v125l569 823h-545v158h772v-123l-569 -825h569v-158h-796z" />
<glyph unicode="{" horiz-adv-x="845" d="M106 621v170h78q113 0 113 116v412q0 139 73.5 213t213.5 74h137v-181h-117q-110 0 -110 -112v-398q0 -74 -38 -126.5t-98 -81.5q61 -29 98.5 -81.5t37.5 -127.5v-422q0 -113 110 -113h117v-180h-137q-140 0 -213.5 73.5t-73.5 213.5v434q0 117 -113 117h-78z" />
<glyph unicode="|" horiz-adv-x="653" d="M242 -442v2054h170v-2054h-170z" />
<glyph unicode="}" horiz-adv-x="845" d="M127 -37h115q112 0 112 113v422q0 75 37.5 127.5t97.5 81.5q-60 29 -97.5 81t-37.5 127v398q0 112 -112 112h-115v181h137q140 0 213.5 -74t73.5 -213v-412q0 -116 111 -116h79v-170h-79q-111 0 -111 -117v-434q0 -140 -73.5 -213.5t-213.5 -73.5h-137v180z" />
<glyph unicode="~" horiz-adv-x="1040" d="M156 545h123l43 112l372 -98q92 -25 123 62l68 188h-127l-43 -109l-371 95q-95 25 -125 -64z" />
<glyph unicode="&#xa1;" horiz-adv-x="591" d="M182 -369l54 1039h120l54 -1039h-228zM190 874v232h211v-232h-211z" />
<glyph unicode="&#xa2;" horiz-adv-x="1153" d="M135 489v508q0 139 73.5 213t213.5 74h80v191h157v-191h76q139 0 213 -74t74 -213v-88h-186v90q0 113 -113 113h-72v-737h72q113 0 113 112v91h186v-89q0 -139 -73.5 -212.5t-213.5 -73.5h-76v-203h-157v203h-80q-140 0 -213.5 73.5t-73.5 212.5zM322 487 q0 -112 112 -112h76v737h-76q-112 0 -112 -113v-512z" />
<glyph unicode="&#xa3;" horiz-adv-x="1277" d="M70 0v180h127q41 0 41 41v404h-168v176h168v387q0 140 73.5 213.5t212.5 73.5h338q140 0 213.5 -73.5t73.5 -213.5v-166h-197v160q0 112 -112 112h-295q-111 0 -111 -112v-381h393v-176h-393v-445h723v-180h-1087z" />
<glyph unicode="&#xa4;" horiz-adv-x="1239" d="M80 291l158 158q-27 59 -27 141v328q0 76 25 137l-156 155l119 123l155 -155q56 26 144 26h243q88 0 144 -26l155 155l119 -123l-155 -155q24 -59 24 -137v-328q0 -82 -27 -141l158 -158l-119 -123l-159 160q-61 -25 -140 -25h-243q-79 0 -140 25l-159 -160zM389 580 q0 -111 113 -111h235q113 0 113 111v348q0 110 -113 110h-235q-113 0 -113 -110v-348z" />
<glyph unicode="&#xa5;" horiz-adv-x="1239" d="M27 1475h213l383 -748l383 748h208l-407 -783h246v-133h-316l-18 -37v-73h334v-134h-334v-315h-197v315h-336v134h336v73l-18 37h-318v133h248z" />
<glyph unicode="&#xa6;" horiz-adv-x="653" d="M242 369h170v-811h-170v811zM242 801v811h170v-811h-170z" />
<glyph unicode="&#xa7;" horiz-adv-x="1097" d="M115 94v66h180v-76q0 -54 28.5 -82.5t82.5 -28.5h268q112 0 112 111v113q0 76 -98 92l-321 53q-117 19 -177.5 76.5t-60.5 161.5v143q0 76 23 123t69 84q-42 31 -60 65t-18 95v98q0 140 73.5 213.5t213.5 73.5h240q139 0 212.5 -73.5t73.5 -213.5v-41h-180v55 q0 111 -112 111h-226q-112 0 -112 -111v-100q0 -78 96 -94l330 -54q114 -18 172.5 -73t58.5 -164v-146q0 -129 -90 -204q40 -30 58 -64.5t18 -95.5v-113q0 -140 -73.5 -213.5t-213.5 -73.5h-281q-139 0 -212.5 73.5t-73.5 213.5zM311 596q0 -82 97 -98l309 -49q44 -8 64 25 t20 89v144q0 37 -26 60.5t-73 31.5l-313 51q-39 7 -58.5 -25t-19.5 -88v-141z" />
<glyph unicode="&#xa8;" horiz-adv-x="1310" d="M375 1610v221h190v-221h-190zM745 1610v221h191v-221h-191z" />
<glyph unicode="&#xa9;" horiz-adv-x="1734" d="M184 287v901q0 140 74 213.5t213 73.5h793q139 0 212.5 -73.5t73.5 -213.5v-901q0 -140 -73.5 -213.5t-212.5 -73.5h-793q-139 0 -213 74t-74 213zM317 285q0 -78 41.5 -119t120.5 -41h776q79 0 120.5 41t41.5 119v905q0 78 -41.5 119t-120.5 41h-776q-79 0 -120.5 -41 t-41.5 -119v-905zM528 496v483q0 107 56.5 163t163.5 56h237q107 0 164 -56t57 -163v-109h-159v109q0 76 -76 76h-207q-78 0 -78 -76v-483q0 -76 78 -76h207q76 0 76 76v108h159v-108q0 -107 -57 -163.5t-164 -56.5h-237q-107 0 -163.5 56.5t-56.5 163.5z" />
<glyph unicode="&#xaa;" horiz-adv-x="776" d="M100 940v61q0 89 48 137t137 48h34q95 0 226 -25v129q0 66 -66 66h-162q-65 0 -65 -66v-28h-131v28q0 91 46.5 138t137.5 47h187q90 0 137 -47.5t47 -137.5v-534h-131v104q-90 -104 -207 -104h-53q-89 0 -137 47.5t-48 136.5zM117 510v117h559v-117h-559zM231 942 q0 -31 17.5 -48t48.5 -17h57q100 0 191 71v137h-248q-66 0 -66 -65v-78z" />
<glyph unicode="&#xab;" horiz-adv-x="929" d="M49 674v90l262 381h197l-293 -426l293 -424h-197zM406 674v90l262 381h196l-293 -426l293 -424h-196z" />
<glyph unicode="&#xad;" horiz-adv-x="880" d="M123 586v180h635v-180h-635z" />
<glyph unicode="&#xae;" horiz-adv-x="843" d="M113 862v481q0 132 131 132h356q131 0 131 -132v-481q0 -131 -131 -131h-356q-131 0 -131 131zM176 860q0 -69 70 -69h352q70 0 70 69v486q0 69 -70 69h-352q-70 0 -70 -69v-486zM270 883v446h217q88 0 88 -88v-92q0 -85 -81 -88l90 -178h-68l-90 178h-94v-178h-62z M334 1120h147q31 0 31 31v86q0 33 -31 33h-147v-150z" />
<glyph unicode="&#xaf;" horiz-adv-x="1230" d="M342 1616v160h537v-160h-537z" />
<glyph unicode="&#xb0;" horiz-adv-x="651" d="M121 1147v221q0 107 106 107h197q106 0 106 -107v-221q0 -107 -106 -107h-197q-106 0 -106 107zM236 1286l38 -131q9 -18 29 -8l105 51q18 12 8 31l-39 131q-9 18 -29 8l-104 -51q-18 -12 -8 -31z" />
<glyph unicode="&#xb1;" horiz-adv-x="1040" d="M129 221v164h782v-164h-782zM129 793v165h309v304h164v-304h309v-165h-309v-301h-164v301h-309z" />
<glyph unicode="&#xb2;" horiz-adv-x="700" d="M68 938h571v137h-426v80q0 18 11.5 27t43.5 20l201 66q39 14 56.5 20.5t44 21t37.5 27.5t20.5 35t9.5 49v95q0 90 -47 137t-137 47h-191q-90 0 -137 -47t-47 -137v-48h141v35q0 60 62 60h151q60 0 60 -60v-51q0 -18 -12 -26.5t-44 -20.5l-200 -66q-92 -30 -130 -60 t-38 -93v-248z" />
<glyph unicode="&#xb3;" horiz-adv-x="704" d="M57 1122v45h146v-37q0 -59 59 -59h166q59 0 59 59v74q0 60 -59 60h-178v127h170q59 0 59 59v57q0 60 -59 60h-150q-59 0 -59 -60v-37h-143v46q0 90 47 137t137 47h186q90 0 137.5 -47t47.5 -137v-62q0 -82 -76 -127q39 -17 61.5 -51t22.5 -76v-78q0 -90 -47.5 -137 t-137.5 -47h-204q-91 0 -138 46.5t-47 137.5z" />
<glyph unicode="&#xb4;" horiz-adv-x="1097" d="M342 1610l184 295h238l-279 -295h-143z" />
<glyph unicode="&#xb6;" horiz-adv-x="1546" d="M121 858v330q0 140 73.5 213.5t213.5 73.5h954v-1475h-197v1292h-159v-1292h-197v571h-401q-140 0 -213.5 73.5t-73.5 213.5z" />
<glyph unicode="&#xb7;" horiz-adv-x="487" d="M135 561v234h217v-234h-217z" />
<glyph unicode="&#xb8;" horiz-adv-x="1157" d="M346 -291h303q31 0 31 33v47q0 33 -31 33h-252l52 104h208q73 0 113.5 -37t40.5 -108v-31q0 -72 -40 -109.5t-114 -37.5h-208z" />
<glyph unicode="&#xb9;" horiz-adv-x="452" d="M49 1503v121l176 78h115v-762h-143v612z" />
<glyph unicode="&#xba;" horiz-adv-x="780" d="M100 940v350q0 90 47.5 137.5t137.5 47.5h211q90 0 137 -47.5t47 -137.5v-350q0 -90 -47 -137t-137 -47h-211q-89 0 -137 47.5t-48 136.5zM117 510v117h547v-117h-547zM233 942q0 -65 66 -65h182q66 0 66 65v346q0 66 -66 66h-182q-66 0 -66 -66v-346z" />
<glyph unicode="&#xbb;" horiz-adv-x="929" d="M66 295l292 424l-292 426h196l262 -381v-90l-262 -379h-196zM422 295l293 424l-293 426h196l263 -381v-90l-263 -379h-196z" />
<glyph unicode="&#xbc;" horiz-adv-x="1443" d="M49 1278v121l176 78h115v-762h-143v612zM145 0l803 1475h148l-803 -1475h-148zM711 264l434 498h129v-477h119v-127h-119v-158h-141v158h-396zM887 285h246v268z" />
<glyph unicode="&#xbd;" horiz-adv-x="1488" d="M49 1278v121l176 78h115v-762h-143v612zM145 0l803 1475h148l-803 -1475h-148zM856 0h571v137h-426v80q0 18 12 26.5t44 20.5l200 66q39 14 56.5 20.5t44 21t37.5 27.5t20.5 35t9.5 49v95q0 90 -47 137t-137 47h-190q-90 0 -137.5 -47t-47.5 -137v-48h142v35q0 60 61 60 h152q59 0 59 -60v-51q0 -18 -11.5 -27t-43.5 -20l-201 -66q-92 -30 -130 -60t-38 -93v-248z" />
<glyph unicode="&#xbe;" horiz-adv-x="1695" d="M57 897v45h146v-37q0 -59 59 -59h166q59 0 59 59v74q0 59 -59 59h-178v127h170q59 0 59 60v57q0 59 -59 59h-150q-59 0 -59 -59v-37h-143v45q0 90 47 137.5t137 47.5h186q90 0 137.5 -47.5t47.5 -137.5v-61q0 -82 -76 -127q39 -17 61.5 -51t22.5 -76v-78 q0 -89 -47.5 -136.5t-137.5 -47.5h-204q-91 0 -138 46.5t-47 137.5zM397 0l803 1475h148l-803 -1475h-148zM963 264l434 498h129v-477h119v-127h-119v-158h-142v158h-395zM1139 285h245v268z" />
<glyph unicode="&#xbf;" horiz-adv-x="1144" d="M90 -82v176q0 42 15 78.5t37.5 64t64 58t78.5 51.5t98 53l63 35q68 35 94.5 59t26.5 54v155h197v-174q0 -33 -8.5 -61.5t-30.5 -55t-42 -45.5t-61.5 -45t-69 -42t-83.5 -46l-61 -32q-71 -37 -96 -62t-25 -65v-150q0 -112 110 -112h387q113 0 113 112v144h197v-150 q0 -140 -74 -213.5t-213 -73.5h-430q-139 0 -213 73.5t-74 213.5zM567 858v248h197v-248h-197z" />
<glyph unicode="&#xc0;" horiz-adv-x="1349" d="M51 0l508 1475h229l508 -1475h-215l-129 397h-567l-129 -397h-205zM379 1905h239l185 -295h-146zM444 578h449l-223 690z" />
<glyph unicode="&#xc1;" horiz-adv-x="1349" d="M51 0l508 1475h229l508 -1475h-215l-129 397h-567l-129 -397h-205zM444 578h449l-223 690zM547 1610l184 295h238l-279 -295h-143z" />
<glyph unicode="&#xc2;" horiz-adv-x="1349" d="M51 0l508 1475h229l508 -1475h-215l-129 397h-567l-129 -397h-205zM340 1610l244 252h180l244 -252h-183l-151 155l-152 -155h-182zM444 578h449l-223 690z" />
<glyph unicode="&#xc3;" horiz-adv-x="1349" d="M51 0l508 1475h229l508 -1475h-215l-129 397h-567l-129 -397h-205zM373 1610l41 184q9 43 40 58t81 -3l290 -110l39 112h115l-45 -186q-9 -41 -41 -55.5t-78 2.5l-295 114l-37 -116h-110zM444 578h449l-223 690z" />
<glyph unicode="&#xc4;" horiz-adv-x="1349" d="M51 0l508 1475h229l508 -1475h-215l-129 397h-567l-129 -397h-205zM393 1610v221h191v-221h-191zM444 578h449l-223 690zM764 1610v221h190v-221h-190z" />
<glyph unicode="&#xc5;" horiz-adv-x="1349" d="M51 0l508 1475h229l508 -1475h-215l-129 397h-567l-129 -397h-205zM444 578h449l-223 690zM496 1706v147q0 46 25 70.5t71 24.5h164q46 0 71 -24.5t25 -70.5v-147q0 -47 -25 -71.5t-71 -24.5h-164q-46 0 -71 24.5t-25 71.5zM598 1724q0 -22 23 -22h106q23 0 23 22v109 q0 22 -23 22h-106q-23 0 -23 -22v-109z" />
<glyph unicode="&#xc6;" horiz-adv-x="2033" d="M18 0l777 1475h1132v-181h-731v-450h608v-180h-608v-484h731v-180h-928v395h-557l-202 -395h-222zM535 575h464v717h-96z" />
<glyph unicode="&#xc7;" horiz-adv-x="1290" d="M150 287v901q0 140 73.5 213.5t212.5 73.5h443q139 0 212.5 -73.5t73.5 -213.5v-182h-196v176q0 112 -113 112h-397q-113 0 -113 -112v-889q0 -113 113 -113h397q113 0 113 113v176h196v-182q0 -140 -73.5 -213.5t-212.5 -73.5h-443q-139 0 -212.5 73.5t-73.5 213.5z M432 -291h303q31 0 31 33v47q0 33 -31 33h-252l52 104h208q73 0 113.5 -37t40.5 -108v-31q0 -72 -40 -109.5t-114 -37.5h-208z" />
<glyph unicode="&#xc8;" horiz-adv-x="1218" d="M184 0v1475h926v-181h-729v-450h608v-180h-608v-484h729v-180h-926zM360 1905l279 -295h145l-184 295h-240z" />
<glyph unicode="&#xc9;" horiz-adv-x="1218" d="M184 0v1475h926v-181h-729v-450h608v-180h-608v-484h729v-180h-926zM528 1610l185 295h237l-278 -295h-144z" />
<glyph unicode="&#xca;" horiz-adv-x="1218" d="M184 0v1475h926v-181h-729v-450h608v-180h-608v-484h729v-180h-926zM322 1610h182l151 155l152 -155h182l-244 252h-180z" />
<glyph unicode="&#xcb;" horiz-adv-x="1218" d="M184 0v1475h926v-181h-729v-450h608v-180h-608v-484h729v-180h-926zM375 1610v221h190v-221h-190zM745 1610v221h191v-221h-191z" />
<glyph unicode="&#xcc;" horiz-adv-x="567" d="M-12 1905l278 -295h146l-185 295h-239zM184 0v1475h197v-1475h-197z" />
<glyph unicode="&#xcd;" horiz-adv-x="567" d="M156 1610l184 295h238l-279 -295h-143zM184 0v1475h197v-1475h-197z" />
<glyph unicode="&#xce;" horiz-adv-x="567" d="M-51 1610h182l152 155l151 -155h182l-243 252h-180zM184 0v1475h197v-1475h-197z" />
<glyph unicode="&#xcf;" horiz-adv-x="567" d="M2 1610v221h191v-221h-191zM184 0v1475h197v-1475h-197zM373 1610v221h190v-221h-190z" />
<glyph unicode="&#xd0;" horiz-adv-x="1349" d="M8 649v189h172v637h727q139 0 216 -76.5t77 -216.5v-889q0 -139 -77 -216t-216 -77h-727v649h-172zM377 180h514q53 0 83 32t30 85v881q0 53 -30 84.5t-83 31.5h-514v-456h170v-189h-170v-469z" />
<glyph unicode="&#xd1;" horiz-adv-x="1454" d="M184 0v1475h211l690 -1160v1160h183v-1475h-197l-704 1182v-1182h-183zM426 1610h111l36 116l295 -114q46 -17 78 -2.5t41 55.5l45 186h-114l-39 -112l-291 110q-50 18 -81 3t-40 -58z" />
<glyph unicode="&#xd2;" horiz-adv-x="1343" d="M150 287v901q0 140 73.5 213.5t212.5 73.5h469q139 0 213 -73.5t74 -213.5v-901q0 -139 -74 -213t-213 -74h-469q-139 0 -212.5 73.5t-73.5 213.5zM346 293q0 -113 113 -113h424q112 0 112 113v889q0 112 -112 112h-424q-113 0 -113 -112v-889zM377 1905l278 -295h146 l-185 295h-239z" />
<glyph unicode="&#xd3;" horiz-adv-x="1343" d="M150 287v901q0 140 73.5 213.5t212.5 73.5h469q139 0 213 -73.5t74 -213.5v-901q0 -139 -74 -213t-213 -74h-469q-139 0 -212.5 73.5t-73.5 213.5zM346 293q0 -113 113 -113h424q112 0 112 113v889q0 112 -112 112h-424q-113 0 -113 -112v-889zM545 1610l184 295h238 l-279 -295h-143z" />
<glyph unicode="&#xd4;" horiz-adv-x="1343" d="M150 287v901q0 140 73.5 213.5t212.5 73.5h469q139 0 213 -73.5t74 -213.5v-901q0 -139 -74 -213t-213 -74h-469q-139 0 -212.5 73.5t-73.5 213.5zM338 1610h182l152 155l151 -155h183l-244 252h-180zM346 293q0 -113 113 -113h424q112 0 112 113v889q0 112 -112 112 h-424q-113 0 -113 -112v-889z" />
<glyph unicode="&#xd5;" horiz-adv-x="1343" d="M150 287v901q0 140 73.5 213.5t212.5 73.5h469q139 0 213 -73.5t74 -213.5v-901q0 -139 -74 -213t-213 -74h-469q-139 0 -212.5 73.5t-73.5 213.5zM346 293q0 -113 113 -113h424q112 0 112 113v889q0 112 -112 112h-424q-113 0 -113 -112v-889zM371 1610h110l37 116 l295 -114q46 -17 78 -2.5t41 55.5l45 186h-115l-39 -112l-291 110q-50 18 -80.5 3.5t-39.5 -58.5z" />
<glyph unicode="&#xd6;" horiz-adv-x="1343" d="M150 287v901q0 140 73.5 213.5t212.5 73.5h469q139 0 213 -73.5t74 -213.5v-901q0 -139 -74 -213t-213 -74h-469q-139 0 -212.5 73.5t-73.5 213.5zM346 293q0 -113 113 -113h424q112 0 112 113v889q0 112 -112 112h-424q-113 0 -113 -112v-889zM391 1610v221h191v-221 h-191zM762 1610v221h190v-221h-190z" />
<glyph unicode="&#xd7;" horiz-adv-x="1040" d="M154 426l254 258l-254 252l114 115l254 -254l252 256l115 -113l-254 -256l254 -254l-115 -115l-252 254l-254 -256z" />
<glyph unicode="&#xd8;" horiz-adv-x="1343" d="M150 287v901q0 140 73.5 213.5t212.5 73.5h469q139 0 213 -73.5t74 -213.5v-901q0 -139 -74 -213t-213 -74h-469q-139 0 -212.5 73.5t-73.5 213.5zM346 303l508 991h-395q-113 0 -113 -112v-879zM481 180h404q110 0 110 113v889z" />
<glyph unicode="&#xd9;" horiz-adv-x="1357" d="M166 287v1188h196v-1182q0 -113 113 -113h410q110 0 110 113v1182h197v-1188q0 -139 -74 -213t-213 -74h-452q-139 0 -213 74t-74 213zM383 1905l279 -295h145l-184 295h-240z" />
<glyph unicode="&#xda;" horiz-adv-x="1357" d="M166 287v1188h196v-1182q0 -113 113 -113h410q110 0 110 113v1182h197v-1188q0 -139 -74 -213t-213 -74h-452q-139 0 -213 74t-74 213zM551 1610l184 295h238l-279 -295h-143z" />
<glyph unicode="&#xdb;" horiz-adv-x="1357" d="M166 287v1188h196v-1182q0 -113 113 -113h410q110 0 110 113v1182h197v-1188q0 -139 -74 -213t-213 -74h-452q-139 0 -213 74t-74 213zM344 1610h182l152 155l151 -155h183l-244 252h-180z" />
<glyph unicode="&#xdc;" horiz-adv-x="1357" d="M166 287v1188h196v-1182q0 -113 113 -113h410q110 0 110 113v1182h197v-1188q0 -139 -74 -213t-213 -74h-452q-139 0 -213 74t-74 213zM397 1610v221h191v-221h-191zM768 1610v221h190v-221h-190z" />
<glyph unicode="&#xdd;" horiz-adv-x="1239" d="M27 1475h213l383 -748l383 748h208l-495 -953v-522h-197v522zM496 1610l184 295h238l-279 -295h-143z" />
<glyph unicode="&#xde;" horiz-adv-x="1290" d="M184 0v1475h197v-269h524q140 0 213.5 -73.5t73.5 -212.5v-345q0 -139 -73.5 -212.5t-213.5 -73.5h-524v-289h-197zM381 469h502q112 0 112 113v331q0 113 -112 113h-502v-557z" />
<glyph unicode="&#xdf;" d="M143 0v1200q0 134 70.5 204.5t204.5 70.5h332q133 0 203.5 -70.5t70.5 -204.5v-225q0 -71 -36 -128.5t-97 -90.5q67 -26 108 -83.5t41 -133.5v-265q0 -134 -70 -204t-204 -70h-285v166h260q54 0 82.5 28.5t28.5 81.5v285q0 57 -30.5 87t-100.5 30h-211v160h205 q69 0 95 26t26 90v244q0 53 -28 82t-83 29h-285q-110 0 -110 -111v-1198h-187z" />
<glyph unicode="&#xe0;" horiz-adv-x="1128" d="M104 274v111q0 133 74 207t207 74h64q143 0 352 -37v205q0 110 -111 110h-252q-110 0 -110 -110v-39h-187v36q0 133 70.5 204t204.5 71h297q133 0 203.5 -70.5t70.5 -204.5v-831h-186v164q-156 -164 -320 -164h-102q-134 0 -204.5 70.5t-70.5 203.5zM285 1536l278 -295 h146l-185 295h-239zM289 272q0 -110 110 -110h99q135 0 301 110v244h-400q-110 0 -110 -110v-134z" />
<glyph unicode="&#xe1;" horiz-adv-x="1128" d="M104 274v111q0 133 74 207t207 74h64q143 0 352 -37v205q0 110 -111 110h-252q-110 0 -110 -110v-39h-187v36q0 133 70.5 204t204.5 71h297q133 0 203.5 -70.5t70.5 -204.5v-831h-186v164q-156 -164 -320 -164h-102q-134 0 -204.5 70.5t-70.5 203.5zM289 272 q0 -110 110 -110h99q135 0 301 110v244h-400q-110 0 -110 -110v-134zM453 1241l184 295h237l-278 -295h-143z" />
<glyph unicode="&#xe2;" horiz-adv-x="1128" d="M104 274v111q0 133 74 207t207 74h64q143 0 352 -37v205q0 110 -111 110h-252q-110 0 -110 -110v-39h-187v36q0 133 70.5 204t204.5 71h297q133 0 203.5 -70.5t70.5 -204.5v-831h-186v164q-156 -164 -320 -164h-102q-134 0 -204.5 70.5t-70.5 203.5zM246 1241h182 l152 156l151 -156h182l-243 252h-181zM289 272q0 -110 110 -110h99q135 0 301 110v244h-400q-110 0 -110 -110v-134z" />
<glyph unicode="&#xe3;" horiz-adv-x="1128" d="M104 274v111q0 133 74 207t207 74h64q143 0 352 -37v205q0 110 -111 110h-252q-110 0 -110 -110v-39h-187v36q0 133 70.5 204t204.5 71h297q133 0 203.5 -70.5t70.5 -204.5v-831h-186v164q-156 -164 -320 -164h-102q-134 0 -204.5 70.5t-70.5 203.5zM279 1241h110l37 117 l295 -115q46 -17 78 -2.5t41 55.5l45 187h-115l-39 -113l-291 111q-50 18 -81 3t-40 -59zM289 272q0 -110 110 -110h99q135 0 301 110v244h-400q-110 0 -110 -110v-134z" />
<glyph unicode="&#xe4;" horiz-adv-x="1128" d="M104 274v111q0 133 74 207t207 74h64q143 0 352 -37v205q0 110 -111 110h-252q-110 0 -110 -110v-39h-187v36q0 133 70.5 204t204.5 71h297q133 0 203.5 -70.5t70.5 -204.5v-831h-186v164q-156 -164 -320 -164h-102q-134 0 -204.5 70.5t-70.5 203.5zM289 272 q0 -110 110 -110h99q135 0 301 110v244h-400q-110 0 -110 -110v-134zM299 1241v221h190v-221h-190zM670 1241v221h190v-221h-190z" />
<glyph unicode="&#xe5;" horiz-adv-x="1128" d="M104 274v111q0 133 74 207t207 74h64q143 0 352 -37v205q0 110 -111 110h-252q-110 0 -110 -110v-39h-187v36q0 133 70.5 204t204.5 71h297q133 0 203.5 -70.5t70.5 -204.5v-831h-186v164q-156 -164 -320 -164h-102q-134 0 -204.5 70.5t-70.5 203.5zM289 272 q0 -110 110 -110h99q135 0 301 110v244h-400q-110 0 -110 -110v-134zM401 1337v148q0 45 25.5 69.5t71.5 24.5h164q46 0 71 -24t25 -70v-148q0 -47 -25 -71.5t-71 -24.5h-164q-46 0 -71.5 24.5t-25.5 71.5zM504 1356q0 -23 22 -23h107q22 0 22 23v108q0 23 -22 23h-107 q-22 0 -22 -23v-108z" />
<glyph unicode="&#xe6;" horiz-adv-x="1785" d="M106 274v113q0 134 74 208.5t207 74.5h59q133 0 353 -39v203q0 110 -111 110h-248q-110 0 -110 -110v-39h-187v36q0 133 70.5 204t204.5 71h293q105 0 182 -84q77 84 180 84h324q133 0 203.5 -70.5t70.5 -204.5v-323h-686v-238q0 -54 29 -82t82 -28h276q111 0 111 110v80 h188v-76q0 -134 -70.5 -204t-203.5 -70h-324q-215 0 -262 174q-162 -174 -332 -174h-98q-134 0 -204.5 70.5t-70.5 203.5zM293 274q0 -54 28.5 -82t81.5 -28h93q131 0 303 110v244h-396q-110 0 -110 -110v-134zM985 647h498v189q0 110 -111 110h-276q-53 0 -82 -28t-29 -82 v-189z" />
<glyph unicode="&#xe7;" horiz-adv-x="1091" d="M129 274v557q0 134 70.5 204.5t203.5 70.5h312q133 0 203.5 -70.5t70.5 -204.5v-90h-186v88q0 54 -28.5 82.5t-82.5 28.5h-266q-53 0 -82 -28.5t-29 -82.5v-553q0 -52 29 -81t82 -29h266q54 0 82.5 28.5t28.5 81.5v89h186v-91q0 -134 -70.5 -204t-203.5 -70h-312 q-133 0 -203.5 70t-70.5 204zM332 -291h303q31 0 31 33v47q0 33 -31 33h-252l51 104h209q73 0 113.5 -37t40.5 -108v-31q0 -72 -40 -109.5t-114 -37.5h-209z" />
<glyph unicode="&#xe8;" horiz-adv-x="1118" d="M129 274v557q0 134 70.5 204.5t203.5 70.5h324q133 0 203.5 -70.5t70.5 -204.5v-323h-686v-240q0 -54 29 -82t82 -28h279q54 0 82 28.5t28 81.5v82h186v-76q0 -134 -70.5 -204t-203.5 -70h-324q-133 0 -203.5 70t-70.5 204zM270 1536h240l184 -295h-145zM315 647h500v191 q0 110 -110 110h-279q-53 0 -82 -28t-29 -82v-191z" />
<glyph unicode="&#xe9;" horiz-adv-x="1118" d="M129 274v557q0 134 70.5 204.5t203.5 70.5h324q133 0 203.5 -70.5t70.5 -204.5v-323h-686v-240q0 -54 29 -82t82 -28h279q54 0 82 28.5t28 81.5v82h186v-76q0 -134 -70.5 -204t-203.5 -70h-324q-133 0 -203.5 70t-70.5 204zM315 647h500v191q0 110 -110 110h-279 q-53 0 -82 -28t-29 -82v-191zM440 1241l185 295h237l-278 -295h-144z" />
<glyph unicode="&#xea;" horiz-adv-x="1118" d="M129 274v557q0 134 70.5 204.5t203.5 70.5h324q133 0 203.5 -70.5t70.5 -204.5v-323h-686v-240q0 -54 29 -82t82 -28h279q54 0 82 28.5t28 81.5v82h186v-76q0 -134 -70.5 -204t-203.5 -70h-324q-133 0 -203.5 70t-70.5 204zM233 1241l244 252h180l244 -252h-182l-152 156 l-151 -156h-183zM315 647h500v191q0 110 -110 110h-279q-53 0 -82 -28t-29 -82v-191z" />
<glyph unicode="&#xeb;" horiz-adv-x="1118" d="M129 274v557q0 134 70.5 204.5t203.5 70.5h324q133 0 203.5 -70.5t70.5 -204.5v-323h-686v-240q0 -54 29 -82t82 -28h279q54 0 82 28.5t28 81.5v82h186v-76q0 -134 -70.5 -204t-203.5 -70h-324q-133 0 -203.5 70t-70.5 204zM287 1241v221h190v-221h-190zM315 647h500v191 q0 110 -110 110h-279q-53 0 -82 -28t-29 -82v-191zM657 1241v221h191v-221h-191z" />
<glyph unicode="&#xec;" horiz-adv-x="505" d="M-47 1536l276 -295h146l-185 295h-237zM160 0v1106h186v-1106h-186z" />
<glyph unicode="&#xed;" horiz-adv-x="505" d="M133 1241l184 295h238l-279 -295h-143zM160 0v1106h186v-1106h-186z" />
<glyph unicode="&#xee;" horiz-adv-x="505" d="M-82 1241h184l150 156l151 -156h185l-246 252h-180zM160 0v1106h186v-1106h-186z" />
<glyph unicode="&#xef;" horiz-adv-x="505" d="M-27 1241v221h189v-221h-189zM160 0v1106h186v-1106h-186zM342 1241v221h190v-221h-190z" />
<glyph unicode="&#xf0;" horiz-adv-x="1146" d="M129 274v478q0 133 71 203.5t203 70.5h109q91 0 164 -43t155 -121v201q1 58 -27 83t-97 48l-121 39l-109 -107h-174l152 150l-195 61v129l307 -80l103 101h174l-137 -135l4 -2q169 -42 238.5 -103.5t68.5 -191.5v-781q0 -133 -70.5 -203.5t-204.5 -70.5h-340 q-133 0 -203.5 70t-70.5 204zM317 276q0 -110 111 -110h293q110 0 110 110v472q-154 110 -303 110h-100q-111 0 -111 -110v-472z" />
<glyph unicode="&#xf1;" d="M152 0v1106h186v-164q85 79 157 121.5t162 42.5h86q133 0 204 -71t71 -204v-831h-187v825q0 111 -110 111h-80q-144 0 -303 -111v-825h-186zM285 1241h110l37 117l295 -115q46 -17 78 -2.5t41 55.5l45 187h-115l-39 -113l-291 111q-50 18 -80.5 3t-39.5 -59z" />
<glyph unicode="&#xf2;" horiz-adv-x="1138" d="M127 274v557q0 134 70.5 204.5t203.5 70.5h336q133 0 204 -71t71 -204v-557q0 -133 -70.5 -203.5t-204.5 -70.5h-336q-133 0 -203.5 70t-70.5 204zM276 1536l279 -295h145l-184 295h-240zM313 276q0 -110 111 -110h289q110 0 110 110v553q0 53 -28 82t-82 29h-289 q-54 0 -82.5 -28.5t-28.5 -82.5v-553z" />
<glyph unicode="&#xf3;" horiz-adv-x="1138" d="M127 274v557q0 134 70.5 204.5t203.5 70.5h336q133 0 204 -71t71 -204v-557q0 -133 -70.5 -203.5t-204.5 -70.5h-336q-133 0 -203.5 70t-70.5 204zM313 276q0 -110 111 -110h289q110 0 110 110v553q0 53 -28 82t-82 29h-289q-54 0 -82.5 -28.5t-28.5 -82.5v-553z M444 1241l185 295h237l-278 -295h-144z" />
<glyph unicode="&#xf4;" horiz-adv-x="1138" d="M127 274v557q0 134 70.5 204.5t203.5 70.5h336q133 0 204 -71t71 -204v-557q0 -133 -70.5 -203.5t-204.5 -70.5h-336q-133 0 -203.5 70t-70.5 204zM238 1241h182l151 156l152 -156h182l-243 252h-181zM313 276q0 -110 111 -110h289q110 0 110 110v553q0 53 -28 82t-82 29 h-289q-54 0 -82.5 -28.5t-28.5 -82.5v-553z" />
<glyph unicode="&#xf5;" horiz-adv-x="1138" d="M127 274v557q0 134 70.5 204.5t203.5 70.5h336q133 0 204 -71t71 -204v-557q0 -133 -70.5 -203.5t-204.5 -70.5h-336q-133 0 -203.5 70t-70.5 204zM270 1241h111l37 117l295 -115q46 -17 77.5 -2.5t40.5 55.5l46 187h-115l-39 -113l-291 111q-50 18 -81 3t-40 -59z M313 276q0 -110 111 -110h289q110 0 110 110v553q0 53 -28 82t-82 29h-289q-54 0 -82.5 -28.5t-28.5 -82.5v-553z" />
<glyph unicode="&#xf6;" horiz-adv-x="1138" d="M127 274v557q0 134 70.5 204.5t203.5 70.5h336q133 0 204 -71t71 -204v-557q0 -133 -70.5 -203.5t-204.5 -70.5h-336q-133 0 -203.5 70t-70.5 204zM291 1241v221h190v-221h-190zM313 276q0 -110 111 -110h289q110 0 110 110v553q0 53 -28 82t-82 29h-289 q-54 0 -82.5 -28.5t-28.5 -82.5v-553zM662 1241v221h190v-221h-190z" />
<glyph unicode="&#xf7;" horiz-adv-x="1040" d="M115 670v176h811v-176h-811zM416 289v223h209v-223h-209zM416 1004v223h209v-223h-209z" />
<glyph unicode="&#xf8;" horiz-adv-x="1142" d="M129 274v557q0 133 71 204t203 71h336q133 0 204 -71t71 -204v-557q0 -133 -70.5 -203.5t-204.5 -70.5h-336q-132 0 -203 70.5t-71 203.5zM317 274q0 -20 7 -45l374 711h-274q-107 0 -107 -109v-557zM449 166h270q108 0 108 108v557q0 17 -4 41z" />
<glyph unicode="&#xf9;" d="M141 274v832h187v-825q0 -111 110 -111h80q148 0 303 111v825h187v-1106h-187v164q-82 -78 -155 -121t-164 -43h-86q-134 0 -204.5 70.5t-70.5 203.5zM279 1536l278 -295h145l-184 295h-239z" />
<glyph unicode="&#xfa;" d="M141 274v832h187v-825q0 -111 110 -111h80q148 0 303 111v825h187v-1106h-187v164q-82 -78 -155 -121t-164 -43h-86q-134 0 -204.5 70.5t-70.5 203.5zM446 1241l185 295h237l-278 -295h-144z" />
<glyph unicode="&#xfb;" d="M141 274v832h187v-825q0 -111 110 -111h80q148 0 303 111v825h187v-1106h-187v164q-82 -78 -155 -121t-164 -43h-86q-134 0 -204.5 70.5t-70.5 203.5zM240 1241h182l151 156l152 -156h182l-243 252h-181z" />
<glyph unicode="&#xfc;" d="M141 274v832h187v-825q0 -111 110 -111h80q148 0 303 111v825h187v-1106h-187v164q-82 -78 -155 -121t-164 -43h-86q-134 0 -204.5 70.5t-70.5 203.5zM293 1241v221h190v-221h-190zM664 1241v221h190v-221h-190z" />
<glyph unicode="&#xfd;" horiz-adv-x="1058" d="M37 1106h196l295 -891l303 891h191l-541 -1475h-178l131 369zM412 1241l184 295h238l-279 -295h-143z" />
<glyph unicode="&#xfe;" horiz-adv-x="1169" d="M152 -369v1905h186v-594q82 78 155 121t164 43h109q133 0 203.5 -70.5t70.5 -204.5v-557q0 -134 -70 -204t-204 -70h-109q-91 0 -164 43t-155 121v-533h-186zM338 276q79 -55 151 -82.5t152 -27.5h100q111 0 111 110v553q0 53 -28 82t-83 29h-100q-143 0 -303 -111v-553z " />
<glyph unicode="&#xff;" horiz-adv-x="1058" d="M37 1106h196l295 -891l303 891h191l-541 -1475h-178l131 369zM258 1241v221h191v-221h-191zM629 1241v221h190v-221h-190z" />
<glyph unicode="&#x152;" horiz-adv-x="2029" d="M150 287v901q0 140 73.5 213.5t212.5 73.5h1487v-181h-731v-450h608v-180h-608v-484h731v-180h-1487q-139 0 -212.5 73.5t-73.5 213.5zM346 293q0 -113 113 -113h536v1114h-536q-113 0 -113 -112v-889z" />
<glyph unicode="&#x153;" horiz-adv-x="1812" d="M127 274v557q0 134 70.5 204.5t203.5 70.5h328q112 0 189 -84q77 84 188 84h315q133 0 204 -71t71 -204v-323h-684v-240q0 -108 106 -108h283q53 0 80.5 28t27.5 80v82h187v-76q0 -133 -70.5 -203.5t-204.5 -70.5h-315q-111 0 -188 84q-77 -84 -189 -84h-328 q-133 0 -203.5 70t-70.5 204zM313 274q0 -108 109 -108h295q106 0 106 108v557q0 109 -106 109h-295q-109 0 -109 -109v-557zM1012 647h497v191q0 108 -108 108h-283q-106 0 -106 -108v-191z" />
<glyph unicode="&#x178;" horiz-adv-x="1239" d="M27 1475h213l383 -748l383 748h208l-495 -953v-522h-197v522zM342 1610v221h190v-221h-190zM713 1610v221h190v-221h-190z" />
<glyph unicode="&#x2c6;" horiz-adv-x="1351" d="M342 1610h182l152 155l151 -155h183l-244 252h-180z" />
<glyph unicode="&#x2dc;" horiz-adv-x="1249" d="M322 1610h110l37 116l295 -114q46 -17 78 -2.5t41 55.5l45 186h-115l-39 -112l-291 110q-50 18 -81 3t-40 -58z" />
<glyph unicode="&#x2000;" horiz-adv-x="974" />
<glyph unicode="&#x2001;" horiz-adv-x="1948" />
<glyph unicode="&#x2002;" horiz-adv-x="974" />
<glyph unicode="&#x2003;" horiz-adv-x="1948" />
<glyph unicode="&#x2004;" horiz-adv-x="649" />
<glyph unicode="&#x2005;" horiz-adv-x="487" />
<glyph unicode="&#x2006;" horiz-adv-x="324" />
<glyph unicode="&#x2007;" horiz-adv-x="324" />
<glyph unicode="&#x2008;" horiz-adv-x="243" />
<glyph unicode="&#x2009;" horiz-adv-x="389" />
<glyph unicode="&#x200a;" horiz-adv-x="108" />
<glyph unicode="&#x2010;" horiz-adv-x="880" d="M123 586v180h635v-180h-635z" />
<glyph unicode="&#x2011;" horiz-adv-x="880" d="M123 586v180h635v-180h-635z" />
<glyph unicode="&#x2012;" horiz-adv-x="880" d="M123 586v180h635v-180h-635z" />
<glyph unicode="&#x2013;" horiz-adv-x="1144" d="M123 586v180h901v-180h-901z" />
<glyph unicode="&#x2014;" horiz-adv-x="1656" d="M123 586v178h1411v-178h-1411z" />
<glyph unicode="&#x2018;" horiz-adv-x="477" d="M131 981v184q0 7 1.5 16t3.5 17t6.5 18.5l7.5 17.5t9.5 19.5t10 18.5t11.5 19t11 17.5t11 18t10 16.5l80 132h98l-135 -261h90v-233h-215z" />
<glyph unicode="&#x2019;" horiz-adv-x="477" d="M86 981l135 260h-90v234h215v-183q0 -15 -5 -32.5t-16 -39t-18.5 -35t-24 -40t-20.5 -33.5l-80 -131h-96z" />
<glyph unicode="&#x201a;" horiz-adv-x="477" d="M86 -260l135 260h-90v233h215v-182q0 -15 -5 -32.5t-16 -39t-18.5 -35t-24 -40t-20.5 -33.5l-80 -131h-96z" />
<glyph unicode="&#x201c;" horiz-adv-x="821" d="M131 981v184q0 7 1.5 16t3.5 17t6.5 18.5l7.5 17.5t9.5 19.5t10 18.5t11.5 19t11 17.5t11 18t10 16.5l80 132h98l-135 -261h90v-233h-215zM475 981v184q0 11 2.5 23t8.5 26t11 25t15 28t15.5 25.5t17 27t14.5 23.5l80 132h96l-133 -261h90v-233h-217z" />
<glyph unicode="&#x201d;" horiz-adv-x="821" d="M86 981l135 260h-90v234h215v-183q0 -15 -5 -32.5t-16 -39t-18.5 -35t-24 -40t-20.5 -33.5l-80 -131h-96zM432 981l133 260h-90v234h217v-183q0 -15 -5 -32.5t-16 -39t-18.5 -35t-24 -40t-20.5 -33.5l-80 -131h-96z" />
<glyph unicode="&#x201e;" horiz-adv-x="477" d="M86 -260l135 260h-90v233h215v-182q0 -15 -5 -32.5t-16 -39t-18.5 -35t-24 -40t-20.5 -33.5l-80 -131h-96z" />
<glyph unicode="&#x2022;" horiz-adv-x="876" d="M236 711v102q0 74 39 113t112 39h102q73 0 112.5 -39.5t39.5 -112.5v-102q0 -73 -39.5 -112.5t-112.5 -39.5h-102q-73 0 -112 39t-39 113z" />
<glyph unicode="&#x2026;" horiz-adv-x="1349" d="M131 0v233h215v-233h-215zM567 0v233h215v-233h-215zM1004 0v233h217v-233h-217z" />
<glyph unicode="&#x202f;" horiz-adv-x="389" />
<glyph unicode="&#x2039;" horiz-adv-x="571" d="M49 674v90l262 381h197l-293 -426l293 -424h-197z" />
<glyph unicode="&#x203a;" horiz-adv-x="571" d="M66 295l292 424l-292 426h196l262 -381v-90l-262 -379h-196z" />
<glyph unicode="&#x205f;" horiz-adv-x="487" />
<glyph unicode="&#x20ac;" horiz-adv-x="1374" d="M70 510v135h163v195h-163v137h163v211q0 140 73.5 213.5t213.5 73.5h443q139 0 212.5 -73.5t73.5 -213.5v-182h-196v176q0 112 -111 112h-399q-113 0 -113 -112v-205h471v-137h-471v-195h471v-135h-471v-217q0 -113 113 -113h399q111 0 111 113v176h196v-182 q0 -140 -73.5 -213.5t-212.5 -73.5h-443q-140 0 -213.5 74t-73.5 213v223h-163z" />
<glyph unicode="&#x2122;" horiz-adv-x="1538" d="M109 1372v103h522v-103h-205v-635h-113v635h-204zM752 737v738h125l213 -482l217 482h123v-738h-103v553l-194 -438h-80l-199 438v-553h-102z" />
<glyph unicode="&#x25fc;" horiz-adv-x="1105" d="M0 0v1106h1106v-1106h-1106z" />
</font>
</defs>
</svg>
