<?xml version="1.0" standalone="no"?>
<!DOCTYPE svg PUBLIC "-//W3C//DTD SVG 1.1//EN" "http://www.w3.org/Graphics/SVG/1.1/DTD/svg11.dtd" >
<svg xmlns="http://www.w3.org/2000/svg">
<metadata></metadata>
<defs>
<font id="industrydemi" horiz-adv-x="1335" >
<font-face units-per-em="2048" ascent="1638" descent="-410" />
<missing-glyph horiz-adv-x="491" />
<glyph unicode="&#xfb01;" horiz-adv-x="1300" d="M55 907v199h170v160q0 132 69.5 201t201.5 69h215v-182h-174q-37 0 -57.5 -20.5t-20.5 -57.5v-170h272v-199h-270v-907h-236v907h-170zM911 1298v238h252v-238h-252zM920 0v1106h235v-1106h-235z" />
<glyph unicode="&#xfb02;" horiz-adv-x="1294" d="M55 907v199h170v160q0 132 69.5 201t201.5 69h215v-182h-174q-37 0 -57.5 -20.5t-20.5 -57.5v-170h272v-199h-270v-907h-236v907h-170zM918 0v1536h235v-1536h-235z" />
<glyph horiz-adv-x="2048" />
<glyph horiz-adv-x="2048" />
<glyph unicode="&#xd;" horiz-adv-x="2048" />
<glyph unicode=" "  horiz-adv-x="491" />
<glyph unicode="&#x09;" horiz-adv-x="491" />
<glyph unicode="&#xa0;" horiz-adv-x="491" />
<glyph unicode="!" horiz-adv-x="579" d="M154 1475h272l-55 -1008h-162zM166 0v264h248v-264h-248z" />
<glyph unicode="&#x22;" horiz-adv-x="880" d="M121 1475h260l-66 -506h-127zM500 1475h260l-68 -506h-125z" />
<glyph unicode="#" horiz-adv-x="1599" d="M76 383v213h272l96 307h-227v213h293l111 359h229l-111 -359h348l111 359h232l-111 -359h205v-213h-273l-94 -307h225v-213h-292l-119 -383h-230l119 383h-348l-119 -383h-229l119 383h-207zM578 596h348l96 307h-348z" />
<glyph unicode="$" horiz-adv-x="1282" d="M133 287v172h240v-162q0 -78 76 -78h108v428l-129 29q-71 16 -120 35.5t-91 52.5t-63 84.5t-21 122.5v217q0 140 73.5 213.5t213.5 73.5h117v202h200v-202h105q139 0 212.5 -73.5t73.5 -213.5v-156h-241v146q0 77 -76 77h-94v-405l139 -31q57 -13 98 -27t80.5 -37.5 t63.5 -54t38.5 -75t14.5 -101.5v-237q0 -139 -73.5 -213t-213.5 -74h-127v-203h-200v203h-117q-140 0 -213.5 74t-73.5 213zM379 1006q0 -48 21 -69.5t75 -33.5l82 -18v370h-100q-78 0 -78 -77v-172zM717 219h112q76 0 76 78v192q0 48 -20.5 68.5t-75.5 32.5l-92 20v-391z " />
<glyph unicode="%" horiz-adv-x="1280" d="M88 1055v274q0 72 37 109t108 37h168q71 0 108.5 -37t37.5 -109v-274q0 -146 -146 -146h-168q-70 0 -107.5 37.5t-37.5 108.5zM188 0l703 1475h199l-701 -1475h-201zM225 1077q0 -41 41 -41h103q41 0 41 41v230q0 41 -41 41h-103q-41 0 -41 -41v-230zM733 145v275 q0 145 144 145h170q69 0 106 -36.5t37 -108.5v-275q0 -145 -143 -145h-170q-69 0 -106.5 37.5t-37.5 107.5zM868 168q0 -41 41 -41h105q41 0 41 41v229q0 41 -41 41h-105q-41 0 -41 -41v-229z" />
<glyph unicode="&#x26;" horiz-adv-x="1347" d="M131 287v248q0 154 148 221q-132 70 -132 221v211q0 140 73.5 213.5t213.5 73.5h367q139 0 212.5 -73.5t73.5 -213.5v-135h-245v123q0 75 -76 75h-295q-78 0 -78 -75v-234q0 -78 78 -78h827v-219h-153v-358q0 -139 -73.5 -213t-213.5 -74h-440q-140 0 -213.5 74 t-73.5 213zM377 299q0 -76 78 -76h366q78 0 78 76v346h-444q-78 0 -78 -76v-270z" />
<glyph unicode="'" horiz-adv-x="503" d="M121 1475h260l-66 -506h-127z" />
<glyph unicode="(" horiz-adv-x="770" d="M178 70v1249q0 139 74 213t213 74h186v-226h-149q-78 0 -78 -75v-1221q0 -76 78 -76h149v-225h-186q-139 0 -213 73.5t-74 213.5z" />
<glyph unicode=")" horiz-adv-x="770" d="M117 8h151q76 0 76 76v1221q0 75 -76 75h-151v226h186q139 0 213 -74t74 -213v-1249q0 -140 -74 -213.5t-213 -73.5h-186v225z" />
<glyph unicode="*" horiz-adv-x="847" d="M43 1128l59 189l273 -143l-49 301h196l-49 -301l268 141l64 -189l-303 -45l217 -213l-160 -116l-137 274l-133 -272l-162 114l217 215z" />
<glyph unicode="+" horiz-adv-x="1040" d="M121 653v209h295v281h209v-281h295v-209h-295v-280h-209v280h-295z" />
<glyph unicode="," horiz-adv-x="493" d="M76 -266l145 266h-100v266h252v-203q0 -59 -90 -184l-101 -145h-106z" />
<glyph unicode="-" horiz-adv-x="892" d="M113 563v221h667v-221h-667z" />
<glyph unicode="." horiz-adv-x="493" d="M121 0v266h252v-266h-252z" />
<glyph unicode="/" horiz-adv-x="1030" d="M35 -143l725 1761h235l-725 -1761h-235z" />
<glyph unicode="0" horiz-adv-x="1300" d="M139 287v901q0 140 73.5 213.5t213.5 73.5h448q140 0 213.5 -73.5t73.5 -213.5v-901q0 -139 -73.5 -213t-213.5 -74h-448q-140 0 -213.5 74t-73.5 213zM385 301q0 -76 76 -76h379q75 0 75 76v873q0 75 -75 75h-379q-76 0 -76 -75v-873z" />
<glyph unicode="1" horiz-adv-x="800" d="M90 1122v209l309 144h199v-1475h-246v1219z" />
<glyph unicode="2" horiz-adv-x="1234" d="M125 0h1003v225h-757v195q0 21 6 35.5t22.5 26.5t30.5 18.5t45 19.5l354 142q78 30 125.5 54.5t89.5 58.5t61 78.5t19 102.5v232q0 140 -73.5 213.5t-212.5 73.5h-408q-140 0 -213.5 -73.5t-73.5 -213.5v-152h240v138q0 75 78 75h342q76 0 76 -75v-175q0 -21 -6 -35.5 t-22 -26.5t-30.5 -19t-44.5 -19l-356 -141q-77 -30 -124.5 -54.5t-90 -59t-61.5 -79t-19 -102.5v-463z" />
<glyph unicode="3" horiz-adv-x="1245" d="M109 287v143h245v-131q0 -76 78 -76h365q77 0 77 76v270q0 76 -77 76h-353v219h336q78 0 78 78v234q0 75 -78 75h-331q-78 0 -78 -75v-132h-246v144q0 140 73.5 213.5t213.5 73.5h405q139 0 213 -73.5t74 -213.5v-213q0 -149 -131 -219q147 -66 147 -221v-248 q0 -140 -73.5 -213.5t-212.5 -73.5h-439q-139 0 -212.5 73.5t-73.5 213.5z" />
<glyph unicode="4" horiz-adv-x="1306" d="M55 506l762 969h223v-936h209v-220h-209v-319h-239v319h-705zM354 539h447v583z" />
<glyph unicode="5" horiz-adv-x="1267" d="M133 287v145h246v-131q0 -76 76 -76h362q76 0 76 76v365q0 75 -76 75h-139q-135 0 -283 -88l-245 66v756h956v-226h-711v-454q66 74 139 121t168 47h150q140 0 213.5 -73.5t73.5 -213.5v-383q0 -140 -76 -216.5t-215 -76.5h-428q-140 0 -213.5 74t-73.5 213z" />
<glyph unicode="6" horiz-adv-x="1280" d="M139 287v901q0 140 73.5 213.5t213.5 73.5h416q139 0 212.5 -73.5t73.5 -213.5v-129h-245v115q0 75 -78 75h-344q-76 0 -76 -75v-420q139 168 307 168h166q140 0 213.5 -74t73.5 -213v-348q0 -139 -73.5 -213t-213.5 -74h-432q-140 0 -213.5 74t-73.5 213zM385 301 q0 -76 76 -76h362q76 0 76 76v326q0 75 -76 75h-155q-138 0 -283 -88v-313z" />
<glyph unicode="7" horiz-adv-x="1165" d="M80 1251v224h1026v-175l-684 -1300h-266l661 1251h-737z" />
<glyph unicode="8" horiz-adv-x="1275" d="M127 287v248q0 157 147 219q-131 71 -131 219v215q0 140 73.5 213.5t213.5 73.5h418q140 0 213.5 -73.5t73.5 -213.5v-215q0 -146 -131 -219q73 -32 110 -88.5t37 -130.5v-248q0 -139 -73.5 -213t-213.5 -74h-450q-140 0 -213.5 74t-73.5 213zM373 299q0 -76 76 -76h378 q78 0 78 76v270q0 76 -78 76h-378q-76 0 -76 -76v-270zM389 938q0 -76 76 -76h346q78 0 78 76v238q0 75 -78 75h-346q-76 0 -76 -75v-238z" />
<glyph unicode="9" horiz-adv-x="1280" d="M133 848v340q0 140 73.5 213.5t213.5 73.5h434q140 0 213.5 -73.5t73.5 -213.5v-901q0 -139 -73.5 -213t-213.5 -74h-416q-139 0 -212.5 73.5t-73.5 213.5v129h245v-115q0 -76 76 -76h346q76 0 76 76v428q-66 -74 -139 -121t-168 -47h-168q-140 0 -213.5 73.5 t-73.5 213.5zM379 858q0 -76 78 -76h155q138 0 283 88v304q0 75 -76 75h-362q-78 0 -78 -75v-316z" />
<glyph unicode=":" horiz-adv-x="493" d="M121 0v266h252v-266h-252zM121 840v266h252v-266h-252z" />
<glyph unicode=";" horiz-adv-x="493" d="M76 -266l145 266h-100v266h252v-203q0 -59 -90 -184l-101 -145h-106zM121 840v266h252v-266h-252z" />
<glyph unicode="&#x3c;" horiz-adv-x="1040" d="M113 645l790 -358v213l-569 243l569 246v213l-790 -360v-197z" />
<glyph unicode="=" horiz-adv-x="1040" d="M121 457v219h799v-219h-799zM121 856v219h799v-219h-799z" />
<glyph unicode="&#x3e;" horiz-adv-x="1040" d="M137 287l791 358v197l-791 360v-213l570 -246l-570 -243v-213z" />
<glyph unicode="?" horiz-adv-x="1150" d="M43 1032v156q0 140 73.5 213.5t213.5 73.5h452q140 0 213.5 -73.5t73.5 -213.5v-213q0 -28 -9 -54.5t-20 -47t-36.5 -44.5t-43 -38.5t-56 -38.5t-59 -35.5t-67.5 -38.5l-73 -41q-53 -30 -74 -49t-21 -43v-125h-245v164q0 27 9.5 53.5t20 46t38 44t43 38t57.5 39.5 t59 35.5t67 38.5l70 43q54 29 74 49t20 49v154q0 75 -75 75h-381q-78 0 -78 -75v-142h-246zM365 0v270h245v-270h-245z" />
<glyph unicode="@" horiz-adv-x="1970" d="M174 -82v1270q0 140 74 213.5t213 73.5h1046q139 0 213 -73.5t74 -213.5v-803q0 -139 -74 -213t-213 -74h-303l-41 148q-63 -75 -131 -115.5t-176 -40.5h-29q-139 0 -212.5 73.5t-73.5 213.5v356q0 140 73.5 213.5t212.5 73.5h29q108 0 176 -40.5t131 -115.5l41 148h191 v-776h108q62 0 89.5 34.5t27.5 116.5v809q0 115 -115 115h-1040q-115 0 -115 -115v-1286q0 -115 115 -115h1042v-164h-1046q-139 0 -213 74.5t-74 212.5zM772 365q0 -82 82 -82h53q128 0 256 98v348q-128 98 -256 98h-53q-82 0 -82 -82v-380z" />
<glyph unicode="A" horiz-adv-x="1353" d="M43 0l487 1475h293l490 -1475h-271l-110 365h-520l-111 -365h-258zM479 590h385l-192 635z" />
<glyph unicode="B" horiz-adv-x="1333" d="M174 0v1475h729q139 0 213 -73.5t74 -213.5v-215q0 -148 -131 -219q147 -62 147 -219v-248q0 -140 -73.5 -213.5t-212.5 -73.5h-746zM420 223h465q76 0 76 76v272q0 76 -76 76h-465v-424zM420 860h448q76 0 76 78v238q0 75 -76 75h-448v-391z" />
<glyph unicode="C" horiz-adv-x="1282" d="M139 287v901q0 140 73.5 213.5t213.5 73.5h459q139 0 212.5 -73.5t73.5 -213.5v-207h-245v193q0 75 -78 75h-387q-76 0 -76 -75v-873q0 -76 76 -76h387q78 0 78 76v193h245v-207q0 -140 -73.5 -213.5t-212.5 -73.5h-459q-140 0 -213.5 74t-73.5 213z" />
<glyph unicode="D" horiz-adv-x="1351" d="M174 0v1475h752q139 0 212.5 -73.5t73.5 -213.5v-901q0 -140 -73.5 -213.5t-212.5 -73.5h-752zM420 225h471q76 0 76 76v873q0 75 -76 75h-471v-1024z" />
<glyph unicode="E" horiz-adv-x="1222" d="M174 0v1475h944v-226h-698v-385h575v-221h-575v-418h698v-225h-944z" />
<glyph unicode="F" horiz-adv-x="1185" d="M174 0v1475h944v-226h-698v-397h575v-223h-575v-629h-246z" />
<glyph unicode="G" horiz-adv-x="1320" d="M139 287v901q0 140 73.5 213.5t213.5 73.5h475q139 0 213 -73.5t74 -213.5v-170h-246v156q0 75 -76 75h-405q-76 0 -76 -75v-873q0 -76 76 -76h405q76 0 76 76v283h-305v217h551v-514q0 -139 -74 -213t-213 -74h-475q-140 0 -213.5 74t-73.5 213z" />
<glyph unicode="H" horiz-adv-x="1421" d="M174 0v1475h246v-609h581v609h246v-1475h-246v641h-581v-641h-246z" />
<glyph unicode="I" horiz-adv-x="591" d="M174 0v1475h246v-1475h-246z" />
<glyph unicode="J" horiz-adv-x="1212" d="M68 287v288h245v-274q0 -76 76 -76h344q76 0 76 76v1174h246v-1188q0 -139 -73.5 -213t-213.5 -74h-414q-139 0 -212.5 73.5t-73.5 213.5z" />
<glyph unicode="K" horiz-adv-x="1327" d="M166 0v1475h246v-611h137l446 611h281l-526 -721l548 -754h-290l-459 643h-137v-643h-246z" />
<glyph unicode="L" horiz-adv-x="1136" d="M174 0v1475h246v-1250h647v-225h-893z" />
<glyph unicode="M" horiz-adv-x="1728" d="M174 0v1475h277l413 -932l414 932h276v-1475h-239v1057l-361 -840h-188l-360 840v-1057h-232z" />
<glyph unicode="N" horiz-adv-x="1456" d="M174 0v1475h258l621 -1063v1063h231v-1475h-242l-639 1092v-1092h-229z" />
<glyph unicode="O" d="M139 287v901q0 140 73.5 213.5t213.5 73.5h485q139 0 213 -73.5t74 -213.5v-901q0 -139 -74 -213t-213 -74h-485q-140 0 -213.5 74t-73.5 213zM385 301q0 -76 76 -76h413q78 0 78 76v873q0 75 -78 75h-413q-76 0 -76 -75v-873z" />
<glyph unicode="P" horiz-adv-x="1286" d="M174 0v1475h737q139 0 213 -73.5t74 -213.5v-363q0 -139 -73.5 -212.5t-213.5 -73.5h-491v-539h-246zM420 764h457q75 0 75 78v332q0 75 -75 75h-457v-485z" />
<glyph unicode="Q" d="M139 287v901q0 140 73.5 213.5t213.5 73.5h485q139 0 213 -73.5t74 -213.5v-901q0 -139 -74 -213t-213 -74h-118v-260h-246v260h-121q-140 0 -213.5 74t-73.5 213zM385 301q0 -76 76 -76h413q78 0 78 76v873q0 75 -78 75h-413q-76 0 -76 -75v-873z" />
<glyph unicode="R" d="M174 0v1475h735q139 0 213 -73.5t74 -213.5v-332q0 -122 -57 -194t-166 -89l268 -573h-266l-264 569h-291v-569h-246zM420 788h454q76 0 76 76v312q0 75 -76 75h-454v-463z" />
<glyph unicode="S" horiz-adv-x="1282" d="M129 287v172h242v-162q0 -78 75 -78h383q76 0 76 78v192q0 48 -20.5 68.5t-75.5 32.5l-381 86q-71 16 -120 35.5t-91 52.5t-63 84.5t-21 122.5v217q0 140 73.5 213.5t213.5 73.5h422q139 0 212.5 -73.5t73.5 -213.5v-156h-241v146q0 77 -76 77h-354q-78 0 -78 -77v-172 q0 -48 21 -69.5t75 -33.5l381 -84q57 -13 98 -27t80.5 -37.5t63.5 -54t38.5 -75t14.5 -101.5v-237q0 -139 -73.5 -213t-213.5 -74h-448q-140 0 -213.5 74t-73.5 213z" />
<glyph unicode="T" horiz-adv-x="1165" d="M55 1251v224h1053v-224h-403v-1251h-246v1251h-404z" />
<glyph unicode="U" horiz-adv-x="1361" d="M156 287v1188h245v-1174q0 -76 78 -76h406q76 0 76 76v1174h245v-1188q0 -140 -73.5 -213.5t-212.5 -73.5h-478q-139 0 -212.5 73.5t-73.5 213.5z" />
<glyph unicode="V" horiz-adv-x="1296" d="M45 1475h268l338 -1205l340 1205h260l-460 -1475h-285z" />
<glyph unicode="W" horiz-adv-x="1890" d="M45 1475h258l270 -1158l271 1158h213l270 -1158l270 1158h248l-389 -1475h-258l-248 1065l-248 -1065h-268z" />
<glyph unicode="X" horiz-adv-x="1282" d="M39 0l459 750l-447 725h277l319 -525l320 525h264l-455 -725l467 -750h-276l-334 547l-332 -547h-262z" />
<glyph unicode="Y" horiz-adv-x="1247" d="M18 1475h267l340 -705l340 705h262l-482 -959v-516h-245v516z" />
<glyph unicode="Z" horiz-adv-x="1222" d="M102 0v184l717 1071h-680v220h981v-185l-717 -1071h713v-219h-1014z" />
<glyph unicode="[" horiz-adv-x="761" d="M178 -217v1823h465v-226h-219v-1372h219v-225h-465z" />
<glyph unicode="\" horiz-adv-x="1030" d="M35 1618h235l725 -1761h-235z" />
<glyph unicode="]" horiz-adv-x="761" d="M117 8h219v1372h-219v226h465v-1823h-465v225z" />
<glyph unicode="^" horiz-adv-x="1318" d="M150 717l380 758h258l381 -758h-243l-267 530l-266 -530h-243z" />
<glyph unicode="_" horiz-adv-x="1165" d="M12 -92h1141v-209h-1141v209z" />
<glyph unicode="`" horiz-adv-x="978" d="M244 1905l291 -295h190l-184 295h-297z" />
<glyph unicode="a" horiz-adv-x="1130" d="M92 270v115q0 132 76.5 208.5t208.5 76.5h61q140 0 326 -39v198q0 37 -20 57.5t-58 20.5h-246q-38 0 -58 -20.5t-20 -57.5v-51h-233v58q0 132 69 201t201 69h330q132 0 201 -69t69 -201v-836h-235v168q-139 -168 -307 -168h-95q-132 0 -201 69t-69 201zM326 281 q0 -78 77 -78h89q129 0 272 92v199h-361q-77 0 -77 -78v-135z" />
<glyph unicode="b" horiz-adv-x="1171" d="M141 0v1536h236v-598q33 35 59 59.5t65.5 52t85.5 42t97 14.5h96q132 0 201.5 -69t69.5 -201v-566q0 -132 -69.5 -201t-201.5 -69h-96q-51 0 -97 14.5t-85.5 42t-65.5 52t-59 59.5v-168h-236zM377 299q141 -92 272 -92h90q37 0 57.5 20t20.5 58v536q0 38 -20.5 58 t-57.5 20h-90q-131 0 -272 -92v-508z" />
<glyph unicode="c" horiz-adv-x="1089" d="M121 270v566q0 132 69 201t201 69h332q132 0 201 -69t69 -201v-115h-233v100q0 38 -20.5 58t-57.5 20h-250q-37 0 -57.5 -20t-20.5 -58v-536q0 -38 20.5 -58t57.5 -20h250q37 0 57.5 20t20.5 58v100h233v-115q0 -132 -69 -201t-201 -69h-332q-132 0 -201 69t-69 201z" />
<glyph unicode="d" horiz-adv-x="1171" d="M121 270v566q0 132 69 201t201 69h96q51 0 97 -14.5t85.5 -42t66.5 -52t59 -59.5v598h235v-1536h-235v168q-32 -35 -59 -59.5t-66.5 -52t-85.5 -42t-97 -14.5h-96q-132 0 -201 69t-69 201zM354 285q0 -38 20.5 -58t57.5 -20h90q132 0 273 92v508q-141 92 -273 92h-90 q-37 0 -57.5 -20t-20.5 -58v-536z" />
<glyph unicode="e" horiz-adv-x="1124" d="M121 270v566q0 132 69 201t201 69h352q132 0 201.5 -69t69.5 -201v-347h-660v-217q0 -77 78 -77h270q78 0 78 77v84h234v-86q0 -132 -69.5 -201t-201.5 -69h-352q-132 0 -201 69t-69 201zM354 655h426v179q0 77 -78 77h-270q-78 0 -78 -77v-179z" />
<glyph unicode="f" horiz-adv-x="774" d="M55 907v199h172v160q0 132 69 201t202 69h213v-182h-172q-38 0 -58 -20.5t-20 -57.5v-170h270v-199h-270v-907h-236v907h-170z" />
<glyph unicode="g" horiz-adv-x="1171" d="M121 285v551q0 132 69 201t201 69h96q51 0 97 -14.5t85.5 -42t66.5 -52t59 -59.5v170h235v-1206q0 -132 -69 -201.5t-201 -69.5h-508v191h471q72 0 72 74v286q-32 -35 -59 -59.5t-66.5 -52t-85.5 -42t-97 -14.5h-96q-132 0 -201 69.5t-69 201.5zM354 297q0 -36 20.5 -56 t57.5 -22h90q127 0 273 92v496q-141 92 -273 92h-90q-37 0 -57.5 -20t-20.5 -58v-524z" />
<glyph unicode="h" horiz-adv-x="1163" d="M141 0v1536h236v-598q33 35 59 59.5t65.5 52t85.5 42t97 14.5h78q132 0 201 -69t69 -201v-836h-235v817q0 37 -20 57.5t-58 20.5h-70q-126 0 -272 -92v-803h-236z" />
<glyph unicode="i" horiz-adv-x="526" d="M137 1298v238h252v-238h-252zM145 0v1106h236v-1106h-236z" />
<glyph unicode="j" horiz-adv-x="526" d="M-68 -209l142 68q71 28 71 84v1163h236v-1169q0 -123 -65.5 -182t-204.5 -87l-179 -37v160zM137 1298v238h252v-238h-252z" />
<glyph unicode="k" horiz-adv-x="1101" d="M141 0v1536h234v-866h102l326 436h258l-399 -537l419 -569h-268l-340 469h-98v-469h-234z" />
<glyph unicode="l" horiz-adv-x="522" d="M143 0v1536h236v-1536h-236z" />
<glyph unicode="m" horiz-adv-x="1751" d="M141 0v1106h236v-168q33 35 59 59.5t65.5 52t85.5 42t97 14.5h43q216 0 260 -176q158 176 318 176h45q132 0 201 -69t69 -201v-836h-236v819q0 78 -77 78h-35q-132 0 -275 -92v-805h-233v819q0 37 -20.5 57.5t-57.5 20.5h-37q-131 0 -272 -92v-805h-236z" />
<glyph unicode="n" horiz-adv-x="1163" d="M141 0v1106h236v-168q33 35 59 59.5t65.5 52t85.5 42t97 14.5h78q132 0 201 -69t69 -201v-836h-235v817q0 37 -20 57.5t-58 20.5h-70q-126 0 -272 -92v-803h-236z" />
<glyph unicode="o" horiz-adv-x="1142" d="M119 270v566q0 132 69.5 201t200.5 69h365q132 0 201 -69t69 -201v-566q0 -132 -69 -201t-201 -69h-365q-131 0 -200.5 70t-69.5 200zM354 285q0 -78 78 -78h281q37 0 57.5 20t20.5 58v536q0 38 -20.5 58t-57.5 20h-281q-78 0 -78 -78v-536z" />
<glyph unicode="p" horiz-adv-x="1171" d="M141 -369v1475h236v-168q33 35 59 59.5t65.5 52t85.5 42t97 14.5h96q132 0 201.5 -69t69.5 -201v-566q0 -132 -69.5 -201t-201.5 -69h-96q-51 0 -97 14.5t-85.5 42t-65.5 52t-59 59.5v-537h-236zM377 299q141 -92 272 -92h90q37 0 57.5 20t20.5 58v536q0 38 -20.5 58 t-57.5 20h-90q-131 0 -272 -92v-508z" />
<glyph unicode="q" horiz-adv-x="1171" d="M121 270v566q0 132 69 201t201 69h96q51 0 97 -14.5t85.5 -42t66.5 -52t59 -59.5v168h235v-1475h-235v537q-32 -35 -59 -59.5t-66.5 -52t-85.5 -42t-97 -14.5h-96q-132 0 -201 69t-69 201zM354 285q0 -38 20.5 -58t57.5 -20h90q132 0 273 92v508q-141 92 -273 92h-90 q-37 0 -57.5 -20t-20.5 -58v-536z" />
<glyph unicode="r" horiz-adv-x="837" d="M141 0v1106h236v-168q31 34 57 57.5t65.5 52t86.5 43.5t98 15h104v-219h-139q-121 0 -272 -92v-795h-236z" />
<glyph unicode="s" horiz-adv-x="1071" d="M94 270v82h232v-86q0 -78 77 -78h265q77 0 77 78v101q0 39 -17 55.5t-66 23.5l-314 52q-125 21 -182 75.5t-57 161.5v101q0 132 69 201t201 69h301q132 0 201 -69t69 -201v-64h-229v68q0 38 -20.5 58t-57.5 20h-225q-37 0 -57.5 -20t-20.5 -58v-74q0 -38 18 -55t66 -25 l313 -51q126 -21 183 -76t57 -162v-127q0 -132 -69 -201t-201 -69h-342q-132 0 -201.5 69t-69.5 201z" />
<glyph unicode="t" horiz-adv-x="772" d="M47 907v199h168v328h229v-328h263v-199h-261v-633q0 -37 20.5 -57t57.5 -20h183v-197h-224q-131 0 -200.5 69t-69.5 201v637h-166z" />
<glyph unicode="u" horiz-adv-x="1163" d="M131 270v836h236v-817q0 -78 77 -78h70q129 0 272 92v803h236v-1106h-236v168q-31 -35 -57.5 -59.5t-65.5 -52t-85.5 -42t-98.5 -14.5h-78q-132 0 -201 69t-69 201z" />
<glyph unicode="v" horiz-adv-x="1071" d="M35 1106h248l258 -901l258 901h239l-368 -1106h-267z" />
<glyph unicode="w" horiz-adv-x="1583" d="M35 1106h250l200 -856l199 856h229l199 -856l201 856h235l-313 -1106h-248l-188 827l-189 -827h-250z" />
<glyph unicode="x" horiz-adv-x="1060" d="M33 0l368 561l-364 545h254l244 -373l243 373h238l-363 -547l375 -559h-254l-252 381l-252 -381h-237z" />
<glyph unicode="y" horiz-adv-x="1087" d="M35 1106h250l262 -850l266 850h240l-525 -1475h-225l125 369z" />
<glyph unicode="z" horiz-adv-x="968" d="M72 0v162l532 745h-512v199h797v-160l-535 -747h541v-199h-823z" />
<glyph unicode="{" horiz-adv-x="886" d="M96 598v211h123q76 0 76 80v430q0 139 73.5 213t213.5 74h186v-226h-150q-77 0 -77 -75v-404q0 -131 -123 -199q123 -68 123 -198v-420q0 -76 77 -76h150v-225h-186q-140 0 -213.5 73.5t-73.5 213.5v448q0 80 -76 80h-123z" />
<glyph unicode="|" horiz-adv-x="686" d="M233 -442v2054h220v-2054h-220z" />
<glyph unicode="}" horiz-adv-x="886" d="M117 8h151q76 0 76 76v420q0 130 123 198q-123 71 -123 199v404q0 75 -76 75h-151v226h186q139 0 213 -74t74 -213v-430q0 -80 78 -80h120v-211h-120q-78 0 -78 -80v-448q0 -140 -74 -213.5t-213 -73.5h-186v225z" />
<glyph unicode="~" horiz-adv-x="1040" d="M147 537h140l43 104l364 -90q93 -22 123 61l76 205h-143l-43 -100l-363 86q-95 22 -125 -64z" />
<glyph unicode="&#xa1;" horiz-adv-x="579" d="M154 -369l55 1008h162l55 -1008h-272zM166 842v264h248v-264h-248z" />
<glyph unicode="&#xa2;" horiz-adv-x="1173" d="M125 485v516q0 139 73.5 213t213.5 74h84v187h194v-187h76q140 0 213.5 -74t73.5 -213v-112h-228v110q0 76 -75 76h-72v-663h72q75 0 75 75v111h228v-113q0 -139 -73.5 -212.5t-213.5 -73.5h-76v-199h-194v199h-84q-140 0 -213.5 73.5t-73.5 212.5zM352 487q0 -75 76 -75 h80v663h-80q-76 0 -76 -76v-512z" />
<glyph unicode="&#xa3;" horiz-adv-x="1282" d="M59 0v225h127q41 0 41 41v336h-168v221h168v365q0 140 73.5 213.5t213.5 73.5h358q140 0 213.5 -73.5t73.5 -213.5v-178h-246v164q0 75 -75 75h-287q-78 0 -78 -75v-351h344v-221h-344v-377h694v-225h-1108z" />
<glyph unicode="&#xa4;" horiz-adv-x="1234" d="M57 303l162 162q-18 55 -18 125v328q0 64 16 120l-160 160l148 148l160 -160q52 18 122 18h261q70 0 122 -18l160 160l148 -148l-160 -160q16 -56 16 -120v-328q0 -70 -18 -125l162 -162l-148 -147l-164 163q-56 -16 -118 -16h-261q-62 0 -118 16l-164 -163zM416 580 q0 -78 76 -78h251q76 0 76 78v348q0 78 -76 78h-251q-76 0 -76 -78v-348z" />
<glyph unicode="&#xa5;" horiz-adv-x="1247" d="M18 1475h267l340 -705l340 705h262l-393 -783h237v-137h-305l-21 -39v-63h326v-138h-326v-315h-245v315h-324v138h324v63l-21 39h-303v137h236z" />
<glyph unicode="&#xa6;" horiz-adv-x="686" d="M233 369h220v-811h-220v811zM233 801v811h220v-811h-220z" />
<glyph unicode="&#xa7;" horiz-adv-x="1097" d="M104 94v74h230v-76q0 -78 78 -78h260q76 0 76 78v115q0 56 -66 65l-326 54q-237 40 -237 237v160q0 72 23.5 117.5t68.5 83.5q-39 30 -58.5 63t-19.5 88v113q0 140 73.5 213.5t213.5 73.5h260q140 0 213.5 -73.5t73.5 -213.5v-49h-230v59q0 78 -75 78h-222q-75 0 -75 -78 v-100q0 -59 67 -68l326 -53q113 -20 174 -75t61 -163v-170q0 -68 -23 -112t-63 -82q37 -30 54.5 -62t17.5 -86v-133q0 -140 -73.5 -213.5t-213.5 -73.5h-301q-139 0 -213 73.5t-74 213.5zM350 588q0 -61 68 -70l282 -47q32 -4 47 18t15 60v168q0 58 -66 67l-284 47 q-31 4 -46.5 -15.5t-15.5 -59.5v-168z" />
<glyph unicode="&#xa8;" horiz-adv-x="1310" d="M350 1610v237h219v-237h-219zM741 1610v237h220v-237h-220z" />
<glyph unicode="&#xa9;" horiz-adv-x="1734" d="M174 287v901q0 140 74 213.5t213 73.5h813q140 0 213.5 -73.5t73.5 -213.5v-901q0 -139 -73.5 -213t-213.5 -74h-813q-139 0 -213 74t-74 213zM336 285q0 -66 34 -100.5t99 -34.5h797q65 0 99 34.5t34 100.5v905q0 66 -34 100.5t-99 34.5h-797q-65 0 -99 -34.5 t-34 -100.5v-905zM524 492v491q0 104 55.5 159.5t159.5 55.5h258q104 0 158.5 -55.5t54.5 -159.5v-125h-184v111q0 59 -59 59h-199q-57 0 -57 -59v-463q0 -60 57 -60h199q59 0 59 60v110h184v-124q0 -105 -54.5 -160.5t-158.5 -55.5h-258q-104 0 -159.5 56t-55.5 160z" />
<glyph unicode="&#xaa;" horiz-adv-x="786" d="M98 940v59q0 89 48 137t137 48h32q100 0 215 -25v131q0 45 -45 45h-166q-45 0 -45 -45v-37h-153v37q0 91 46.5 138t137.5 47h199q90 0 137 -47.5t47 -137.5v-534h-158v104q-38 -50 -81.5 -77t-106.5 -27h-59q-89 0 -137 47.5t-48 136.5zM115 498v139h573v-139h-573z M256 946q0 -45 45 -45h64q85 0 167 57v115h-231q-45 0 -45 -45v-82z" />
<glyph unicode="&#xab;" horiz-adv-x="1011" d="M39 670v98l262 377h246l-297 -426l297 -424h-246zM449 670v98l262 377h245l-297 -426l297 -424h-245z" />
<glyph unicode="&#xad;" horiz-adv-x="892" d="M113 563v221h667v-221h-667z" />
<glyph unicode="&#xae;" horiz-adv-x="839" d="M109 854v489q0 132 131 132h360q131 0 131 -132v-489q0 -131 -131 -131h-360q-131 0 -131 131zM176 850q0 -29 16.5 -45.5t45.5 -16.5h364q29 0 45.5 16.5t16.5 45.5v498q0 61 -62 61h-364q-62 0 -62 -61v-498zM266 877v446h221q88 0 88 -88v-94q0 -79 -73 -88l82 -176 h-76l-82 178h-88v-178h-72zM338 1120h141q27 0 27 27v86q0 24 -27 24h-141v-137z" />
<glyph unicode="&#xaf;" horiz-adv-x="1243" d="M334 1624v193h553v-193h-553z" />
<glyph unicode="&#xb0;" horiz-adv-x="655" d="M119 1155v205q0 56 29.5 85.5t84.5 29.5h189q56 0 85.5 -29.5t29.5 -85.5v-205q0 -55 -29.5 -85t-85.5 -30h-189q-55 0 -84.5 29.5t-29.5 85.5zM242 1247q-10 -20 12 -30l76 -66q23 -10 32 12l52 105q10 20 -13 30l-75 66q-24 10 -33 -12z" />
<glyph unicode="&#xb1;" horiz-adv-x="1040" d="M121 193v204h799v-204h-799zM121 788v207h295v281h209v-281h295v-207h-295v-282h-209v282h-295z" />
<glyph unicode="&#xb2;" horiz-adv-x="718" d="M66 913h598v160h-431v74q0 16 11.5 24t38.5 15l206 63q39 12 63.5 21.5t52 27.5t41 44.5t13.5 62.5v111q0 184 -184 184h-215q-184 0 -184 -184v-60h164v41q0 43 41 43h168q43 0 43 -43v-51q0 -16 -12 -24t-38 -15l-206 -64q-43 -13 -68 -23t-51.5 -28t-38.5 -43.5 t-12 -60.5v-275z" />
<glyph unicode="&#xb3;" horiz-adv-x="720" d="M55 1098v59h168v-45q0 -43 43 -43h176q43 0 43 43v86q0 43 -43 43h-182v148h172q43 0 43 43v69q0 43 -43 43h-158q-43 0 -43 -43v-45h-168v60q0 89 48 136.5t137 47.5h211q90 0 137 -47t47 -137v-80q0 -77 -76 -121q86 -44 86 -123v-94q0 -90 -47 -137.5t-137 -47.5h-229 q-91 0 -138 47t-47 138z" />
<glyph unicode="&#xb4;" horiz-adv-x="974" d="M252 1610l184 295h299l-291 -295h-192z" />
<glyph unicode="&#xb6;" horiz-adv-x="1628" d="M111 834v354q0 140 73.5 213.5t212.5 73.5h1057v-1475h-246v1243h-168v-1243h-245v547h-398q-139 0 -212.5 73.5t-73.5 213.5z" />
<glyph unicode="&#xb7;" horiz-adv-x="499" d="M125 547v266h250v-266h-250z" />
<glyph unicode="&#xb8;" horiz-adv-x="1157" d="M346 -285h287q26 0 26 33v35q0 33 -26 33h-244l53 112h207q75 0 118.5 -38.5t43.5 -110.5v-27q0 -72 -43.5 -109.5t-118.5 -37.5h-200z" />
<glyph unicode="&#xb9;" horiz-adv-x="477" d="M45 1479v139l193 84h133v-787h-168v613z" />
<glyph unicode="&#xba;" horiz-adv-x="788" d="M98 940v350q0 90 47.5 137.5t137.5 47.5h223q90 0 137 -47.5t47 -137.5v-350q0 -90 -47 -137t-137 -47h-223q-89 0 -137 47.5t-48 136.5zM115 498v139h559v-139h-559zM256 944q0 -45 45 -45h186q45 0 45 45v342q0 45 -45 45h-186q-45 0 -45 -45v-342z" />
<glyph unicode="&#xbb;" horiz-adv-x="1011" d="M55 295l297 424l-297 426h246l262 -377v-98l-262 -375h-246zM465 295l297 424l-297 426h246l262 -377v-98l-262 -375h-246z" />
<glyph unicode="&#xbc;" horiz-adv-x="1546" d="M45 1253v140l193 84h133v-787h-168v613zM170 0l823 1475h176l-823 -1475h-176zM782 279l451 507h143v-485h121v-149h-121v-152h-164v152h-397zM987 301h225v236z" />
<glyph unicode="&#xbd;" horiz-adv-x="1581" d="M45 1253v140l193 84h133v-787h-168v613zM170 0l823 1475h176l-823 -1475h-176zM928 0h598v160h-430v73q0 16 11 24.5t38 14.5l207 64q39 12 63.5 21.5t52 27.5t41 44.5t13.5 62.5v110q0 91 -47 137.5t-138 46.5h-215q-184 0 -184 -184v-59h164v41q0 43 41 43h168 q43 0 43 -43v-52q0 -16 -11.5 -23.5t-37.5 -14.5l-207 -64q-43 -13 -68.5 -23.5t-51.5 -28t-38 -43.5t-12 -61v-274z" />
<glyph unicode="&#xbe;" horiz-adv-x="1789" d="M55 872v60h168v-45q0 -43 43 -43h176q43 0 43 43v86q0 43 -43 43h-182v147h172q43 0 43 43v70q0 43 -43 43h-158q-43 0 -43 -43v-45h-168v59q0 89 48 137t137 48h211q89 0 136.5 -47.5t47.5 -137.5v-80q0 -76 -76 -120q86 -44 86 -123v-95q0 -90 -47 -137t-137 -47h-229 q-91 0 -138 46.5t-47 137.5zM414 0l823 1475h176l-823 -1475h-176zM1026 279l451 507h143v-485h121v-149h-121v-152h-164v152h-397zM1231 301h225v236z" />
<glyph unicode="&#xbf;" horiz-adv-x="1150" d="M80 -82v213q0 28 9 54.5t20 47t37.5 44.5t43 38t57 39t59 35.5t67.5 38.5l71 41q54 29 75.5 48.5t21.5 43.5v125h245v-164q0 -27 -9.5 -53.5t-20 -46t-38 -44t-43 -38t-57.5 -39.5t-59 -35.5t-67 -38.5l-70 -43q-55 -30 -75.5 -49.5t-20.5 -48.5v-154q0 -75 77 -75h381 q76 0 76 75v142h246v-156q0 -140 -74 -213.5t-213 -73.5h-452q-139 0 -213 73.5t-74 213.5zM541 836v270h245v-270h-245z" />
<glyph unicode="&#xc0;" horiz-adv-x="1353" d="M43 0l487 1475h295l488 -1475h-269l-110 365h-522l-111 -365h-258zM336 1905h297l184 -295h-190zM479 590h385l-192 635z" />
<glyph unicode="&#xc1;" horiz-adv-x="1353" d="M43 0l487 1475h295l488 -1475h-269l-110 365h-522l-111 -365h-258zM479 590h385l-192 635zM537 1610l184 295h299l-291 -295h-192z" />
<glyph unicode="&#xc2;" horiz-adv-x="1353" d="M43 0l487 1475h295l488 -1475h-269l-110 365h-522l-111 -365h-258zM315 1610l256 260h213l256 -260h-225l-137 141l-137 -141h-226zM479 590h385l-192 635z" />
<glyph unicode="&#xc3;" horiz-adv-x="1353" d="M43 0l487 1475h295l488 -1475h-269l-110 365h-522l-111 -365h-258zM369 1610l41 188q19 90 120 55l299 -100l35 102h127l-45 -190q-11 -42 -42 -56t-77 3l-303 104l-32 -106h-123zM479 590h385l-192 635z" />
<glyph unicode="&#xc4;" horiz-adv-x="1353" d="M43 0l487 1475h295l488 -1475h-269l-110 365h-522l-111 -365h-258zM373 1610v237h219v-237h-219zM479 590h385l-192 635zM764 1610v237h219v-237h-219z" />
<glyph unicode="&#xc5;" horiz-adv-x="1353" d="M43 0l487 1475h295l488 -1475h-269l-110 365h-522l-111 -365h-258zM479 590h385l-192 635zM492 1718v135q0 111 108 111h156q108 0 108 -111v-135q0 -108 -108 -108h-156q-108 0 -108 108zM606 1737q0 -23 23 -23h98q23 0 23 23v100q0 23 -23 23h-98q-23 0 -23 -23v-100z " />
<glyph unicode="&#xc6;" horiz-adv-x="2056" d="M12 0l760 1475h1180v-226h-699v-383h576v-225h-576v-416h699v-225h-944v358h-541l-178 -358h-277zM578 584h430v663h-101z" />
<glyph unicode="&#xc7;" horiz-adv-x="1282" d="M139 287v901q0 140 73.5 213.5t213.5 73.5h459q139 0 212.5 -73.5t73.5 -213.5v-207h-245v193q0 75 -76 75h-389q-76 0 -76 -75v-873q0 -76 76 -76h389q76 0 76 76v193h245v-207q0 -140 -73.5 -213.5t-212.5 -73.5h-459q-140 0 -213.5 74t-73.5 213zM428 -285h287 q26 0 26 33v35q0 33 -26 33h-244l53 112h207q75 0 118.5 -38.5t43.5 -110.5v-27q0 -72 -43.5 -109.5t-118.5 -37.5h-201z" />
<glyph unicode="&#xc8;" horiz-adv-x="1222" d="M174 0v1475h946v-226h-700v-385h575v-221h-575v-418h700v-225h-946zM311 1905l291 -295h191l-185 295h-297z" />
<glyph unicode="&#xc9;" horiz-adv-x="1222" d="M174 0v1475h946v-226h-700v-385h575v-221h-575v-418h700v-225h-946zM512 1610l184 295h299l-290 -295h-193z" />
<glyph unicode="&#xca;" horiz-adv-x="1222" d="M174 0v1475h946v-226h-700v-385h575v-221h-575v-418h700v-225h-946zM291 1610h225l137 141l138 -141h225l-256 260h-213z" />
<glyph unicode="&#xcb;" horiz-adv-x="1222" d="M174 0v1475h946v-226h-700v-385h575v-221h-575v-418h700v-225h-946zM348 1610v237h219v-237h-219zM739 1610v237h219v-237h-219z" />
<glyph unicode="&#xcc;" horiz-adv-x="591" d="M-45 1905l291 -295h190l-184 295h-297zM174 0v1475h246v-1475h-246z" />
<glyph unicode="&#xcd;" horiz-adv-x="591" d="M156 1610l184 295h299l-291 -295h-192zM174 0v1475h246v-1475h-246z" />
<glyph unicode="&#xce;" horiz-adv-x="591" d="M-66 1610h226l137 141l137 -141h225l-256 260h-213zM174 0v1475h246v-1475h-246z" />
<glyph unicode="&#xcf;" horiz-adv-x="591" d="M-8 1610v237h219v-237h-219zM174 0v1475h246v-1475h-246zM383 1610v237h219v-237h-219z" />
<glyph unicode="&#xd0;" horiz-adv-x="1341" d="M4 623v241h158v611h751q138 0 213.5 -75.5t75.5 -213.5v-897q0 -138 -75.5 -213.5t-213.5 -75.5h-751v623h-158zM408 225h473q35 0 55 21.5t20 58.5v864q0 37 -20 58.5t-55 21.5h-473v-385h159v-241h-159v-398z" />
<glyph unicode="&#xd1;" horiz-adv-x="1456" d="M174 0v1475h260l619 -1063v1063h231v-1475h-242l-636 1092v-1092h-232zM420 1610h123l32 106l304 -104q46 -17 76.5 -3t41.5 56l45 190h-127l-34 -102l-299 100q-50 17 -81 2.5t-40 -57.5z" />
<glyph unicode="&#xd2;" d="M139 287v901q0 140 73.5 213.5t213.5 73.5h485q139 0 213 -73.5t74 -213.5v-901q0 -139 -74 -213t-213 -74h-485q-140 0 -213.5 74t-73.5 213zM328 1905l290 -295h191l-184 295h-297zM385 301q0 -76 76 -76h416q75 0 75 76v873q0 75 -75 75h-416q-76 0 -76 -75v-873z" />
<glyph unicode="&#xd3;" d="M139 287v901q0 140 73.5 213.5t213.5 73.5h485q139 0 213 -73.5t74 -213.5v-901q0 -139 -74 -213t-213 -74h-485q-140 0 -213.5 74t-73.5 213zM385 301q0 -76 76 -76h416q75 0 75 76v873q0 75 -75 75h-416q-76 0 -76 -75v-873zM528 1610l185 295h299l-291 -295h-193z" />
<glyph unicode="&#xd4;" d="M139 287v901q0 140 73.5 213.5t213.5 73.5h485q139 0 213 -73.5t74 -213.5v-901q0 -139 -74 -213t-213 -74h-485q-140 0 -213.5 74t-73.5 213zM307 1610h225l138 141l137 -141h225l-256 260h-213zM385 301q0 -76 76 -76h416q75 0 75 76v873q0 75 -75 75h-416 q-76 0 -76 -75v-873z" />
<glyph unicode="&#xd5;" d="M139 287v901q0 140 73.5 213.5t213.5 73.5h485q139 0 213 -73.5t74 -213.5v-901q0 -139 -74 -213t-213 -74h-485q-140 0 -213.5 74t-73.5 213zM360 1610h123l33 106l303 -104q46 -17 77 -3t42 56l45 190h-127l-35 -102l-299 100q-50 17 -81 2.5t-40 -57.5zM385 301 q0 -76 76 -76h416q75 0 75 76v873q0 75 -75 75h-416q-76 0 -76 -75v-873z" />
<glyph unicode="&#xd6;" d="M139 287v901q0 140 73.5 213.5t213.5 73.5h485q139 0 213 -73.5t74 -213.5v-901q0 -139 -74 -213t-213 -74h-485q-140 0 -213.5 74t-73.5 213zM365 1610v237h219v-237h-219zM385 301q0 -76 76 -76h416q75 0 75 76v873q0 75 -75 75h-416q-76 0 -76 -75v-873zM756 1610v237 h219v-237h-219z" />
<glyph unicode="&#xd7;" horiz-adv-x="1040" d="M141 442l240 240l-240 242l140 139l239 -240l242 242l139 -141l-239 -242l239 -240l-139 -139l-242 240l-239 -242z" />
<glyph unicode="&#xd8;" d="M139 287v901q0 140 73.5 213.5t213.5 73.5h485q139 0 213 -73.5t74 -213.5v-901q0 -139 -74 -213t-213 -74h-485q-140 0 -213.5 74t-73.5 213zM385 406l416 843h-340q-76 0 -76 -75v-768zM532 225h342q78 0 78 76v778z" />
<glyph unicode="&#xd9;" horiz-adv-x="1361" d="M156 287v1188h245v-1174q0 -76 76 -76h406q78 0 78 76v1174h245v-1188q0 -140 -73.5 -213.5t-212.5 -73.5h-478q-139 0 -212.5 73.5t-73.5 213.5zM340 1905l291 -295h190l-184 295h-297z" />
<glyph unicode="&#xda;" horiz-adv-x="1361" d="M156 287v1188h245v-1174q0 -76 76 -76h406q78 0 78 76v1174h245v-1188q0 -140 -73.5 -213.5t-212.5 -73.5h-478q-139 0 -212.5 73.5t-73.5 213.5zM541 1610l184 295h299l-291 -295h-192z" />
<glyph unicode="&#xdb;" horiz-adv-x="1361" d="M156 287v1188h245v-1174q0 -76 76 -76h406q78 0 78 76v1174h245v-1188q0 -140 -73.5 -213.5t-212.5 -73.5h-478q-139 0 -212.5 73.5t-73.5 213.5zM319 1610h226l137 141l137 -141h225l-256 260h-213z" />
<glyph unicode="&#xdc;" horiz-adv-x="1361" d="M156 287v1188h245v-1174q0 -76 76 -76h406q78 0 78 76v1174h245v-1188q0 -140 -73.5 -213.5t-212.5 -73.5h-478q-139 0 -212.5 73.5t-73.5 213.5zM377 1610v237h219v-237h-219zM768 1610v237h219v-237h-219z" />
<glyph unicode="&#xdd;" horiz-adv-x="1247" d="M18 1475h267l340 -705l340 705h262l-482 -959v-516h-245v516zM483 1610l185 295h299l-291 -295h-193z" />
<glyph unicode="&#xde;" horiz-adv-x="1286" d="M174 0v1475h246v-261h491q140 0 213.5 -73.5t73.5 -212.5v-361q0 -139 -73.5 -212.5t-213.5 -73.5h-491v-281h-246zM420 506h457q75 0 75 76v331q0 76 -75 76h-457v-483z" />
<glyph unicode="&#xdf;" horiz-adv-x="1169" d="M133 0v1204q0 132 69.5 201.5t200.5 69.5h365q132 0 201 -69.5t69 -201.5v-233q0 -140 -131 -215q70 -31 109 -88t39 -129v-269q0 -131 -69.5 -200.5t-201.5 -69.5h-282v207h237q37 0 57.5 20t20.5 58v290q0 80 -90 80h-209v201h199q45 0 64.5 19t19.5 61v254 q0 38 -20.5 58t-57.5 20h-277q-77 0 -77 -78v-1190h-236z" />
<glyph unicode="&#xe0;" horiz-adv-x="1130" d="M92 270v115q0 132 76.5 208.5t208.5 76.5h61q140 0 326 -39v198q0 37 -20 57.5t-58 20.5h-248q-37 0 -57.5 -20.5t-20.5 -57.5v-51h-231v58q0 132 69 201t201 69h330q132 0 201 -69t69 -201v-836h-235v168q-139 -168 -307 -168h-95q-132 0 -201 69t-69 201zM240 1536 l290 -295h191l-184 295h-297zM326 281q0 -78 77 -78h89q127 0 274 92v199h-363q-77 0 -77 -78v-135z" />
<glyph unicode="&#xe1;" horiz-adv-x="1130" d="M92 270v115q0 132 76.5 208.5t208.5 76.5h61q140 0 326 -39v198q0 37 -20 57.5t-58 20.5h-248q-37 0 -57.5 -20.5t-20.5 -57.5v-51h-231v58q0 132 69 201t201 69h330q132 0 201 -69t69 -201v-836h-235v168q-139 -168 -307 -168h-95q-132 0 -201 69t-69 201zM326 281 q0 -78 77 -78h89q127 0 274 92v199h-363q-77 0 -77 -78v-135zM440 1241l185 295h299l-291 -295h-193z" />
<glyph unicode="&#xe2;" horiz-adv-x="1130" d="M92 270v115q0 132 76.5 208.5t208.5 76.5h61q140 0 326 -39v198q0 37 -20 57.5t-58 20.5h-248q-37 0 -57.5 -20.5t-20.5 -57.5v-51h-231v58q0 132 69 201t201 69h330q132 0 201 -69t69 -201v-836h-235v168q-139 -168 -307 -168h-95q-132 0 -201 69t-69 201zM219 1241h225 l138 141l137 -141h225l-256 260h-213zM326 281q0 -78 77 -78h89q127 0 274 92v199h-363q-77 0 -77 -78v-135z" />
<glyph unicode="&#xe3;" horiz-adv-x="1130" d="M92 270v115q0 132 76.5 208.5t208.5 76.5h61q140 0 326 -39v198q0 37 -20 57.5t-58 20.5h-248q-37 0 -57.5 -20.5t-20.5 -57.5v-51h-231v58q0 132 69 201t201 69h330q132 0 201 -69t69 -201v-836h-235v168q-139 -168 -307 -168h-95q-132 0 -201 69t-69 201zM272 1241h123 l33 107l303 -105q46 -17 77 -3t42 56l45 191h-127l-35 -103l-299 101q-50 17 -81 2.5t-40 -57.5zM326 281q0 -78 77 -78h89q127 0 274 92v199h-363q-77 0 -77 -78v-135z" />
<glyph unicode="&#xe4;" horiz-adv-x="1130" d="M92 270v115q0 132 76.5 208.5t208.5 76.5h61q140 0 326 -39v198q0 37 -20 57.5t-58 20.5h-248q-37 0 -57.5 -20.5t-20.5 -57.5v-51h-231v58q0 132 69 201t201 69h330q132 0 201 -69t69 -201v-836h-235v168q-139 -168 -307 -168h-95q-132 0 -201 69t-69 201zM276 1241v238 h220v-238h-220zM326 281q0 -78 77 -78h89q127 0 274 92v199h-363q-77 0 -77 -78v-135zM668 1241v238h219v-238h-219z" />
<glyph unicode="&#xe5;" horiz-adv-x="1130" d="M92 270v115q0 132 76.5 208.5t208.5 76.5h61q140 0 326 -39v198q0 37 -20 57.5t-58 20.5h-248q-37 0 -57.5 -20.5t-20.5 -57.5v-51h-231v58q0 132 69 201t201 69h330q132 0 201 -69t69 -201v-836h-235v168q-139 -168 -307 -168h-95q-132 0 -201 69t-69 201zM326 281 q0 -78 77 -78h89q127 0 274 92v199h-363q-77 0 -77 -78v-135zM395 1350v135q0 110 109 110h155q109 0 109 -110v-135q0 -109 -109 -109h-155q-109 0 -109 109zM510 1368q0 -22 22 -22h99q22 0 22 22v100q0 23 -22 23h-99q-22 0 -22 -23v-100z" />
<glyph unicode="&#xe6;" horiz-adv-x="1759" d="M94 270v121q0 132 76.5 207.5t208.5 75.5h53q149 0 326 -37v188q0 78 -78 78h-240q-37 0 -57.5 -20t-20.5 -58v-43h-231v54q0 132 69 201t201 69h322q79 0 151 -72q72 72 154 72h350q132 0 201.5 -69t69.5 -201v-347h-656v-215q0 -77 78 -77h266q37 0 57.5 20t20.5 57v78 h234v-82q0 -132 -69.5 -201t-201.5 -69h-350q-216 0 -260 178q-147 -178 -317 -178h-86q-132 0 -201.5 69t-69.5 201zM330 283q0 -78 78 -78h77q130 0 273 92v197h-350q-78 0 -78 -78v-133zM993 657h422v174q0 38 -20.5 58t-57.5 20h-266q-78 0 -78 -78v-174z" />
<glyph unicode="&#xe7;" horiz-adv-x="1089" d="M121 270v566q0 132 69 201t201 69h334q132 0 201 -69t69 -201v-115h-235v100q0 78 -78 78h-248q-78 0 -78 -78v-536q0 -78 78 -78h248q37 0 57.5 20t20.5 58v100h235v-115q0 -132 -69 -201t-201 -69h-334q-132 0 -201 69t-69 201zM334 -285h287q26 0 26 33v35 q0 33 -26 33h-244l53 112h207q75 0 118.5 -38.5t43.5 -110.5v-27q0 -72 -43.5 -109.5t-118.5 -37.5h-201z" />
<glyph unicode="&#xe8;" horiz-adv-x="1124" d="M121 270v566q0 132 69 201t201 69h354q132 0 201.5 -69t69.5 -201v-347h-660v-217q0 -77 78 -77h268q78 0 78 77v84h236v-86q0 -132 -69.5 -201t-201.5 -69h-354q-132 0 -201 69t-69 201zM227 1536h297l185 -295h-191zM356 655h424v179q0 77 -78 77h-268q-78 0 -78 -77 v-179z" />
<glyph unicode="&#xe9;" horiz-adv-x="1124" d="M121 270v566q0 132 69 201t201 69h354q132 0 201.5 -69t69.5 -201v-347h-660v-217q0 -77 78 -77h268q78 0 78 77v84h236v-86q0 -132 -69.5 -201t-201.5 -69h-354q-132 0 -201 69t-69 201zM356 655h424v179q0 77 -78 77h-268q-78 0 -78 -77v-179zM426 1241l184 295h299 l-291 -295h-192z" />
<glyph unicode="&#xea;" horiz-adv-x="1124" d="M121 270v566q0 132 69 201t201 69h354q132 0 201.5 -69t69.5 -201v-347h-660v-217q0 -77 78 -77h268q78 0 78 77v84h236v-86q0 -132 -69.5 -201t-201.5 -69h-354q-132 0 -201 69t-69 201zM205 1241l256 260h213l256 -260h-225l-138 141l-137 -141h-225zM356 655h424v179 q0 77 -78 77h-268q-78 0 -78 -77v-179z" />
<glyph unicode="&#xeb;" horiz-adv-x="1124" d="M121 270v566q0 132 69 201t201 69h354q132 0 201.5 -69t69.5 -201v-347h-660v-217q0 -77 78 -77h268q78 0 78 77v84h236v-86q0 -132 -69.5 -201t-201.5 -69h-354q-132 0 -201 69t-69 201zM262 1241v238h219v-238h-219zM356 655h424v179q0 77 -78 77h-268q-78 0 -78 -77 v-179zM653 1241v238h219v-238h-219z" />
<glyph unicode="&#xec;" horiz-adv-x="526" d="M-68 1536l293 -295h191l-185 295h-299zM145 0v1106h236v-1106h-236z" />
<glyph unicode="&#xed;" horiz-adv-x="526" d="M117 1241l184 295h299l-291 -295h-192zM145 0v1106h236v-1106h-236z" />
<glyph unicode="&#xee;" horiz-adv-x="526" d="M-98 1241h223l139 141l137 -141h224l-254 260h-213zM145 0v1106h236v-1106h-236z" />
<glyph unicode="&#xef;" horiz-adv-x="526" d="M-43 1241v238h221v-238h-221zM145 0v1106h236v-1106h-236zM350 1241v238h219v-238h-219z" />
<glyph unicode="&#xf0;" horiz-adv-x="1148" d="M121 270v498q0 132 69 201t201 69h96q51 0 97 -14.5t85.5 -42t66.5 -52t59 -59.5v193q0 55 -20.5 77.5t-76.5 41.5l-102 37l-94 -95h-207l147 148l-180 61v150l313 -78l93 92h206l-133 -133q163 -44 226 -112t63 -201v-781q0 -131 -69 -200.5t-201 -69.5h-369 q-132 0 -201 69.5t-69 200.5zM354 285q0 -38 20.5 -58t57.5 -20h285q37 0 57.5 20t20.5 58v456q-148 93 -273 93h-90q-37 0 -57.5 -20.5t-20.5 -57.5v-471z" />
<glyph unicode="&#xf1;" horiz-adv-x="1163" d="M141 0v1106h236v-168q31 35 57.5 59.5t65.5 52t85.5 42t98.5 14.5h78q132 0 201 -69t69 -201v-836h-235v817q0 37 -20 57.5t-58 20.5h-70q-129 0 -272 -92v-803h-236zM281 1241h122l33 107l303 -105q46 -17 77 -3t42 56l45 191h-127l-35 -103l-299 101q-101 35 -120 -55z " />
<glyph unicode="&#xf2;" horiz-adv-x="1142" d="M119 270v566q0 132 69.5 201t200.5 69h365q132 0 201 -69t69 -201v-566q0 -132 -69 -201t-201 -69h-365q-131 0 -200.5 70t-69.5 200zM231 1536l291 -295h191l-185 295h-297zM354 285q0 -38 20.5 -58t57.5 -20h281q37 0 57.5 20t20.5 58v536q0 78 -78 78h-281 q-37 0 -57.5 -20t-20.5 -58v-536z" />
<glyph unicode="&#xf3;" horiz-adv-x="1142" d="M119 270v566q0 132 69.5 201t200.5 69h365q132 0 201 -69t69 -201v-566q0 -132 -69 -201t-201 -69h-365q-131 0 -200.5 70t-69.5 200zM354 285q0 -38 20.5 -58t57.5 -20h281q37 0 57.5 20t20.5 58v536q0 78 -78 78h-281q-37 0 -57.5 -20t-20.5 -58v-536zM432 1241 l184 295h299l-290 -295h-193z" />
<glyph unicode="&#xf4;" horiz-adv-x="1142" d="M119 270v566q0 132 69.5 201t200.5 69h365q132 0 201 -69t69 -201v-566q0 -132 -69 -201t-201 -69h-365q-131 0 -200.5 70t-69.5 200zM211 1241h225l137 141l138 -141h225l-256 260h-213zM354 285q0 -38 20.5 -58t57.5 -20h281q37 0 57.5 20t20.5 58v536q0 78 -78 78 h-281q-37 0 -57.5 -20t-20.5 -58v-536z" />
<glyph unicode="&#xf5;" horiz-adv-x="1142" d="M119 270v566q0 132 69.5 201t200.5 69h365q132 0 201 -69t69 -201v-566q0 -132 -69 -201t-201 -69h-365q-131 0 -200.5 70t-69.5 200zM264 1241h123l33 107l303 -105q46 -17 77 -3t42 56l45 191h-127l-35 -103l-299 101q-50 17 -81 2.5t-40 -57.5zM354 285 q0 -38 20.5 -58t57.5 -20h281q37 0 57.5 20t20.5 58v536q0 78 -78 78h-281q-37 0 -57.5 -20t-20.5 -58v-536z" />
<glyph unicode="&#xf6;" horiz-adv-x="1142" d="M119 270v566q0 132 69.5 201t200.5 69h365q132 0 201 -69t69 -201v-566q0 -132 -69 -201t-201 -69h-365q-131 0 -200.5 70t-69.5 200zM268 1241v238h219v-238h-219zM354 285q0 -38 20.5 -58t57.5 -20h281q37 0 57.5 20t20.5 58v536q0 78 -78 78h-281q-37 0 -57.5 -20 t-20.5 -58v-536zM659 1241v238h220v-238h-220z" />
<glyph unicode="&#xf7;" horiz-adv-x="1040" d="M94 645v225h852v-225h-852zM399 248v248h242v-248h-242zM399 1020v248h242v-248h-242z" />
<glyph unicode="&#xf8;" horiz-adv-x="1146" d="M121 270v566q0 132 69 201t201 69h365q132 0 201 -69t69 -201v-566q0 -132 -69 -201t-201 -69h-365q-132 0 -201 69.5t-69 200.5zM354 311l314 588h-240q-74 0 -74 -72v-516zM483 207h236q72 0 72 72v503z" />
<glyph unicode="&#xf9;" horiz-adv-x="1163" d="M131 270v836h236v-817q0 -78 77 -78h70q126 0 272 92v803h236v-1106h-236v168q-33 -35 -59 -59.5t-65.5 -52t-85.5 -42t-97 -14.5h-78q-132 0 -201 69t-69 201zM236 1536l290 -295h191l-185 295h-296z" />
<glyph unicode="&#xfa;" horiz-adv-x="1163" d="M131 270v836h236v-817q0 -78 77 -78h70q126 0 272 92v803h236v-1106h-236v168q-33 -35 -59 -59.5t-65.5 -52t-85.5 -42t-97 -14.5h-78q-132 0 -201 69t-69 201zM436 1241l185 295h299l-291 -295h-193z" />
<glyph unicode="&#xfb;" horiz-adv-x="1163" d="M131 270v836h236v-817q0 -78 77 -78h70q126 0 272 92v803h236v-1106h-236v168q-33 -35 -59 -59.5t-65.5 -52t-85.5 -42t-97 -14.5h-78q-132 0 -201 69t-69 201zM215 1241h225l138 141l137 -141h225l-256 260h-213z" />
<glyph unicode="&#xfc;" horiz-adv-x="1163" d="M131 270v836h236v-817q0 -78 77 -78h70q126 0 272 92v803h236v-1106h-236v168q-33 -35 -59 -59.5t-65.5 -52t-85.5 -42t-97 -14.5h-78q-132 0 -201 69t-69 201zM272 1241v238h220v-238h-220zM664 1241v238h219v-238h-219z" />
<glyph unicode="&#xfd;" horiz-adv-x="1087" d="M35 1106h250l262 -850l266 850h240l-525 -1475h-225l125 369zM412 1241l184 295h299l-291 -295h-192z" />
<glyph unicode="&#xfe;" horiz-adv-x="1171" d="M141 -369v1905h236v-598q33 35 59 59.5t65.5 52t85.5 42t97 14.5h96q132 0 201.5 -69t69.5 -201v-566q0 -132 -69.5 -201t-201.5 -69h-96q-51 0 -97 14.5t-85.5 42t-65.5 52t-59 59.5v-537h-236zM377 299q141 -92 272 -92h90q37 0 57.5 20t20.5 58v536q0 38 -20.5 58 t-57.5 20h-90q-131 0 -272 -92v-508z" />
<glyph unicode="&#xff;" horiz-adv-x="1087" d="M35 1106h250l262 -850l266 850h240l-525 -1475h-225l125 369zM248 1241v238h219v-238h-219zM639 1241v238h219v-238h-219z" />
<glyph unicode="&#x152;" horiz-adv-x="2000" d="M139 287v901q0 140 73.5 213.5t213.5 73.5h1470v-226h-698v-383h576v-225h-576v-416h698v-225h-1470q-140 0 -213.5 74t-73.5 213zM385 301q0 -76 76 -76h491v1024h-491q-76 0 -76 -75v-873z" />
<glyph unicode="&#x153;" horiz-adv-x="1789" d="M119 270v566q0 132 69.5 201t200.5 69h352q94 0 166 -72q72 72 166 72h338q132 0 201 -69t69 -201v-347h-657v-221q0 -71 74 -71h276q72 0 72 71v84h235v-82q0 -132 -69 -201t-201 -69h-338q-94 0 -166 72q-72 -72 -166 -72h-352q-131 0 -200.5 70t-69.5 200zM354 279 q0 -72 72 -72h291q74 0 74 72v548q0 72 -74 72h-291q-72 0 -72 -72v-548zM1024 657h422v181q0 71 -72 71h-276q-74 0 -74 -71v-181z" />
<glyph unicode="&#x178;" horiz-adv-x="1247" d="M18 1475h267l340 -705l340 705h262l-482 -959v-516h-245v516zM319 1610v237h220v-237h-220zM711 1610v237h219v-237h-219z" />
<glyph unicode="&#x2c6;" horiz-adv-x="1351" d="M313 1610h226l137 141l137 -141h225l-256 260h-213z" />
<glyph unicode="&#x2dc;" horiz-adv-x="1249" d="M313 1610h123l33 106l303 -104q46 -17 77 -3t42 56l45 190h-127l-35 -102l-299 100q-50 17 -81 2.5t-40 -57.5z" />
<glyph unicode="&#x2000;" horiz-adv-x="982" />
<glyph unicode="&#x2001;" horiz-adv-x="1964" />
<glyph unicode="&#x2002;" horiz-adv-x="982" />
<glyph unicode="&#x2003;" horiz-adv-x="1964" />
<glyph unicode="&#x2004;" horiz-adv-x="654" />
<glyph unicode="&#x2005;" horiz-adv-x="491" />
<glyph unicode="&#x2006;" horiz-adv-x="327" />
<glyph unicode="&#x2007;" horiz-adv-x="327" />
<glyph unicode="&#x2008;" horiz-adv-x="245" />
<glyph unicode="&#x2009;" horiz-adv-x="392" />
<glyph unicode="&#x200a;" horiz-adv-x="109" />
<glyph unicode="&#x2010;" horiz-adv-x="892" d="M113 563v221h667v-221h-667z" />
<glyph unicode="&#x2011;" horiz-adv-x="892" d="M113 563v221h667v-221h-667z" />
<glyph unicode="&#x2012;" horiz-adv-x="892" d="M113 563v221h667v-221h-667z" />
<glyph unicode="&#x2013;" horiz-adv-x="1148" d="M113 563v221h921v-221h-921z" />
<glyph unicode="&#x2014;" horiz-adv-x="1648" d="M113 565v219h1423v-219h-1423z" />
<glyph unicode="&#x2018;" horiz-adv-x="493" d="M121 942v201q0 26 17 63.5t30 57t45 65.5l100 146h105l-146 -267h101v-266h-252z" />
<glyph unicode="&#x2019;" horiz-adv-x="493" d="M76 942l145 266h-100v267h252v-203q0 -60 -90 -185l-101 -145h-106z" />
<glyph unicode="&#x201a;" horiz-adv-x="493" d="M76 -266l145 266h-100v266h252v-203q0 -59 -90 -184l-101 -145h-106z" />
<glyph unicode="&#x201c;" horiz-adv-x="878" d="M121 942v201q0 26 17 63.5t30 57t45 65.5l100 146h105l-146 -267h101v-266h-252zM506 942v201q0 26 16 62.5t30.5 59.5t43.5 64l100 146h107l-148 -267h101v-266h-250z" />
<glyph unicode="&#x201d;" horiz-adv-x="878" d="M76 942l145 266h-100v267h252v-203q0 -60 -90 -185l-101 -145h-106zM459 942l147 266h-100v267h250v-203q0 -60 -90 -185l-101 -145h-106z" />
<glyph unicode="&#x201e;" horiz-adv-x="493" d="M76 -266l145 266h-100v266h252v-203q0 -59 -90 -184l-101 -145h-106z" />
<glyph unicode="&#x2022;" horiz-adv-x="876" d="M223 702v119q0 76 40.5 116t115.5 40h119q155 0 155 -156v-119q0 -76 -40 -115.5t-115 -39.5h-119q-76 0 -116 40t-40 115z" />
<glyph unicode="&#x2026;" horiz-adv-x="1382" d="M121 0v266h252v-266h-252zM565 0v266h252v-266h-252zM1010 0v266h250v-266h-250z" />
<glyph unicode="&#x202f;" horiz-adv-x="392" />
<glyph unicode="&#x2039;" horiz-adv-x="604" d="M39 670v98l262 377h246l-297 -426l297 -424h-246z" />
<glyph unicode="&#x203a;" horiz-adv-x="604" d="M55 295l297 424l-297 426h246l262 -377v-98l-262 -375h-246z" />
<glyph unicode="&#x205f;" horiz-adv-x="491" />
<glyph unicode="&#x20ac;" horiz-adv-x="1366" d="M59 516v141h164v166h-164v140h164v225q0 140 73.5 213.5t213.5 73.5h459q139 0 212.5 -73.5t73.5 -213.5v-207h-245v193q0 75 -78 75h-387q-76 0 -76 -75v-211h418v-140h-418v-166h418v-141h-418v-215q0 -76 76 -76h387q78 0 78 76v193h245v-207q0 -140 -73.5 -213.5 t-212.5 -73.5h-459q-140 0 -213.5 74t-73.5 213v229h-164z" />
<glyph unicode="&#x2122;" horiz-adv-x="1544" d="M106 1352v123h527v-123h-199v-615h-133v615h-195zM750 737v738h145l199 -451l198 451h146v-738h-123v512l-176 -397h-90l-177 397v-512h-122z" />
<glyph unicode="&#x25fc;" horiz-adv-x="1105" d="M0 0v1106h1106v-1106h-1106z" />
</font>
</defs>
</svg>
